<svg width="124" height="124" viewBox="0 0 124 124" fill="none" xmlns="http://www.w3.org/2000/svg">
<path d="M85.9571 58.2842C85.1061 72.1316 73.189 82.6694 59.3415 81.8185C45.4918 80.9682 34.9563 69.0504 35.8072 55.203C36.6581 41.3555 63.9954 6.10793 63.9954 6.10793C63.9954 6.10793 86.8102 44.4361 85.9577 58.2864L85.9571 58.2842Z" fill="url(#paint1_linear_4002_42411)"/>
<path d="M59.2891 82.6758C44.9896 81.7968 34.073 69.4499 34.952 55.1503C35.8107 41.1993 62.1953 7.02955 63.317 5.58175L64.0875 4.58777L64.7321 5.66914C65.6693 7.24496 87.6705 44.386 86.8146 58.3387C85.935 72.636 73.5887 83.5548 59.2891 82.6758ZM63.8998 7.64367C59.4606 13.4942 37.4085 43.1228 36.6619 55.2558C35.842 68.6093 46.0377 80.1422 59.394 80.9637C72.7475 81.7836 84.2804 71.5879 85.1002 58.2344C85.8463 46.0991 67.5895 13.9946 63.9004 7.64591L63.8998 7.64367Z" fill="url(#paint2_linear_4002_42411)"/>
<path d="M83.2362 51.4254C86.4822 63.2524 79.5253 75.4694 67.7005 78.7149C55.8758 81.9603 43.6565 75.0039 40.4111 63.1792C37.1657 51.3544 44.122 39.1351 55.9468 35.8897C67.7715 32.6443 79.9902 39.5984 83.2362 51.4254Z" fill="url(#paint3_linear_4002_42411)"/>
<path style="mix-blend-mode:multiply" d="M80.9529 58.4785C80.3049 69.0437 71.2132 77.0817 60.6474 76.4314C50.0822 75.7833 42.0442 66.6916 42.6923 56.1264C43.3403 45.5612 52.4321 37.5233 62.9979 38.1736C73.5608 38.8222 81.601 47.9133 80.9507 58.4792L80.9529 58.4785Z" fill="url(#paint4_linear_4002_42411)"/>
<g clip-path="url(#clip0_4002_42411)">
<path d="M77.7567 53.5748L77.2359 55.9113C77.2108 56.0221 77.1102 56.1007 76.9989 56.1007H76.2553C76.1153 56.1007 76.0039 55.9828 76.0111 55.8435C76.0111 55.8149 76.0111 55.8006 76.0111 55.8006C76.047 55.0396 75.5621 54.4715 74.4702 54.4715C72.6527 54.4715 71.3309 55.9542 71.1549 57.9049C70.9753 59.9163 72.3905 61.0882 74.3481 61.0882C75.3538 61.0882 76.1476 60.8953 76.593 60.7559C76.769 60.6988 76.9414 60.8524 76.9091 61.0346L76.6792 62.2422C76.6612 62.3458 76.5858 62.4279 76.4852 62.4601C76.0829 62.5887 74.9587 62.8853 73.231 62.8853C69.1327 62.8853 67.4696 60.5416 67.7282 58.1514C67.9581 56.0221 69.3733 52.8853 74.9551 52.8853C76.0255 52.8853 76.8803 53.0567 77.552 53.239C77.6993 53.2783 77.7891 53.4283 77.7531 53.5748H77.7567ZM54.4563 53.2461L54.3198 53.8535C54.291 53.9892 54.37 54.125 54.5029 54.1679C54.74 54.2572 54.7903 54.4823 54.5856 54.6537L51.1553 57.4869L51.7444 54.8145C51.845 54.4037 52.1718 54.2357 52.3801 54.1679C52.3909 54.1679 52.4017 54.1607 52.4125 54.1571C52.5023 54.1286 52.5741 54.0535 52.5921 53.9606L52.7322 53.3283C52.7645 53.1782 52.6495 53.0353 52.4951 53.0353H48.0807C47.955 53.0353 47.8472 53.1211 47.8221 53.2425L47.6784 53.882C47.6497 54.0142 47.7251 54.1428 47.8508 54.1857C47.8759 54.1929 47.8939 54.2 47.8939 54.2C48.1705 54.3072 48.4937 54.5501 48.3573 55.1896L47.3048 59.9878C47.0283 61.299 46.5829 61.5669 46.1554 61.6169C46.1518 61.6169 46.1482 61.6169 46.1411 61.6169C46.0261 61.6277 45.9327 61.7134 45.9076 61.8242L45.7711 62.4387C45.7352 62.5959 45.8573 62.7495 46.0189 62.7495H50.6668C50.7818 62.7495 50.8787 62.6709 50.9039 62.5601L51.0655 61.842C51.0907 61.7241 51.0296 61.6062 50.9147 61.5634C50.9039 61.5598 50.8967 61.5562 50.8859 61.5526C50.6489 61.4562 50.3292 61.2561 50.4118 60.8738L50.9506 58.4194C52.8004 61.7849 53.4146 62.7531 55.6344 62.7531H57.6387C57.7536 62.7531 57.8506 62.6745 57.8757 62.5637L58.0158 61.9421C58.0517 61.7813 57.9332 61.6277 57.768 61.6241C57.2651 61.6169 57.0209 61.5026 56.5216 60.8631L53.9462 57.3976L57.2938 54.6287C57.7428 54.2786 58.2888 54.1821 58.5941 54.1393C58.5941 54.1393 58.6049 54.1393 58.6228 54.1393C58.7306 54.1286 58.8168 54.0535 58.8383 53.9499L58.9748 53.3354C59.0072 53.1818 58.8922 53.0389 58.7342 53.0389H54.7077C54.582 53.0389 54.4742 53.1246 54.4491 53.2461H54.4563ZM66.8374 55.9113H67.6205C67.7354 55.9113 67.8324 55.8327 67.8575 55.722L68.3891 53.3354C68.4215 53.1854 68.3065 53.0389 68.1521 53.0389H59.9195C59.7938 53.0389 59.686 53.1246 59.6609 53.2461L59.5172 53.8856C59.4885 54.0107 59.5603 54.1357 59.6788 54.1786C59.686 54.1786 59.6968 54.1857 59.7076 54.1893C59.977 54.2929 60.3541 54.5537 60.1925 55.1932L58.5797 62.4637C58.5474 62.6137 58.6623 62.7566 58.8168 62.7566H62.52C62.6349 62.7566 62.7319 62.678 62.7571 62.5673L62.9187 61.842C62.9438 61.7348 62.8864 61.6277 62.7858 61.5812C62.775 61.5776 62.7607 61.5705 62.7499 61.5634C62.5164 61.449 62.1644 61.1846 62.2829 60.6773C62.2937 60.6094 62.6457 59.0303 62.6457 59.0303H65.7958C65.9107 59.0303 66.0077 58.9517 66.0329 58.841L66.3274 57.5119C66.3597 57.3583 66.2448 57.2154 66.0903 57.2154H63.048L63.6155 54.6395H65.7383C66.4244 54.6395 66.6327 54.9931 66.5932 55.6005C66.5932 55.6005 66.5932 55.6077 66.5932 55.6327C66.5788 55.7791 66.6902 55.9042 66.8374 55.9042V55.9113Z" fill="white"/>
</g>
<defs>
<radialGradient id="paint0_radial_4002_42411" cx="0" cy="0" r="1" gradientUnits="userSpaceOnUse" gradientTransform="translate(62.2416 62.1242) rotate(-15.3474) scale(49.9424)">
<stop offset="0.34" stop-color="#400900"/>
<stop offset="0.37" stop-color="#4E1B13"/>
<stop offset="0.47" stop-color="#7C5751"/>
<stop offset="0.57" stop-color="#A48A86"/>
<stop offset="0.67" stop-color="#C4B4B1"/>
<stop offset="0.76" stop-color="#DED4D3"/>
<stop offset="0.85" stop-color="#F0ECEB"/>
<stop offset="0.93" stop-color="#FBFAF9"/>
<stop offset="1" stop-color="white"/>
</radialGradient>
<linearGradient id="paint1_linear_4002_42411" x1="83.5927" y1="29.4746" x2="36.3245" y2="71.2755" gradientUnits="userSpaceOnUse">
<stop stop-color="#FFF890"/>
<stop offset="0.14" stop-color="#FBE678"/>
<stop offset="0.24" stop-color="#F8D865"/>
<stop offset="0.28" stop-color="#DFB955"/>
<stop offset="0.34" stop-color="#C19140"/>
<stop offset="0.4" stop-color="#AB7532"/>
<stop offset="0.45" stop-color="#9D6429"/>
<stop offset="0.49" stop-color="#995E26"/>
<stop offset="0.52" stop-color="#9C6329"/>
<stop offset="0.55" stop-color="#A87232"/>
<stop offset="0.59" stop-color="#BA8C42"/>
<stop offset="0.64" stop-color="#D4B058"/>
<stop offset="0.68" stop-color="#F5DD73"/>
<stop offset="0.69" stop-color="#FBE578"/>
<stop offset="0.77" stop-color="#FFFDAA"/>
<stop offset="0.83" stop-color="#FBE578"/>
<stop offset="1" stop-color="#A45221"/>
</linearGradient>
<linearGradient id="paint2_linear_4002_42411" x1="32.7224" y1="52.3063" x2="82.5054" y2="38.6429" gradientUnits="userSpaceOnUse">
<stop stop-color="#FFF890"/>
<stop offset="0.14" stop-color="#FBE678"/>
<stop offset="0.24" stop-color="#F8D865"/>
<stop offset="0.28" stop-color="#DFB955"/>
<stop offset="0.34" stop-color="#C19140"/>
<stop offset="0.4" stop-color="#AB7532"/>
<stop offset="0.45" stop-color="#9D6429"/>
<stop offset="0.49" stop-color="#995E26"/>
<stop offset="0.52" stop-color="#9C6329"/>
<stop offset="0.55" stop-color="#A87232"/>
<stop offset="0.59" stop-color="#BA8C42"/>
<stop offset="0.64" stop-color="#D4B058"/>
<stop offset="0.68" stop-color="#F5DD73"/>
<stop offset="0.69" stop-color="#FBE578"/>
<stop offset="0.77" stop-color="#FFFDAA"/>
<stop offset="0.83" stop-color="#FBE578"/>
<stop offset="1" stop-color="#A45221"/>
</linearGradient>
<linearGradient id="paint3_linear_4002_42411" x1="72.5158" y1="38.5175" x2="49.7875" y2="78.4412" gradientUnits="userSpaceOnUse">
<stop stop-color="#FFF890"/>
<stop offset="0.14" stop-color="#FBE678"/>
<stop offset="0.24" stop-color="#F8D865"/>
<stop offset="0.28" stop-color="#DFB955"/>
<stop offset="0.34" stop-color="#C19140"/>
<stop offset="0.4" stop-color="#AB7532"/>
<stop offset="0.45" stop-color="#9D6429"/>
<stop offset="0.49" stop-color="#995E26"/>
<stop offset="0.52" stop-color="#9C6329"/>
<stop offset="0.55" stop-color="#A87232"/>
<stop offset="0.59" stop-color="#BA8C42"/>
<stop offset="0.64" stop-color="#D4B058"/>
<stop offset="0.68" stop-color="#F5DD73"/>
<stop offset="0.69" stop-color="#FBE578"/>
<stop offset="0.77" stop-color="#FFFDAA"/>
<stop offset="0.83" stop-color="#FBE578"/>
<stop offset="1" stop-color="#A45221"/>
</linearGradient>
<linearGradient id="paint4_linear_4002_42411" x1="40.5646" y1="76.0901" x2="71.8473" y2="48.4257" gradientUnits="userSpaceOnUse">
<stop stop-color="#FC4914"/>
<stop offset="0.61" stop-color="#DD1B31"/>
<stop offset="1" stop-color="#CD0441"/>
</linearGradient>
</defs>
</svg>
