<svg width="40" height="40" viewBox="0 0 40 40" fill="none" xmlns="http://www.w3.org/2000/svg">
<mask id="mask0_1566_17560" style="mask-type:luminance" maskUnits="userSpaceOnUse" x="0" y="0" width="40" height="40">
<path d="M20 40C31.0457 40 40 31.0457 40 20C40 8.9543 31.0457 0 20 0C8.9543 0 0 8.9543 0 20C0 31.0457 8.9543 40 20 40Z" fill="white"/>
</mask>
<g mask="url(#mask0_1566_17560)">
<path d="M20 40C31.0457 40 40 31.0457 40 20C40 8.9543 31.0457 0 20 0C8.9543 0 0 8.9543 0 20C0 31.0457 8.9543 40 20 40Z" fill="#EA0029"/>
<path d="M4.11869 35.0023C7.06791 34.0578 10.2382 34.1781 13.3328 34.3078C16.732 34.4507 20.1304 34.5929 23.5296 34.7359C20.821 36.4296 17.6187 37.1078 14.4913 37.757C11.782 38.3195 9.07338 38.8812 6.364 39.4437C5.73744 39.5734 5.10228 39.7046 4.46322 39.6632C3.80853 39.621 3.12572 39.3625 2.76712 38.8132C2.40853 38.264 2.52181 37.3992 3.10697 37.1039" fill="#FACDCE"/>
<path d="M5.75689 37.1683C10.6311 38.2175 16.5569 35.1284 21.3702 34.2331C23.2874 33.8769 25.1858 33.3659 27.1413 33.3073C29.0959 33.2487 31.1592 33.6878 32.7686 35.0441C34.378 36.4003 35.4045 38.8136 34.8803 40.9191C34.4389 42.6909 33.0249 43.9198 31.503 44.5534C29.9811 45.187 28.3225 45.3355 26.7131 45.6558C23.7975 46.2355 20.9975 47.398 18.478 49.0745C14.1702 51.9402 10.592 56.3316 5.7311 57.8433C4.10532 58.3487 2.26314 58.48 0.734229 57.5308C-0.58374 56.7128 -1.49937 55.1605 -1.83999 53.5214C-2.18062 51.8823 -1.98921 50.1706 -1.49468 48.63" fill="#FCE4E6"/>
<path fill-rule="evenodd" clip-rule="evenodd" d="M10.7204 33.3429C11.9798 33.1328 11.7087 32.1593 11.4822 30.9851C11.2556 29.8109 10.5446 28.9547 9.89856 29.0789C9.25246 29.2031 8.91027 30.2625 9.13684 31.4367C9.3634 32.6109 9.43059 33.5586 10.7204 33.3429Z" fill="#FACDCE"/>
<path fill-rule="evenodd" clip-rule="evenodd" d="M10.3125 31.182C10.475 30.9593 10.5859 30.7429 10.7484 30.5203C10.7648 30.4953 10.7359 30.4859 10.7257 30.4992L10.2585 31.1054L10.3132 31.182H10.3125Z" fill="#653535"/>
<path fill-rule="evenodd" clip-rule="evenodd" d="M10.529 32.2391C10.6915 32.0165 10.8024 31.8001 10.9649 31.5774C10.9813 31.5524 10.9524 31.543 10.9423 31.5563L10.4751 32.1626L10.5298 32.2391H10.529Z" fill="#653535"/>
<path fill-rule="evenodd" clip-rule="evenodd" d="M10.4086 31.8664C10.175 31.7195 9.97812 31.514 9.74453 31.3671C9.72031 31.3499 9.74297 31.3304 9.75781 31.339L10.4305 31.7749L10.4086 31.8664Z" fill="#653535"/>
<path fill-rule="evenodd" clip-rule="evenodd" d="M10.5836 32.7517C10.35 32.6048 10.2133 32.4837 9.9789 32.3369C9.95469 32.3197 9.97734 32.3001 9.99219 32.3087L10.6055 32.6603L10.5836 32.7517Z" fill="#653535"/>
<path fill-rule="evenodd" clip-rule="evenodd" d="M10.082 30.2165C10.082 30.1986 10.0914 30.1923 10.1008 30.1962C10.1078 30.19 10.1195 30.1915 10.1258 30.2087C10.5258 32.1283 10.6984 32.865 11.0984 34.7845C11.025 34.7986 10.9523 34.8126 10.8789 34.8267C10.5375 32.8962 10.4234 32.1478 10.082 30.2173V30.2165Z" fill="#653535"/>
<path fill-rule="evenodd" clip-rule="evenodd" d="M9.62573 32.0911C9.75098 32.0785 9.88406 32.1646 9.88954 32.2922C9.7181 32.2977 9.68679 32.239 9.62573 32.0911Z" fill="#F16B6D"/>
<path fill-rule="evenodd" clip-rule="evenodd" d="M9.83986 29.3892C9.80698 29.5183 9.87665 29.6725 10.0105 29.6984C10.0434 29.5183 9.98624 29.4768 9.83986 29.3892Z" fill="#F16B6D"/>
<path fill-rule="evenodd" clip-rule="evenodd" d="M10.2262 29.3711C10.1111 29.4392 10.0524 29.5981 10.1291 29.7108C10.2794 29.6067 10.2685 29.5371 10.2262 29.3711Z" fill="#F16B6D"/>
<path fill-rule="evenodd" clip-rule="evenodd" d="M11.0487 31.1592C10.9524 31.2226 10.9078 31.3611 10.9775 31.4551C11.1027 31.3596 11.091 31.3001 11.0487 31.1592Z" fill="#F16B6D"/>
<path fill-rule="evenodd" clip-rule="evenodd" d="M11.3053 31.3711C11.1925 31.3484 11.0634 31.415 11.0461 31.5308C11.2019 31.5519 11.2356 31.5011 11.3053 31.3711Z" fill="#F16B6D"/>
<path fill-rule="evenodd" clip-rule="evenodd" d="M9.89209 32.9978C9.97898 33.0737 10.1238 33.08 10.1958 32.9876C10.0706 32.8921 10.0166 32.9195 9.89209 32.9978Z" fill="#F16B6D"/>
<path fill-rule="evenodd" clip-rule="evenodd" d="M10.0291 32.6953C10.0369 32.8104 10.1355 32.9176 10.2514 32.9028C10.2302 32.747 10.1723 32.7282 10.0291 32.6953Z" fill="#F16B6D"/>
<path fill-rule="evenodd" clip-rule="evenodd" d="M9.38672 30.2742C9.44152 30.3869 9.58477 30.455 9.69671 30.3932C9.61139 30.2437 9.54485 30.2484 9.38672 30.2742Z" fill="#F16B6D"/>
<path fill-rule="evenodd" clip-rule="evenodd" d="M9.69685 30.1465C9.68589 30.2349 9.74539 30.3312 9.83619 30.3367C9.84246 30.2146 9.80097 30.1919 9.69685 30.1465Z" fill="#F16B6D"/>
<path fill-rule="evenodd" clip-rule="evenodd" d="M9.375 30.5945C9.4752 30.6697 9.63411 30.6642 9.70456 30.5577C9.56053 30.4646 9.50338 30.499 9.375 30.5945Z" fill="#F16B6D"/>
<path fill-rule="evenodd" clip-rule="evenodd" d="M9.32666 31.1772C9.37206 31.2946 9.50905 31.3745 9.62569 31.3212C9.55289 31.1654 9.48635 31.1647 9.32666 31.1772Z" fill="#F16B6D"/>
<path fill-rule="evenodd" clip-rule="evenodd" d="M9.7025 30.9912C9.64771 31.0546 9.64458 31.1611 9.7119 31.2127C9.78079 31.1212 9.76043 31.0812 9.7025 30.9912Z" fill="#F16B6D"/>
<path fill-rule="evenodd" clip-rule="evenodd" d="M9.31738 31.5541C9.42933 31.6112 9.58511 31.5784 9.63599 31.4609C9.47786 31.3936 9.42776 31.4375 9.31738 31.5541Z" fill="#F16B6D"/>
<path fill-rule="evenodd" clip-rule="evenodd" d="M11.4553 32.3536C11.3355 32.316 11.1876 32.374 11.1562 32.4984C11.323 32.5383 11.3653 32.4867 11.4553 32.3536Z" fill="#F16B6D"/>
<path fill-rule="evenodd" clip-rule="evenodd" d="M11.3668 32.7642C11.3511 32.682 11.2705 32.6131 11.1875 32.6342C11.2165 32.7454 11.2603 32.754 11.3668 32.7642Z" fill="#F16B6D"/>
<path fill-rule="evenodd" clip-rule="evenodd" d="M11.1652 32.1133C11.051 32.1657 10.9797 32.3074 11.04 32.4209C11.1911 32.3387 11.1879 32.2722 11.1652 32.1133Z" fill="#F16B6D"/>
<path fill-rule="evenodd" clip-rule="evenodd" d="M10.9578 30.758C11.0525 30.7799 11.1636 30.7267 11.1809 30.6288C11.0494 30.6077 11.0196 30.6499 10.9578 30.758Z" fill="#F16B6D"/>
<path fill-rule="evenodd" clip-rule="evenodd" d="M10.8784 30.0005C10.7399 30.0443 10.6381 30.197 10.6905 30.3347C10.8753 30.2619 10.8815 30.1852 10.8784 30.0005Z" fill="#F16B6D"/>
<path fill-rule="evenodd" clip-rule="evenodd" d="M11.0865 30.2384C10.9761 30.2298 10.8603 30.3089 10.8579 30.4224C11.0098 30.424 11.0356 30.3707 11.0865 30.2384Z" fill="#F16B6D"/>
<path fill-rule="evenodd" clip-rule="evenodd" d="M9.10862 33.5291C10.6977 33.2627 10.3555 32.0283 10.0696 30.54C9.7844 29.0518 8.88674 27.9658 8.0719 28.1236C7.25706 28.2815 6.82503 29.6244 7.11096 31.1127C7.39612 32.601 7.48206 33.8018 9.10862 33.5291Z" fill="#FCE4E6"/>
<path fill-rule="evenodd" clip-rule="evenodd" d="M8.59292 30.7895C8.79761 30.5067 8.93745 30.2333 9.14292 29.9505C9.16323 29.9185 9.1273 29.9067 9.11402 29.9239L8.52417 30.6927L8.59292 30.7895Z" fill="#653535"/>
<path fill-rule="evenodd" clip-rule="evenodd" d="M8.86636 32.1294C9.07105 31.8466 9.21089 31.5731 9.41636 31.2903C9.43667 31.2583 9.40073 31.2466 9.38745 31.2638L8.79761 32.0325L8.86636 32.1294Z" fill="#653535"/>
<path fill-rule="evenodd" clip-rule="evenodd" d="M8.71505 31.657C8.42052 31.4711 8.17208 31.2101 7.87755 31.0242C7.84708 31.0023 7.87599 30.9781 7.89474 30.989L8.74318 31.5414L8.71505 31.657Z" fill="#653535"/>
<path fill-rule="evenodd" clip-rule="evenodd" d="M8.93522 32.779C8.64069 32.593 8.46725 32.4391 8.17272 32.2532C8.14225 32.2313 8.17115 32.2071 8.1899 32.218L8.96334 32.6634L8.93522 32.779Z" fill="#653535"/>
<path fill-rule="evenodd" clip-rule="evenodd" d="M8.3023 29.5658C8.3023 29.5432 8.31479 29.5354 8.32573 29.5393C8.33511 29.5315 8.34995 29.5338 8.35776 29.5549C8.86245 31.9877 9.07964 32.9213 9.58433 35.3549C9.49214 35.3729 9.39995 35.3908 9.30698 35.4088C8.87573 32.9611 8.73276 32.0135 8.30151 29.5658H8.3023Z" fill="#653535"/>
<path fill-rule="evenodd" clip-rule="evenodd" d="M7.72729 31.9429C7.88464 31.9272 8.05295 32.0361 8.05999 32.1981C7.84315 32.2051 7.80401 32.1308 7.72729 31.9429Z" fill="#C04B4B"/>
<path fill-rule="evenodd" clip-rule="evenodd" d="M7.99775 28.5161C7.95626 28.6805 8.04394 28.8754 8.21302 28.9083C8.25451 28.6805 8.1825 28.6273 7.99775 28.5161Z" fill="#C04B4B"/>
<path fill-rule="evenodd" clip-rule="evenodd" d="M8.48386 28.4937C8.33904 28.5805 8.26467 28.7809 8.36096 28.9242C8.5504 28.7919 8.53709 28.7034 8.48386 28.4937Z" fill="#C04B4B"/>
<path fill-rule="evenodd" clip-rule="evenodd" d="M9.52228 30.7612C9.40094 30.8419 9.34458 31.0172 9.43304 31.1362C9.59117 31.0156 9.57629 30.9397 9.52228 30.7612Z" fill="#C04B4B"/>
<path fill-rule="evenodd" clip-rule="evenodd" d="M9.84523 31.0291C9.70276 31.0001 9.53993 31.0847 9.5188 31.2318C9.71607 31.2585 9.75834 31.1935 9.84523 31.0291Z" fill="#C04B4B"/>
<path fill-rule="evenodd" clip-rule="evenodd" d="M8.06323 33.0917C8.17204 33.1879 8.356 33.1958 8.44681 33.0791C8.28868 32.9578 8.22058 32.993 8.06323 33.0917Z" fill="#C04B4B"/>
<path fill-rule="evenodd" clip-rule="evenodd" d="M8.23535 32.708C8.24553 32.8536 8.36921 32.989 8.51638 32.971C8.48977 32.773 8.41618 32.7495 8.23535 32.708Z" fill="#C04B4B"/>
<path fill-rule="evenodd" clip-rule="evenodd" d="M7.42578 29.6385C7.49467 29.7817 7.6755 29.8678 7.8164 29.7888C7.70916 29.5993 7.6254 29.6056 7.42578 29.6385Z" fill="#C04B4B"/>
<path fill-rule="evenodd" clip-rule="evenodd" d="M7.8172 29.4775C7.80389 29.5903 7.87904 29.7116 7.99333 29.7186C8.00116 29.5636 7.94949 29.5347 7.8172 29.4775Z" fill="#C04B4B"/>
<path fill-rule="evenodd" clip-rule="evenodd" d="M7.41089 30.0454C7.5377 30.1409 7.73811 30.1339 7.82735 29.9992C7.64573 29.881 7.57371 29.9249 7.41089 30.0454Z" fill="#C04B4B"/>
<path fill-rule="evenodd" clip-rule="evenodd" d="M7.34912 30.7837C7.40627 30.9324 7.57927 31.0334 7.72644 30.9661C7.63485 30.7688 7.55109 30.7672 7.34912 30.7837Z" fill="#C04B4B"/>
<path fill-rule="evenodd" clip-rule="evenodd" d="M7.82363 30.5479C7.75474 30.6285 7.75004 30.7631 7.83615 30.8289C7.92304 30.7122 7.89721 30.6621 7.82363 30.5479Z" fill="#C04B4B"/>
<path fill-rule="evenodd" clip-rule="evenodd" d="M7.33838 31.2617C7.47929 31.3337 7.67577 31.293 7.74074 31.1442C7.54113 31.0589 7.47772 31.1145 7.33838 31.2617Z" fill="#C04B4B"/>
<path fill-rule="evenodd" clip-rule="evenodd" d="M10.0353 32.2751C9.88419 32.2274 9.6971 32.301 9.65796 32.4583C9.86854 32.5092 9.92177 32.4434 10.0353 32.2751Z" fill="#C04B4B"/>
<path fill-rule="evenodd" clip-rule="evenodd" d="M9.92325 32.7955C9.9029 32.6914 9.80114 32.6037 9.69702 32.6303C9.73381 32.7712 9.78861 32.7822 9.92325 32.7955Z" fill="#C04B4B"/>
<path fill-rule="evenodd" clip-rule="evenodd" d="M9.66911 31.9697C9.52507 32.0363 9.43505 32.2163 9.51098 32.3596C9.7012 32.2555 9.69729 32.1717 9.66911 31.9697Z" fill="#C04B4B"/>
<path fill-rule="evenodd" clip-rule="evenodd" d="M9.40698 30.2521C9.52675 30.2803 9.66688 30.2122 9.68801 30.0877C9.52206 30.0611 9.48448 30.1143 9.40698 30.2521Z" fill="#C04B4B"/>
<path fill-rule="evenodd" clip-rule="evenodd" d="M9.30772 29.292C9.13315 29.3476 9.00398 29.5409 9.07052 29.7163C9.3038 29.6247 9.31163 29.5268 9.30772 29.292Z" fill="#C04B4B"/>
<path fill-rule="evenodd" clip-rule="evenodd" d="M9.57006 29.5941C9.43072 29.5831 9.28433 29.6833 9.28198 29.8266C9.47377 29.8281 9.50665 29.7616 9.57006 29.5941Z" fill="#C04B4B"/>
<path d="M12.1306 28.1762C11.7743 28.4192 11.3892 28.6466 11.1446 29.002C10.6923 29.6591 10.8423 30.5544 10.5767 31.3067C10.4009 31.8036 10.0501 32.2169 9.70715 32.6176C9.35949 33.0231 9.01184 33.4294 8.66418 33.8348C8.4298 34.1083 8.17902 34.4411 8.25949 34.7926C8.85402 34.0395 9.44934 33.2864 10.0439 32.5333C10.4712 31.9919 10.9103 31.4294 11.0829 30.7614C11.2587 30.0825 11.1743 29.2794 11.6579 28.7716C12.0564 28.3536 12.6947 28.2997 13.2165 28.0536C13.7282 27.8122 14.1157 27.3864 14.4236 26.9208C14.7071 26.4919 15.1446 25.8606 15.254 25.3551C15.2939 25.1708 16.1853 23.7341 15.9384 23.7606C15.7025 23.7864 14.7509 25.388 14.6415 25.5622C14.3321 26.0559 13.9736 26.52 13.5736 26.9442C13.1329 27.4122 12.64 27.7919 12.1306 28.1778V28.1762Z" fill="#F6A2A4"/>
<path d="M10.1079 16.9492C9.47349 17.0156 8.92974 17.4461 8.53989 17.9508C8.15005 18.4547 7.87974 19.0398 7.54067 19.5797C7.02349 20.4039 6.35005 21.118 5.68208 21.8258C4.12114 23.4789 2.5602 25.132 0.999268 26.7852C1.9313 26.2039 2.71646 25.4195 3.49302 24.643C4.4313 23.7039 5.36958 22.7648 6.30786 21.825C6.97427 21.1578 7.64458 20.4867 8.19692 19.7219C8.5438 19.2414 8.84302 18.7258 9.22817 18.2758C9.61333 17.8258 10.1024 17.4352 10.6813 17.307" fill="#F6A2A4"/>
<path d="M8.47915 25.9596C7.42681 27.0533 6.37525 28.1479 5.3229 29.2416C4.18306 30.4268 3.0354 31.6229 2.14946 33.008C1.4104 34.1643 0.865868 35.433 0.191649 36.6283C-0.794288 38.3775 -2.05991 39.9682 -3.54272 41.3221C-1.76147 40.09 -0.262255 38.4541 0.808839 36.5721C1.47915 35.3955 1.98149 34.1299 2.62212 32.9369C3.26274 31.7439 4.06821 30.5979 5.19165 29.8416C5.86977 29.3854 6.64243 29.0846 7.32915 28.6408C8.01587 28.1963 8.64009 27.5518 8.76665 26.7439C8.83384 26.315 8.75571 25.8752 8.80962 25.4447C8.86352 25.0143 9.11196 24.5525 9.53774 24.4697" fill="#F6A2A4"/>
<path d="M25.5798 6.52754C23.6384 7.63691 20.9541 8.91504 17.5962 9.81582C14.615 10.615 11.9619 10.8861 9.88608 10.9486C10.3001 12.8346 10.6853 15.5736 10.4087 18.8541C10.1267 22.1986 9.26108 24.8775 8.52124 26.6814C9.38062 25.8502 11.408 24.115 14.558 23.3736C18.2767 22.4986 21.29 23.5432 22.3728 23.9783C22.4509 20.9307 22.7767 18.3291 23.1306 16.2885C23.5916 13.6299 24.1541 11.6236 24.3931 10.7908C24.965 8.79863 25.5658 7.2127 25.9798 6.19238C25.4736 6.59473 24.9666 6.99785 24.4603 7.4002" fill="white"/>
<path d="M6.97656 28.9645L8 26.4684C9.00391 24.0207 9.625 21.4434 9.84687 18.8074C10.0648 16.2152 9.89297 13.6121 9.33516 11.0699L9.18906 10.4043L9.87031 10.384C12.4305 10.3074 14.9805 9.93242 17.4508 9.26992C20.1531 8.54492 22.7586 7.47773 25.1969 6.0957L27.3148 4.41211L26.5047 6.40664C25.9078 7.87695 25.3805 9.4043 24.9375 10.948C24.7461 11.6145 24.1641 13.6426 23.6883 16.3863C23.2563 18.8793 23.0039 21.4387 22.9391 23.9941L22.918 24.8074L22.1633 24.5043C20.793 23.9535 18 23.1457 14.6891 23.9254C11.9555 24.5684 10.0406 26.0012 8.91563 27.0895L6.97656 28.9652V28.9645ZM10.5742 11.4871C11.0477 13.9293 11.1813 16.4207 10.9719 18.9027C10.7992 20.9543 10.3945 22.9715 9.76563 24.9246C10.9539 24.0879 12.5055 23.2785 14.4289 22.8254C17.5164 22.0988 20.1891 22.6355 21.8336 23.1816C21.9281 20.8332 22.1766 18.4863 22.5734 16.1941C23.0594 13.3895 23.6539 11.3176 23.85 10.6371C24.125 9.67851 24.432 8.72617 24.7672 7.78867L24.6711 7.66758C22.4664 8.81445 20.1406 9.71914 17.7414 10.3629C15.4031 10.9902 12.9945 11.3676 10.5734 11.4879L10.5742 11.4871Z" fill="#991B1F"/>
<path d="M25.2611 6.71826C23.3604 9.61748 21.1541 12.3167 18.6924 14.7573C15.2182 18.2011 11.1361 21.2612 9.00098 25.662" fill="#F6A2A4"/>
<path d="M10.5508 10.8071C12.5727 13.3251 14.5953 15.8431 16.6172 18.361C17.8875 19.9423 20.1844 21.9438 21.8016 23.1681" fill="#F6A2A4"/>
<path d="M18.4086 10.8941L18.3938 11.2637C18.3938 11.2816 18.3805 11.2957 18.3625 11.2988L18.25 11.3191C18.2289 11.323 18.2086 11.3082 18.2063 11.2871C18.2063 11.2824 18.2055 11.2808 18.2055 11.2808C18.1899 11.1644 18.1016 11.091 17.936 11.1207C17.661 11.1707 17.5016 11.4324 17.5289 11.7332C17.557 12.0441 17.8031 12.1832 18.0992 12.1301C18.2508 12.1027 18.3664 12.0519 18.4297 12.0183C18.4547 12.0051 18.4852 12.0238 18.4852 12.0519L18.4836 12.2418C18.4836 12.2582 18.4742 12.273 18.4602 12.2801C18.4031 12.3105 18.2406 12.3863 17.9797 12.434C17.3602 12.5457 17.0445 12.2347 17.0172 11.8644C16.9938 11.5347 17.1219 11.0191 17.9656 10.8668C18.1274 10.8379 18.261 10.8402 18.368 10.8496C18.3914 10.8519 18.4086 10.8715 18.4078 10.8949L18.4086 10.8941ZM14.875 11.4793L14.8711 11.5754C14.8703 11.5972 14.886 11.6152 14.9078 11.6176C14.9461 11.6246 14.9602 11.6574 14.9336 11.6887L14.493 12.2129L14.5086 11.791C14.5125 11.7262 14.5578 11.691 14.5867 11.6754C14.5883 11.6746 14.5899 11.6738 14.5914 11.673C14.6047 11.666 14.6125 11.6527 14.6133 11.6387L14.6172 11.5387C14.618 11.5152 14.5969 11.4965 14.5735 11.5004L13.9047 11.6207C13.886 11.6238 13.8719 11.6402 13.8711 11.659L13.8672 11.7605C13.8664 11.7808 13.8813 11.7988 13.9016 11.8019C13.9055 11.8019 13.9086 11.8027 13.9086 11.8027C13.9531 11.8113 14.0086 11.8394 14.0055 11.941L13.9774 12.6996C13.9719 12.9066 13.9117 12.959 13.8485 12.9785C13.8485 12.9785 13.8469 12.9785 13.8461 12.9785C13.8289 12.9832 13.8172 12.9988 13.8164 13.016L13.8125 13.1129C13.8117 13.1379 13.8344 13.1574 13.8586 13.1527L14.5617 13.0262C14.5789 13.023 14.5914 13.0082 14.5922 12.991L14.5969 12.8769C14.5969 12.8582 14.5844 12.8418 14.5664 12.8387C14.5649 12.8387 14.5633 12.8387 14.5617 12.8379C14.5235 12.8301 14.4696 12.8082 14.4711 12.748L14.4852 12.3605C14.857 12.8215 14.9766 12.9519 15.3125 12.8918L15.6156 12.8371C15.6328 12.834 15.6453 12.8191 15.6461 12.8019L15.65 12.7035C15.6508 12.6785 15.6289 12.6582 15.6039 12.6621C15.5281 12.6746 15.4875 12.6637 15.3946 12.5801L14.9102 12.123L15.3406 11.6105C15.3992 11.5449 15.4789 11.5152 15.5242 11.5012C15.5242 11.5012 15.5258 11.5012 15.5289 11.4996C15.5445 11.4949 15.5563 11.4816 15.5563 11.4644L15.5602 11.3668C15.561 11.3426 15.5399 11.3238 15.5156 11.3285L14.907 11.4387C14.8883 11.4418 14.8742 11.4582 14.8735 11.4769L14.875 11.4793ZM16.8211 11.5465L16.9399 11.5254C16.957 11.5222 16.9703 11.5074 16.9703 11.4902L16.9852 11.1129C16.986 11.0887 16.9649 11.0699 16.9406 11.0746L15.6953 11.2988C15.6766 11.3019 15.6625 11.3183 15.6617 11.3379L15.6578 11.4387C15.6571 11.4582 15.6711 11.4754 15.6906 11.4785C15.6922 11.4785 15.6938 11.4785 15.6953 11.4785C15.7391 11.4871 15.8031 11.516 15.7961 11.6183L15.7516 12.7676C15.7508 12.7918 15.7719 12.8097 15.7953 12.8058L16.3555 12.7051C16.3727 12.7019 16.3852 12.6871 16.386 12.6699L16.3906 12.5551C16.3906 12.5379 16.3797 12.523 16.3633 12.5191C16.361 12.5191 16.3594 12.5183 16.357 12.5176C16.3188 12.5066 16.2586 12.4762 16.2617 12.3957C16.2617 12.3847 16.2711 12.1355 16.2711 12.1355L16.7477 12.0496C16.7649 12.0465 16.7781 12.0316 16.7781 12.0144L16.7867 11.8043C16.7875 11.7801 16.7664 11.7613 16.7422 11.766L16.282 11.8488L16.2977 11.4418L16.6188 11.3832C16.7227 11.3644 16.7641 11.4129 16.775 11.5066C16.775 11.5066 16.775 11.5082 16.775 11.5113C16.7766 11.534 16.7969 11.5496 16.8196 11.5457L16.8211 11.5465Z" fill="#EA0029"/>
<path d="M26.8899 34.4703C26.6634 34.6249 26.4189 34.7687 26.2634 34.9945C25.9759 35.4117 26.0712 35.9812 25.9024 36.4585C25.7907 36.7742 25.5681 37.0367 25.3501 37.2914C25.129 37.5492 24.9079 37.807 24.6876 38.0648C24.5384 38.239 24.3798 38.4499 24.4306 38.6734C24.8087 38.1945 25.1868 37.7164 25.5649 37.2374C25.8368 36.8929 26.1157 36.5359 26.2251 36.1109C26.3368 35.6796 26.2829 35.1695 26.5907 34.846C26.8439 34.5804 27.2493 34.546 27.5814 34.3898C27.9071 34.2367 28.1524 33.9656 28.3485 33.6695C28.529 33.3968 28.8071 32.9953 28.8759 32.6742C28.9009 32.557 29.4673 31.6437 29.311 31.6609C29.161 31.6773 28.5563 32.6945 28.4868 32.8062C28.2899 33.1203 28.0618 33.4148 27.8079 33.6843C27.5274 33.982 27.2149 34.2226 26.8907 34.4687L26.8899 34.4703Z" fill="#F6A2A4"/>
<path d="M25.6047 27.3359C25.2016 27.3781 24.8563 27.6516 24.6086 27.9727C24.3609 28.293 24.1891 28.6648 23.9734 29.0078C23.6445 29.532 23.2172 29.9852 22.7922 30.4352C21.8 31.4859 20.8078 32.5367 19.8164 33.5867C20.4086 33.2172 20.9078 32.7188 21.4016 32.225C21.9977 31.6281 22.5945 31.0313 23.1906 30.4344C23.6141 30.0102 24.0398 29.5836 24.3914 29.0977C24.6117 28.7922 24.8023 28.4648 25.0469 28.1781C25.2914 27.8922 25.6023 27.6437 25.9703 27.5625" fill="#F6A2A4"/>
<path d="M24.5695 33.0616C23.9008 33.7569 23.2328 34.4522 22.5641 35.1476C21.8398 35.9007 21.1102 36.6608 20.5469 37.5413C20.0766 38.2765 19.7313 39.0827 19.3031 39.8421C18.6766 40.9538 17.8719 41.9647 16.9297 42.8249C18.0617 42.0421 19.0141 41.0022 19.6953 39.8062C20.1211 39.0585 20.4406 38.2546 20.8477 37.496C21.2547 36.7374 21.7664 36.0093 22.4805 35.5288C22.9117 35.239 23.4023 35.0476 23.8391 34.7655C24.275 34.4835 24.6719 34.0733 24.7531 33.5601C24.7961 33.2874 24.7461 33.0077 24.7805 32.7343C24.8148 32.4608 24.9727 32.1671 25.243 32.1147" fill="#F6A2A4"/>
<path d="M35.4375 20.7125C34.204 21.4172 32.4977 22.2297 30.3641 22.8023C28.4696 23.3102 26.7829 23.4828 25.4641 23.5219C25.7274 24.7203 25.9719 26.4609 25.7961 28.5461C25.6172 30.6711 25.0672 32.3742 24.5969 33.5203C25.143 32.9922 26.4313 31.8891 28.4336 31.418C30.7969 30.8617 32.7118 31.5258 33.4 31.8023C33.4493 29.8656 33.6571 28.2125 33.8813 26.9156C34.1743 25.2258 34.5321 23.9508 34.6836 23.4219C35.0469 22.1555 35.429 21.1484 35.6922 20.5C35.3704 20.7555 35.0485 21.0117 34.7266 21.2672" fill="white"/>
<path d="M23.6141 34.9716L24.2641 33.3849C24.9016 31.8294 25.2969 30.1911 25.4375 28.5161C25.5766 26.8685 25.4672 25.2146 25.1125 23.5989L25.0195 23.1763L25.4523 23.163C27.0789 23.1146 28.7 22.8763 30.2695 22.4552C31.9867 21.9942 33.643 21.3161 35.1922 20.438L36.5383 19.3677L36.0234 20.6349C35.6438 21.5692 35.3086 22.5403 35.0273 23.5208C34.9055 23.9442 34.5359 25.2333 34.2336 26.9771C33.9586 28.5614 33.7984 30.188 33.757 31.8114L33.7438 32.3278L33.2641 32.1349C32.393 31.7849 30.618 31.2716 28.5141 31.7669C26.7766 32.1755 25.5602 33.0856 24.8453 33.7778L23.6133 34.97L23.6141 34.9716ZM25.9008 23.8646C26.2016 25.4169 26.2867 26.9997 26.1539 28.5771C26.0438 29.881 25.7867 31.163 25.3875 32.4036C26.143 31.8724 27.1289 31.3575 28.3516 31.07C30.3133 30.6083 32.0117 30.9497 33.0578 31.2966C33.118 29.8044 33.2758 28.3122 33.5281 26.856C33.8367 25.0739 34.2148 23.7567 34.3391 23.3239C34.5141 22.7146 34.7086 22.1091 34.9219 21.5138L34.8609 21.4364C33.4594 22.1653 31.982 22.7403 30.457 23.1489C28.9711 23.5474 27.4406 23.7872 25.9016 23.8638L25.9008 23.8646Z" fill="#991B1F"/>
<path d="M35.2343 20.8345C34.0257 22.6767 32.6241 24.3923 31.0593 25.9431C28.8515 28.1313 26.2569 30.0759 24.8999 32.8728" fill="#F6A2A4"/>
<path d="M25.886 23.4321C27.1711 25.0321 28.4563 26.6321 29.7415 28.2329C30.5485 29.2376 32.0086 30.5103 33.036 31.2876" fill="#F6A2A4"/>
<path d="M30.8797 23.4876L30.8704 23.7219C30.8704 23.7329 30.8618 23.7422 30.8508 23.7446L30.7797 23.7571C30.7665 23.7594 30.7532 23.75 30.7516 23.7368C30.7516 23.7336 30.7516 23.7329 30.7516 23.7329C30.7415 23.6586 30.6852 23.6118 30.5805 23.6313C30.4055 23.6626 30.3047 23.829 30.3219 24.0204C30.3399 24.218 30.4961 24.3063 30.6844 24.2727C30.7813 24.2555 30.854 24.2227 30.8946 24.2016C30.911 24.193 30.9297 24.2047 30.9297 24.2227V24.343C30.9282 24.3532 30.9227 24.3626 30.9133 24.3672C30.8766 24.3868 30.7743 24.4352 30.6079 24.4649C30.2141 24.536 30.0133 24.3383 29.9961 24.1032C29.9813 23.8938 30.0626 23.5657 30.5993 23.4688C30.7024 23.45 30.7875 23.4516 30.8547 23.4579C30.8696 23.4594 30.8805 23.4719 30.8797 23.4868V23.4876ZM28.6344 23.8594L28.6321 23.9204C28.6321 23.9336 28.6415 23.9461 28.6555 23.9477C28.6797 23.9524 28.6891 23.9735 28.6719 23.993L28.3915 24.3266L28.4016 24.0586C28.404 24.0172 28.4329 23.9954 28.4516 23.9852C28.4524 23.9852 28.454 23.9844 28.4547 23.9836C28.4633 23.9797 28.468 23.9711 28.4688 23.9618L28.4711 23.8985C28.4711 23.8836 28.4579 23.8719 28.443 23.8743L28.018 23.9508C28.0063 23.9532 27.9969 23.9633 27.9969 23.9751L27.9946 24.0391C27.9946 24.0524 28.0032 24.0633 28.0165 24.0657C28.0188 24.0657 28.0204 24.0657 28.0211 24.0657C28.0501 24.0711 28.0852 24.0891 28.0829 24.1532L28.0649 24.6352C28.061 24.7665 28.0227 24.8001 27.9829 24.8126C27.9829 24.8126 27.9821 24.8126 27.9813 24.8126C27.9704 24.8157 27.9633 24.8251 27.9626 24.8368L27.9602 24.8985C27.9602 24.9141 27.9735 24.9266 27.9899 24.9243L28.4368 24.8438C28.4477 24.8415 28.4555 24.8329 28.4563 24.8211L28.4594 24.7485C28.4594 24.7368 28.4516 24.7266 28.4399 24.7243C28.4391 24.7243 28.4376 24.7243 28.4368 24.7243C28.4126 24.7188 28.3782 24.7055 28.3797 24.6672L28.3891 24.4204C28.6258 24.7133 28.7016 24.7961 28.9149 24.7579L29.1079 24.7227C29.1188 24.7204 29.1266 24.7118 29.1274 24.7001L29.1297 24.6375C29.1297 24.6211 29.1165 24.6086 29.1008 24.611C29.0524 24.6188 29.0266 24.6118 28.968 24.5586L28.6602 24.268L28.9336 23.9422C28.9704 23.9008 29.0219 23.8821 29.05 23.8727C29.05 23.8727 29.0508 23.8727 29.0532 23.8719C29.0633 23.8688 29.0704 23.8602 29.0704 23.8501L29.0727 23.7883C29.0727 23.7727 29.0594 23.761 29.0446 23.7641L28.6579 23.8336C28.6461 23.836 28.6368 23.8461 28.6368 23.8579L28.6344 23.8594ZM29.8711 23.9024L29.9461 23.8891C29.9571 23.8868 29.9649 23.8782 29.9657 23.8665L29.975 23.6266C29.975 23.611 29.9618 23.5993 29.9469 23.6024L29.1555 23.7454C29.1438 23.7477 29.1344 23.7579 29.1344 23.7696L29.1321 23.8336C29.1321 23.8461 29.1407 23.8571 29.1532 23.8594C29.154 23.8594 29.1547 23.8594 29.1563 23.8594C29.1844 23.8649 29.225 23.8836 29.2204 23.9485L29.1922 24.679C29.1922 24.6938 29.2055 24.7063 29.2204 24.7032L29.5766 24.6391C29.5875 24.6368 29.5954 24.6282 29.5961 24.6165L29.5993 24.5438C29.5993 24.5329 29.5922 24.5235 29.5821 24.5211C29.5805 24.5211 29.5797 24.5211 29.5782 24.5204C29.554 24.5133 29.5157 24.4938 29.518 24.443C29.518 24.436 29.5243 24.2774 29.5243 24.2774L29.8266 24.2227C29.8375 24.2204 29.8461 24.211 29.8461 24.2001L29.8516 24.0665C29.8516 24.0508 29.8383 24.0391 29.8235 24.0422L29.5313 24.0946L29.5407 23.836L29.7446 23.7993C29.8102 23.7876 29.8368 23.818 29.8438 23.8774C29.8438 23.8774 29.8438 23.8774 29.8438 23.8805C29.8446 23.8946 29.8579 23.9047 29.8719 23.9024H29.8711Z" fill="#EA0029"/>
<path d="M-10.2608 95.9072C-10.2944 95.9056 -10.328 95.8924 -10.3546 95.8689C-10.4171 95.8135 -10.4218 95.7181 -10.3655 95.6564C1.87666 82.0619 8.76338 60.2635 11.7774 48.4791C15.8681 32.4861 17.1298 18.6619 15.9829 17.1463C15.9329 17.0791 15.9462 16.9853 16.0126 16.9353C16.079 16.8877 16.1728 16.8978 16.2228 16.9642C17.3899 18.5088 16.3306 31.8955 12.0696 48.5533C9.04697 60.3642 2.14385 82.215 -10.1421 95.8564C-10.1733 95.8908 -10.2179 95.908 -10.2601 95.9064L-10.2608 95.9072Z" fill="#A11E21"/>
<path d="M-16.1609 96.842C-16.1929 96.8318 -16.2218 96.8108 -16.2413 96.7803C-16.2874 96.7108 -16.2671 96.6178 -16.1976 96.5725C-0.876501 86.5748 11.3727 67.2733 17.3094 56.6569C25.3672 42.249 30.1337 29.2115 29.4141 27.4529C29.3829 27.3756 29.4196 27.2873 29.4969 27.2569C29.5735 27.2279 29.6618 27.2615 29.693 27.3389C30.4251 29.1311 25.9657 41.7975 17.5727 56.8045C11.6204 67.4444 -0.658533 86.792 -16.0335 96.8248C-16.0726 96.8506 -16.1203 96.8553 -16.1609 96.8428V96.842Z" fill="#A11E21"/>
</g>
</svg>
