<svg width="40" height="40" viewBox="0 0 40 40" fill="none" xmlns="http://www.w3.org/2000/svg">
<mask id="mask0_1566_18284" style="mask-type:luminance" maskUnits="userSpaceOnUse" x="0" y="0" width="40" height="40">
<path d="M20 40C31.0457 40 40 31.0457 40 20C40 8.9543 31.0457 0 20 0C8.9543 0 0 8.9543 0 20C0 31.0457 8.9543 40 20 40Z" fill="white"/>
</mask>
<g mask="url(#mask0_1566_18284)">
<path d="M20 40C31.0457 40 40 31.0457 40 20C40 8.9543 31.0457 0 20 0C8.9543 0 0 8.9543 0 20C0 31.0457 8.9543 40 20 40Z" fill="#EA0029"/>
<path d="M16.9245 29.9912C24.4956 30.0186 33.4683 26.9717 41.0065 27.6053C54.3605 28.7279 59.8933 30.2365 73.2472 31.3584C75.3417 31.5342 84.0862 35.1576 85.3347 37.0811C86.3214 38.6014 86.3159 40.6889 86.2245 42.6123C85.7011 53.6436 83.3183 65.4311 76.1823 72.9576C69.8901 79.5936 60.9815 81.7232 52.5698 81.8482C23.2128 82.2857 -3.25674 62.0748 -32.4427 59.2225C-35.9708 58.8779 -39.8575 58.6295 -42.3622 55.792C-44.9294 52.8826 -45.1677 48.2389 -45.2505 44.0342C-45.3294 40.0287 -46.731 33.0904 -43.6442 29.9982C-40.6817 27.0311 -36.1872 29.0482 -32.9177 29.6693C-22.4224 31.6607 -11.6755 31.1756 -1.04346 30.6256C4.86357 30.3201 11.0354 29.4982 16.9245 29.9904V29.9912Z" fill="#FCE4E6"/>
<path d="M-15.9374 27.0939C-18.0507 26.8673 -20.2147 26.6407 -22.2562 26.8947C-24.2976 27.1478 -26.2249 27.9837 -26.7421 29.2837C-27.4601 31.0853 -25.1812 33.0931 -22.4397 33.9306C-19.6991 34.7681 -16.6491 34.7407 -13.7249 34.7259C-10.8007 34.7111 -7.72099 34.7501 -5.05068 35.6923C-4.54443 37.2634 -6.39912 38.6954 -8.6499 39.1736C-10.9015 39.6517 -13.4358 39.4118 -15.8679 39.1673C-25.7991 38.1697 -35.7304 37.172 -45.6616 36.1736C-44.7663 38.7439 -40.5679 40.3126 -36.7851 41.3618C-25.2108 44.5736 -12.9241 46.4704 -0.697556 46.9329C-0.88818 48.3861 -2.83349 49.4439 -4.98193 49.7986C-7.13037 50.1532 -9.46474 49.9454 -11.7327 49.7361C-17.696 49.1853 -23.6585 48.6337 -29.6218 48.0829C-29.9718 48.9353 -29.1429 49.9087 -27.9929 50.4822C-26.8429 51.0556 -25.4319 51.3181 -24.064 51.5665C-6.95068 54.6767 13.1798 54.4103 30.2931 57.5204C32.7235 57.9618 38.8142 59.3501 41.2446 59.7923C42.4064 60.0033 43.0407 60.804 44.1384 60.3595C50.2134 57.9025 45.3821 61.2204 47.3415 61.3993C56.647 62.247 62.5399 65.1564 71.8454 66.0048C72.847 64.0861 70.0243 61.5876 66.8189 61.5548C75.8376 62.5165 84.8587 63.479 93.8993 64.1954C96.8845 64.4322 100.02 64.629 102.666 63.8806C105.311 63.1322 107.201 61.1048 106.003 59.2673C99.6337 58.5837 93.5751 55.9361 90.0439 52.2939C91.9072 52.4462 93.8447 52.5939 95.5525 52.2064C97.2603 51.8189 98.6556 50.7243 98.2868 49.522C97.9251 48.3431 96.036 47.5118 94.2204 47.279C92.4048 47.0462 90.5923 47.2564 88.7806 47.3056C83.6845 47.4439 78.3524 46.2447 74.2259 44.0322C70.6548 42.1173 67.99 39.5032 64.1415 37.8462C60.615 36.3275 56.4392 35.7587 52.3915 35.2236C29.6095 32.2134 6.92588 29.5447 -15.9358 27.0947L-15.9374 27.0939Z" fill="white"/>
<g opacity="0.45">
<path d="M38.6399 29.425C39.5423 29.6071 40.4946 29.5383 41.3618 29.2274C41.3079 29.1711 41.2532 29.1141 41.1993 29.0579C42.7095 29.3922 44.3946 28.4383 44.8845 26.9711C45.3438 26.7993 45.6946 26.3664 45.7665 25.8821C45.8392 25.3977 45.6298 24.8805 45.2415 24.5821C45.6087 24.5899 45.8204 24.0297 45.5399 23.793C45.9712 23.4883 45.9118 22.7157 45.4399 22.4797C45.5642 22.0282 45.6892 21.5766 45.8134 21.1258C45.847 21.0032 45.8767 20.8571 45.7938 20.7602C45.711 20.6633 45.4954 20.75 45.5556 20.8625C45.3657 19.0258 44.2735 17.3039 42.6931 16.3493C42.6438 16.3649 42.5954 16.3805 42.5462 16.3961C42.3548 15.9907 42.1642 15.586 41.9728 15.1805C41.8063 15.1344 41.6368 15.3485 41.7204 15.5C40.7743 14.3946 39.379 13.7516 37.9556 13.4524C36.5321 13.1539 35.0634 13.1696 33.6095 13.1868C33.4376 13.1055 33.2579 13.3102 33.2353 13.4985C33.2126 13.6868 33.2673 13.886 33.2001 14.0633C33.1001 14.3282 32.7571 14.4313 32.4829 14.3586C32.2087 14.286 31.9892 14.0868 31.7814 13.8946C31.3204 14.6258 30.6915 15.25 29.9571 15.7047C29.9767 15.9289 29.997 16.1539 30.0165 16.3782C29.8899 16.1805 29.5626 16.2657 29.4212 16.4532C29.279 16.6407 29.2392 16.8875 29.1134 17.086C28.9876 17.2844 28.6931 17.4219 28.522 17.2602C28.5032 17.6157 28.4837 17.9719 28.4649 18.3274C28.2642 18.3469 28.0642 18.3672 27.8634 18.3868C27.8345 18.8508 27.8063 19.3141 27.7774 19.7782C27.4048 19.7493 27.0985 20.2203 27.2774 20.5493C27.0438 20.4469 26.7376 20.5703 26.6407 20.8055C26.5431 21.0414 26.6728 21.3446 26.911 21.4368C26.5853 21.5289 26.3618 21.8907 26.4243 22.2227C26.4868 22.5547 26.8274 22.8102 27.1642 22.7774C27.1274 23.6375 27.0907 24.4985 27.0548 25.3586C27.7743 26.0829 28.4938 26.8063 29.2142 27.5305C28.8923 27.6336 28.7688 28.0555 28.8759 28.3758C28.9829 28.6961 29.2501 28.9329 29.5118 29.1469C30.5306 29.9805 31.6337 30.7118 32.7993 31.325C32.979 31.2321 33.0337 30.961 32.9032 30.8063C33.397 31.4813 34.536 31.5344 35.0892 30.9071C35.4728 31.1071 35.9939 30.9829 36.2462 30.6313C36.4806 30.7618 36.7157 30.893 36.9501 31.0235C36.9337 30.7844 37.1938 30.6172 37.4306 30.5797C37.6673 30.5422 37.9212 30.5735 38.1376 30.4696C38.354 30.3657 38.4798 30.0321 38.286 29.8907C38.6274 30.0625 39.0954 29.7141 39.029 29.3375C38.8884 29.4446 38.6485 29.3508 38.6173 29.1774C39.072 29.3157 39.5954 29.1969 39.9454 28.8766" fill="#801517"/>
<path d="M33.1555 18.1994C34.3227 18.8439 35.3626 19.7103 36.2219 20.7291C37.0797 21.7463 37.7586 22.9127 38.2133 24.1635C38.4696 24.8689 38.6532 25.5986 38.7579 26.3424C38.7704 26.4299 38.6344 26.4603 38.6227 26.3721C38.4399 25.0674 38.011 23.8041 37.3758 22.651C36.7407 21.4978 35.9032 20.4572 34.9094 19.5939C34.3477 19.1064 33.7344 18.6783 33.0837 18.3182C33.0055 18.2752 33.079 18.1572 33.1571 18.2002L33.1555 18.1994Z" fill="white"/>
<path d="M38.1359 19.1242C38.3914 20.2796 38.2679 21.5125 37.7953 22.5968C37.6625 22.9007 37.5039 23.1929 37.3195 23.4687C37.2695 23.5429 37.1523 23.4695 37.2015 23.3953C37.8429 22.4367 38.1648 21.2812 38.125 20.1296C38.1132 19.8015 38.0711 19.475 38 19.1539C37.9804 19.0671 38.1164 19.0367 38.1351 19.1242H38.1359Z" fill="white"/>
<path d="M33.5024 20.5703C34.5453 20.6047 35.5727 20.85 36.5203 21.2867C36.6016 21.3242 36.5266 21.4414 36.4469 21.4047C35.5219 20.9781 34.5141 20.743 33.4961 20.7094C33.4071 20.7062 33.4133 20.568 33.5024 20.5711V20.5703Z" fill="white"/>
<path d="M33.8882 16.7256C34.0507 17.0256 34.2125 17.3248 34.375 17.6248C34.5062 17.8678 34.6679 18.1209 34.7015 18.4013C34.7281 18.6209 34.6632 18.831 34.4828 18.967C34.3336 19.0787 34.1273 19.1209 33.9703 18.9998C33.9 18.9459 33.9726 18.8279 34.0437 18.8818C34.1812 18.9873 34.3554 18.9154 34.4617 18.799C34.607 18.6396 34.5828 18.4123 34.5164 18.2224C34.4328 17.9826 34.2906 17.7607 34.1703 17.5388C34.0351 17.2888 33.9 17.0396 33.7648 16.7896C33.7226 16.7115 33.8453 16.6467 33.8875 16.7248L33.8882 16.7256Z" fill="white"/>
</g>
<path d="M35.0034 24.6213C34.2963 24.8916 25.6721 28.0134 25.6721 28.0134C25.9213 31.3752 27.4729 34.0095 29.7088 36.1299L29.7182 36.1267C30.1831 36.5197 31.8682 36.3384 33.7502 35.6541C35.6323 34.9697 37.0409 34.0267 37.1448 33.4267L37.1495 33.4252C38.0823 29.9939 35.6542 24.4955 35.0034 24.6213Z" fill="#AD3E3E"/>
<path d="M30.743 27.3791C33.3289 26.4389 35.2511 25.1982 35.0365 24.6078C34.8218 24.0173 32.5515 24.3009 29.9656 25.241C27.3797 26.1812 25.4575 27.422 25.6721 28.0124C25.8868 28.6028 28.1571 28.3193 30.743 27.3791Z" fill="#C14E4E"/>
<path d="M30.7008 27.2634C33.0069 26.425 34.7212 25.3186 34.5299 24.7923C34.3385 24.2659 32.3139 24.5189 30.0078 25.3574C27.7017 26.1958 25.9874 27.3022 26.1788 27.8285C26.3701 28.3549 28.3947 28.1019 30.7008 27.2634Z" fill="#741112"/>
<mask id="mask1_1566_18284" style="mask-type:luminance" maskUnits="userSpaceOnUse" x="25" y="24" width="13" height="13">
<path d="M34.6854 24.3604C33.9784 24.6307 25.6721 28.0127 25.6721 28.0127C25.9213 31.3745 27.4729 34.0088 29.7088 36.1291L29.7182 36.126C30.1831 36.519 31.8682 36.3377 33.7502 35.6534C35.6323 34.969 37.0409 34.026 37.1448 33.426L37.1495 33.4245C38.0823 29.9932 35.3362 24.2354 34.6862 24.3604H34.6854Z" fill="white"/>
</mask>
<g mask="url(#mask1_1566_18284)">
<path d="M27.8167 33.9151C29.4917 34.605 31.4605 34.5448 33.0909 33.7542C34.7214 32.9628 34.7253 31.5737 35.2191 29.8308C35.4386 29.0573 34.6175 24.4565 34.6894 23.6558C35.4105 25.0854 38.1378 30.2644 38.5511 31.8112C38.6855 32.3159 38.8034 32.8526 38.6566 33.3534C38.4011 34.2269 37.4612 34.68 36.6112 35.0065C32.6612 36.5245 28.5277 37.5644 24.3292 38.0956C24.1003 38.1245 23.8667 38.1519 23.6394 38.1105C22.9378 37.9815 22.5058 37.2089 22.512 36.4956C22.5183 35.7823 22.8527 35.1175 23.1784 34.4831" fill="#822529"/>
</g>
<path d="M32.5658 25.703C34.7069 24.5044 36.2209 23.1366 35.9473 22.6479C35.6737 22.1592 33.7162 22.7347 31.5751 23.9333C29.434 25.1319 27.92 26.4997 28.1936 26.9884C28.4671 27.4771 30.4246 26.9016 32.5658 25.703Z" fill="#9C1C20"/>
<path d="M32.5614 25.6956C34.7025 24.497 36.2165 23.1292 35.9429 22.6405C35.6693 22.1518 33.7118 22.7273 31.5707 23.9259C29.4296 25.1245 27.9156 26.4924 28.1892 26.981C28.4628 27.4697 30.4202 26.8942 32.5614 25.6956Z" fill="#9C1C20"/>
<path d="M32.5575 25.6893C34.6986 24.4907 36.2125 23.1229 35.939 22.6342C35.6654 22.1455 33.7079 22.721 31.5668 23.9196C29.4257 25.1182 27.9117 26.486 28.1853 26.9747C28.4588 27.4634 30.4163 26.8879 32.5575 25.6893Z" fill="#9C1C20"/>
<path d="M32.5538 25.682C34.6949 24.4834 36.2089 23.1156 35.9353 22.6269C35.6618 22.1382 33.7043 22.7137 31.5631 23.9123C29.422 25.1109 27.9081 26.4787 28.1816 26.9674C28.4552 27.4561 30.4127 26.8806 32.5538 25.682Z" fill="#9C1C20"/>
<path d="M32.5501 25.6746C34.6913 24.476 36.2052 23.1082 35.9317 22.6195C35.6581 22.1309 33.7006 22.7063 31.5595 23.9049C29.4183 25.1035 27.9044 26.4714 28.178 26.96C28.4515 27.4487 30.409 26.8732 32.5501 25.6746Z" fill="#9C1C20"/>
<path d="M32.5453 25.6673C34.6864 24.4687 36.2003 23.1009 35.9268 22.6122C35.6532 22.1235 33.6957 22.699 31.5546 23.8976C29.4135 25.0962 27.8995 26.464 28.1731 26.9527C28.4466 27.4414 30.4041 26.8659 32.5453 25.6673Z" fill="#9C1C20"/>
<path d="M32.5416 25.66C34.6827 24.4614 36.1967 23.0936 35.9231 22.6049C35.6495 22.1162 33.692 22.6917 31.5509 23.8903C29.4098 25.0889 27.8958 26.4567 28.1694 26.9454C28.443 27.4341 30.4005 26.8586 32.5416 25.66Z" fill="#9C1C20"/>
<path d="M32.5379 25.6532C34.6791 24.4546 36.193 23.0867 35.9194 22.5981C35.6459 22.1094 33.6884 22.6849 31.5473 23.8835C29.4061 25.0821 27.8922 26.4499 28.1657 26.9386C28.4393 27.4273 30.3968 26.8518 32.5379 25.6532Z" fill="#9C1C20"/>
<path d="M32.5343 25.6453C34.6754 24.4468 36.1894 23.0789 35.9158 22.5902C35.6422 22.1016 33.6847 22.677 31.5436 23.8756C29.4025 25.0742 27.8885 26.4421 28.1621 26.9307C28.4357 27.4194 30.3932 26.8439 32.5343 25.6453Z" fill="#9C1C20"/>
<path d="M32.5296 25.639C34.6708 24.4404 36.1847 23.0726 35.9112 22.5839C35.6376 22.0952 33.6801 22.6707 31.539 23.8693C29.3978 25.0679 27.8839 26.4357 28.1574 26.9244C28.431 27.4131 30.3885 26.8376 32.5296 25.639Z" fill="#9C1C20"/>
<path d="M32.526 25.6317C34.6671 24.4331 36.1811 23.0653 35.9075 22.5766C35.6339 22.0879 33.6764 22.6634 31.5353 23.862C29.3942 25.0606 27.8802 26.4284 28.1538 26.9171C28.4274 27.4058 30.3848 26.8303 32.526 25.6317Z" fill="#9C1C20"/>
<path d="M32.5221 25.6244C34.6632 24.4258 36.1772 23.0579 35.9036 22.5692C35.63 22.0806 33.6725 22.6561 31.5314 23.8547C29.3903 25.0532 27.8763 26.4211 28.1499 26.9098C28.4234 27.3984 30.3809 26.823 32.5221 25.6244Z" fill="#9C1C20"/>
<path d="M32.5184 25.618C34.6595 24.4194 36.1735 23.0516 35.8999 22.5629C35.6264 22.0742 33.6689 22.6497 31.5277 23.8483C29.3866 25.0469 27.8726 26.4147 28.1462 26.9034C28.4198 27.3921 30.3773 26.8166 32.5184 25.618Z" fill="#9C1C20"/>
<path d="M32.514 25.6107C34.6551 24.4121 36.1691 23.0443 35.8955 22.5556C35.622 22.0669 33.6645 22.6424 31.5233 23.841C29.3822 25.0396 27.8683 26.4074 28.1418 26.8961C28.4154 27.3848 30.3729 26.8093 32.514 25.6107Z" fill="#9C1C20"/>
<path d="M32.5103 25.6034C34.6515 24.4048 36.1654 23.0369 35.8919 22.5483C35.6183 22.0596 33.6608 22.6351 31.5197 23.8337C29.3785 25.0323 27.8646 26.4001 28.1382 26.8888C28.4117 27.3774 30.3692 26.802 32.5103 25.6034Z" fill="#9C1C20"/>
<path d="M32.5064 25.5965C34.6476 24.3979 36.1615 23.0301 35.888 22.5414C35.6144 22.0527 33.6569 22.6282 31.5158 23.8268C29.3746 25.0254 27.8607 26.3932 28.1343 26.8819C28.4078 27.3706 30.3653 26.7951 32.5064 25.5965Z" fill="#9C1C20"/>
<path d="M32.5028 25.5897C34.6439 24.3911 36.1579 23.0233 35.8843 22.5346C35.6107 22.0459 33.6532 22.6214 31.5121 23.82C29.371 25.0186 27.857 26.3864 28.1306 26.8751C28.4042 27.3638 30.3617 26.7883 32.5028 25.5897Z" fill="#9C1C20"/>
<path d="M32.4984 25.5824C34.6395 24.3838 36.1535 23.0159 35.8799 22.5273C35.6063 22.0386 33.6488 22.6141 31.5077 23.8127C29.3666 25.0113 27.8526 26.3791 28.1262 26.8678C28.3998 27.3565 30.3573 26.781 32.4984 25.5824Z" fill="#9C1C20"/>
<path d="M32.4945 25.575C34.6356 24.3764 36.1496 23.0086 35.876 22.5199C35.6024 22.0312 33.6449 22.6067 31.5038 23.8053C29.3627 25.0039 27.8487 26.3717 28.1223 26.8604C28.3959 27.3491 30.3534 26.7736 32.4945 25.575Z" fill="#9C1C20"/>
<path d="M32.4911 25.5677C34.6322 24.3691 36.1461 23.0013 35.8726 22.5126C35.599 22.0239 33.6415 22.5994 31.5004 23.798C29.3593 24.9966 27.8453 26.3644 28.1189 26.8531C28.3924 27.3418 30.3499 26.7663 32.4911 25.5677Z" fill="#9C1C20"/>
<path d="M32.4864 25.5619C34.6276 24.3633 36.1415 22.9954 35.8679 22.5068C35.5944 22.0181 33.6369 22.5936 31.4957 23.7922C29.3546 24.9907 27.8407 26.3586 28.1142 26.8473C28.3878 27.3359 30.3453 26.7605 32.4864 25.5619Z" fill="#9C1C20"/>
<path d="M32.4828 25.5545C34.6239 24.3559 36.1378 22.9881 35.8643 22.4994C35.5907 22.0107 33.6332 22.5862 31.4921 23.7848C29.351 24.9834 27.837 26.3512 28.1106 26.8399C28.3841 27.3286 30.3416 26.7531 32.4828 25.5545Z" fill="#9C1C20"/>
<path d="M32.4784 25.5477C34.6195 24.3491 36.1334 22.9813 35.8599 22.4926C35.5863 22.0039 33.6288 22.5794 31.4877 23.778C29.3466 24.9766 27.8326 26.3444 28.1062 26.8331C28.3797 27.3218 30.3372 26.7463 32.4784 25.5477Z" fill="#9C1C20"/>
<path d="M32.4745 25.5409C34.6156 24.3423 36.1295 22.9744 35.856 22.4858C35.5824 21.9971 33.6249 22.5726 31.4838 23.7712C29.3427 24.9698 27.8287 26.3376 28.1023 26.8263C28.3758 27.3149 30.3333 26.7395 32.4745 25.5409Z" fill="#9C1C20"/>
<path d="M32.4708 25.533C34.6119 24.3344 36.1259 22.9666 35.8523 22.4779C35.5787 21.9892 33.6213 22.5647 31.4801 23.7633C29.339 24.9619 27.825 26.3298 28.0986 26.8184C28.3722 27.3071 30.3297 26.7316 32.4708 25.533Z" fill="#9C1C20"/>
<path d="M32.4671 25.5267C34.6083 24.3281 36.1222 22.9603 35.8486 22.4716C35.5751 21.9829 33.6176 22.5584 31.4765 23.757C29.3353 24.9556 27.8214 26.3234 28.0949 26.8121C28.3685 27.3008 30.326 26.7253 32.4671 25.5267Z" fill="#9C1C20"/>
<path d="M32.4627 25.5189C34.6039 24.3203 36.1178 22.9525 35.8443 22.4638C35.5707 21.9751 33.6132 22.5506 31.4721 23.7492C29.3309 24.9478 27.817 26.3156 28.0906 26.8043C28.3641 27.293 30.3216 26.7175 32.4627 25.5189Z" fill="#9C1C20"/>
<path d="M32.4588 25.5125C34.6 24.3139 36.1139 22.9461 35.8403 22.4574C35.5668 21.9687 33.6093 22.5442 31.4682 23.7428C29.327 24.9414 27.8131 26.3092 28.0866 26.7979C28.3602 27.2866 30.3177 26.7111 32.4588 25.5125Z" fill="#9C1C20"/>
<path d="M32.4552 25.5052C34.5963 24.3066 36.1103 22.9388 35.8367 22.4501C35.5631 21.9614 33.6056 22.5369 31.4645 23.7355C29.3234 24.9341 27.8094 26.3019 28.083 26.7906C28.3566 27.2793 30.314 26.7038 32.4552 25.5052Z" fill="#9C1C20"/>
<path d="M32.4515 25.4979C34.5926 24.2993 36.1066 22.9315 35.833 22.4428C35.5595 21.9541 33.602 22.5296 31.4608 23.7282C29.3197 24.9268 27.8058 26.2946 28.0793 26.7833C28.3529 27.272 30.3104 26.6965 32.4515 25.4979Z" fill="#9C1C20"/>
<path d="M32.4471 25.4915C34.5882 24.2929 36.1022 22.9251 35.8286 22.4364C35.5551 21.9477 33.5976 22.5232 31.4564 23.7218C29.3153 24.9204 27.8014 26.2883 28.0749 26.7769C28.3485 27.2656 30.306 26.6901 32.4471 25.4915Z" fill="#9C1C20"/>
<path d="M32.4432 25.4842C34.5843 24.2856 36.0983 22.9178 35.8247 22.4291C35.5512 21.9404 33.5937 22.5159 31.4525 23.7145C29.3114 24.9131 27.7975 26.2809 28.071 26.7696C28.3446 27.2583 30.3021 26.6828 32.4432 25.4842Z" fill="#9C1C20"/>
<path d="M32.4395 25.4769C34.5807 24.2783 36.0946 22.9105 35.8211 22.4218C35.5475 21.9331 33.59 22.5086 31.4489 23.7072C29.3077 24.9058 27.7938 26.2736 28.0674 26.7623C28.3409 27.251 30.2984 26.6755 32.4395 25.4769Z" fill="#9C1C20"/>
<path d="M32.4359 25.4701C34.577 24.2715 36.091 22.9036 35.8174 22.415C35.5438 21.9263 33.5863 22.5018 31.4452 23.7004C29.3041 24.899 27.7901 26.2668 28.0637 26.7555C28.3373 27.2441 30.2948 26.6687 32.4359 25.4701Z" fill="#9C1C20"/>
<path d="M32.4313 25.4627C34.5724 24.2641 36.0863 22.8963 35.8128 22.4076C35.5392 21.9189 33.5817 22.4944 31.4406 23.693C29.2995 24.8916 27.7855 26.2594 28.0591 26.7481C28.3326 27.2368 30.2901 26.6613 32.4313 25.4627Z" fill="#9C1C20"/>
<path d="M32.4276 25.4564C34.5687 24.2578 36.0827 22.89 35.8091 22.4013C35.5355 21.9126 33.578 22.4881 31.4369 23.6867C29.2958 24.8853 27.7818 26.2531 28.0554 26.7418C28.329 27.2305 30.2865 26.655 32.4276 25.4564Z" fill="#9C1C20"/>
<path d="M32.4239 25.4491C34.5651 24.2505 36.079 22.8826 35.8054 22.394C35.5319 21.9053 33.5744 22.4808 31.4332 23.6794C29.2921 24.878 27.7782 26.2458 28.0517 26.7345C28.3253 27.2232 30.2828 26.6477 32.4239 25.4491Z" fill="#9C1C20"/>
<path d="M32.4203 25.4413C34.5614 24.2427 36.0753 22.8748 35.8018 22.3861C35.5282 21.8975 33.5707 22.4729 31.4296 23.6715C29.2885 24.8701 27.7745 26.238 28.0481 26.7266C28.3216 27.2153 30.2791 26.6398 32.4203 25.4413Z" fill="#9C1C20"/>
<path d="M32.4156 25.4349C34.5567 24.2363 36.0707 22.8685 35.7971 22.3798C35.5236 21.8911 33.5661 22.4666 31.4249 23.6652C29.2838 24.8638 27.7699 26.2316 28.0434 26.7203C28.317 27.209 30.2745 26.6335 32.4156 25.4349Z" fill="#9C1C20"/>
<path d="M32.412 25.4276C34.5531 24.229 36.067 22.8612 35.7935 22.3725C35.5199 21.8838 33.5624 22.4593 31.4213 23.6579C29.2802 24.8565 27.7662 26.2243 28.0398 26.713C28.3133 27.2017 30.2708 26.6262 32.412 25.4276Z" fill="#9C1C20"/>
<path d="M32.4083 25.4207C34.5494 24.2221 36.0634 22.8543 35.7898 22.3656C35.5162 21.8769 33.5587 22.4524 31.4176 23.651C29.2765 24.8496 27.7625 26.2175 28.0361 26.7061C28.3097 27.1948 30.2672 26.6193 32.4083 25.4207Z" fill="#9C1C20"/>
<path d="M32.4044 25.4139C34.5455 24.2153 36.0595 22.8475 35.7859 22.3588C35.5123 21.8701 33.5548 22.4456 31.4137 23.6442C29.2726 24.8428 27.7586 26.2106 28.0322 26.6993C28.3058 27.188 30.2633 26.6125 32.4044 25.4139Z" fill="#9C1C20"/>
<path d="M32.3993 25.4066C34.5404 24.208 36.0543 22.8402 35.7808 22.3515C35.5072 21.8628 33.5497 22.4383 31.4086 23.6369C29.2675 24.8355 27.7535 26.2033 28.0271 26.692C28.3006 27.1807 30.2581 26.6052 32.3993 25.4066Z" fill="#9C1C20"/>
<path d="M32.3956 25.4002C34.5367 24.2016 36.0507 22.8338 35.7771 22.3451C35.5035 21.8564 33.5461 22.4319 31.4049 23.6305C29.2638 24.8291 27.7498 26.1969 28.0234 26.6856C28.297 27.1743 30.2545 26.5988 32.3956 25.4002Z" fill="#9C1C20"/>
<path d="M32.3919 25.3929C34.5331 24.1943 36.047 22.8265 35.7735 22.3378C35.4999 21.8491 33.5424 22.4246 31.4013 23.6232C29.2601 24.8218 27.7462 26.1896 28.0198 26.6783C28.2933 27.167 30.2508 26.5915 32.3919 25.3929Z" fill="#9C1C20"/>
<path d="M32.3883 25.3856C34.5294 24.187 36.0434 22.8192 35.7698 22.3305C35.4962 21.8418 33.5387 22.4173 31.3976 23.6159C29.2565 24.8145 27.7425 26.1823 28.0161 26.671C28.2897 27.1597 30.2472 26.5842 32.3883 25.3856Z" fill="#9C1C20"/>
<path d="M32.3844 25.3787C34.5255 24.1802 36.0395 22.8123 35.7659 22.3236C35.4923 21.835 33.5348 22.4104 31.3937 23.609C29.2526 24.8076 27.7386 26.1755 28.0122 26.6641C28.2858 27.1528 30.2432 26.5773 32.3844 25.3787Z" fill="#9C1C20"/>
<path d="M32.38 25.3714C34.5211 24.1728 36.0351 22.805 35.7615 22.3163C35.4879 21.8276 33.5304 22.4031 31.3893 23.6017C29.2482 24.8003 27.7342 26.1681 28.0078 26.6568C28.2814 27.1455 30.2389 26.57 32.38 25.3714Z" fill="#9C1C20"/>
<path d="M32.3763 25.3651C34.5174 24.1665 36.0314 22.7987 35.7578 22.31C35.4843 21.8213 33.5268 22.3968 31.3856 23.5954C29.2445 24.794 27.7306 26.1618 28.0041 26.6505C28.2777 27.1392 30.2352 26.5637 32.3763 25.3651Z" fill="#9C1C20"/>
<path d="M32.3724 25.3573C34.5135 24.1587 36.0275 22.7908 35.7539 22.3022C35.4804 21.8135 33.5229 22.389 31.3817 23.5876C29.2406 24.7862 27.7267 26.154 28.0002 26.6427C28.2738 27.1314 30.2313 26.5559 32.3724 25.3573Z" fill="#9C1C20"/>
<path d="M32.3687 25.3504C34.5099 24.1518 36.0238 22.784 35.7503 22.2953C35.4767 21.8066 33.5192 22.3821 31.3781 23.5807C29.2369 24.7793 27.723 26.1471 27.9966 26.6358C28.2701 27.1245 30.2276 26.549 32.3687 25.3504Z" fill="#9C1C20"/>
<path d="M32.3644 25.3436C34.5055 24.145 36.0194 22.7772 35.7459 22.2885C35.4723 21.7998 33.5148 22.3753 31.3737 23.5739C29.2326 24.7725 27.7186 26.1403 27.9922 26.629C28.2657 27.1177 30.2232 26.5422 32.3644 25.3436Z" fill="#9C1C20"/>
<path d="M32.3644 25.3436C34.5055 24.145 36.0194 22.7772 35.7459 22.2885C35.4723 21.7998 33.5148 22.3753 31.3737 23.5739C29.2326 24.7725 27.7186 26.1403 27.9922 26.629C28.2657 27.1177 30.2232 26.5422 32.3644 25.3436Z" fill="#BC4851"/>
<path d="M29.2471 25.5744L29.6119 25.1525L34.3346 23.3096L33.9697 23.7314L29.2471 25.5744Z" fill="#741112"/>
<path d="M47.6532 19.5165C46.6821 19.8876 35.0259 24.4009 35.0259 24.4009C35.3688 29.0204 37.5001 32.6399 40.5728 35.554L40.586 35.5493C41.2243 36.0892 43.5407 35.8399 46.1267 34.8993C48.7126 33.9587 50.6485 32.6626 50.7907 31.8392L50.797 31.8368C52.079 27.122 48.547 19.3438 47.6532 19.5165Z" fill="#801517"/>
<path d="M41.9935 23.5286C45.5465 22.2368 48.1878 20.5321 47.8929 19.7211C47.5981 18.9101 44.4788 19.2999 40.9257 20.5917C37.3727 21.8835 34.7315 23.5881 35.0263 24.3991C35.3212 25.2101 38.4405 24.8204 41.9935 23.5286Z" fill="#C14E4E"/>
<path d="M41.9358 23.37C45.1048 22.2178 47.4606 20.6973 47.1976 19.9739C46.9346 19.2505 44.1524 19.5981 40.9834 20.7502C37.8143 21.9024 35.4586 23.4229 35.7216 24.1463C35.9846 24.8697 38.7668 24.5221 41.9358 23.37Z" fill="#741112"/>
<mask id="mask2_1566_18284" style="mask-type:luminance" maskUnits="userSpaceOnUse" x="35" y="19" width="13" height="6">
<path d="M41.9358 23.37C45.1048 22.2178 47.4606 20.6973 47.1976 19.9739C46.9346 19.2505 44.1524 19.5981 40.9834 20.7502C37.8143 21.9024 35.4586 23.4229 35.7216 24.1463C35.9846 24.8697 38.7668 24.5221 41.9358 23.37Z" fill="white"/>
</mask>
<g mask="url(#mask2_1566_18284)">
<path d="M42.3916 24.6263C45.5606 23.4741 47.9164 21.9537 47.6534 21.2303C47.3904 20.5068 44.6082 20.8544 41.4392 22.0066C38.2702 23.1588 35.9144 24.6792 36.1774 25.4026C36.4404 26.1261 39.2226 25.7785 42.3916 24.6263Z" fill="white"/>
</g>
<mask id="mask3_1566_18284" style="mask-type:luminance" maskUnits="userSpaceOnUse" x="35" y="19" width="17" height="17">
<path d="M47.8485 19.7392C46.8774 20.1103 35.0259 24.401 35.0259 24.401C35.3688 29.0205 37.5001 32.64 40.5728 35.5541L40.586 35.5494C41.2243 36.0892 43.5407 35.84 46.1267 34.8994C48.7126 33.9588 50.6485 32.6627 50.7907 31.8392L50.797 31.8369C52.079 27.122 48.7423 19.5666 47.8485 19.7392Z" fill="white"/>
</mask>
<g mask="url(#mask3_1566_18284)">
<path d="M37.9727 32.5116C40.275 33.4601 42.9797 33.3772 45.2196 32.2905C47.4594 31.203 49.1977 29.1288 49.8774 26.7335C50.179 25.6702 50.279 24.5624 50.3774 23.4624C51.368 25.4272 52.1555 27.4944 52.7235 29.6202C52.9086 30.3132 53.0704 31.0515 52.8688 31.7397C52.5172 32.9397 51.2258 33.5632 50.0586 34.0116C44.6305 36.0983 38.95 37.5265 33.1813 38.2569C32.8665 38.2968 32.5454 38.3343 32.2336 38.2772C31.2696 38.0999 30.6758 37.039 30.6844 36.0585C30.693 35.078 31.1516 34.1655 31.6 33.2929" fill="#721011"/>
</g>
<path d="M33.2407 20.5905C33.2907 20.9085 33.5298 23.9093 36.2087 23.4897C38.9282 23.064 38.1978 20.1397 38.1478 19.8218" fill="#AD3E3E"/>
<path d="M35.7835 20.7701C37.1386 20.5579 38.198 20.1353 38.1496 19.8263C38.1012 19.5172 36.9634 19.4387 35.6082 19.6509C34.2531 19.8631 33.1938 20.2857 33.2422 20.5947C33.2906 20.9038 34.4284 20.9823 35.7835 20.7701Z" fill="#BF5151"/>
<path d="M35.7692 20.6769C36.8685 20.5047 37.727 20.1561 37.6866 19.8982C37.6462 19.6403 36.7223 19.5708 35.6229 19.743C34.5235 19.9151 33.6651 20.2638 33.7054 20.5217C33.7458 20.7796 34.6698 20.8491 35.7692 20.6769Z" fill="#741112"/>
<path d="M37.7467 20.8463L46.112 19.5363C46.1316 19.5333 46.145 19.5149 46.1419 19.4953L46.0929 19.1827C46.0899 19.1631 46.0715 19.1496 46.0519 19.1527L37.6866 20.4627C37.667 20.4657 37.6536 20.4841 37.6567 20.5037L37.7056 20.8163C37.7087 20.8359 37.7271 20.8494 37.7467 20.8463Z" fill="#9E3535"/>
<g opacity="0.3">
<path d="M0.430613 26.9385C-0.808451 27.1236 -2.09673 26.9635 -3.25298 26.4822C-3.17563 26.4088 -3.09829 26.3361 -3.02095 26.2627C-5.09517 26.6127 -7.31861 25.1994 -7.88267 23.1728C-8.49439 22.908 -8.94126 22.2955 -9.0061 21.6322C-9.07095 20.9689 -8.75142 20.2814 -8.2022 19.9033C-8.70142 19.8885 -8.95064 19.1127 -8.55298 18.8103C-9.11704 18.3666 -8.98423 17.3205 -8.32642 17.033C-8.4647 16.4111 -8.6022 15.7892 -8.74048 15.1674C-8.77798 14.9986 -8.80767 14.7978 -8.68892 14.6721C-8.57017 14.5463 -8.28345 14.6791 -8.37251 14.8275C-7.98814 12.3455 -6.38501 10.0822 -4.17095 8.89472C-4.10532 8.91972 -4.0397 8.94394 -3.97486 8.96894C-3.68736 8.43144 -3.39985 7.89472 -3.11235 7.35722C-2.88345 7.30644 -2.66782 7.60878 -2.79126 7.80878C-1.42954 6.37284 0.510302 5.5955 2.46421 5.28847C4.4189 4.98144 6.41186 5.10488 8.38686 5.22909C8.62593 5.13144 8.85561 5.4205 8.8728 5.67831C8.89077 5.93613 8.80249 6.20253 8.88217 6.44784C9.00014 6.81503 9.45874 6.97831 9.8353 6.89863C10.2126 6.81972 10.5244 6.56425 10.8205 6.31659C11.3962 7.34159 12.2072 8.233 13.1736 8.90253C13.1314 9.20566 13.0884 9.50956 13.0462 9.81269C13.2322 9.55253 13.6705 9.69159 13.8501 9.95566C14.0298 10.2205 14.0673 10.558 14.2244 10.8361C14.3822 11.1142 14.772 11.3213 15.0158 11.1142C15.0173 11.5986 15.0181 12.083 15.0197 12.5674C15.2908 12.608 15.5619 12.6486 15.833 12.69C15.8392 13.3221 15.8462 13.9541 15.8525 14.5861C16.3611 14.5728 16.7439 15.2338 16.4783 15.6682C16.8025 15.5455 17.2095 15.7338 17.3259 16.0611C17.4416 16.3877 17.2447 16.7908 16.9158 16.9002C17.3517 17.0478 17.6306 17.5541 17.522 18.0017C17.4134 18.4486 16.9337 18.7721 16.479 18.7041C16.4689 19.8752 16.4595 21.0471 16.4494 22.2182C15.4212 23.1517 14.3939 24.0853 13.3658 25.0189C13.7962 25.1807 13.9345 25.7627 13.7666 26.1908C13.5986 26.6189 13.2197 26.9221 12.8494 27.1947C11.4072 28.2564 9.85796 29.1728 8.23296 29.926C7.99545 29.7877 7.93999 29.4158 8.12827 29.2142C7.41108 30.0978 5.8603 30.09 5.1517 29.1994C4.61733 29.4439 3.91733 29.2392 3.59858 28.7447C3.27124 28.9057 2.94311 29.0674 2.61577 29.2283C2.65483 28.9041 2.31264 28.6596 1.99389 28.5924C1.67514 28.5244 1.32749 28.5494 1.04155 28.3932C0.754831 28.2369 0.607175 27.776 0.879831 27.5963C0.404831 27.8057 -0.206886 27.3002 -0.0904808 26.7939C0.0931129 26.9494 0.425925 26.8385 0.479832 26.6049C-0.146731 26.7611 -0.849857 26.5642 -1.30376 26.1041" fill="#801517"/>
<path d="M8.65879 12.07C7.0291 12.8653 5.55567 13.97 4.31817 15.2942C3.08223 16.6161 2.07989 18.1536 1.3752 19.8208C0.978323 20.7606 0.678322 21.7403 0.485354 22.7426C0.462697 22.8606 0.643949 22.9114 0.667386 22.7919C1.00645 21.0325 1.67676 19.3458 2.61973 17.8231C3.56192 16.3004 4.77207 14.945 6.18223 13.8411C6.9791 13.2176 7.8416 12.6786 8.75098 12.2348C8.86035 12.1817 8.76817 12.0169 8.65957 12.07H8.65879Z" fill="white"/>
<path d="M1.82906 12.9812C1.40172 14.5335 1.48453 16.2155 2.05093 17.7226C2.20953 18.1452 2.40484 18.5522 2.63687 18.9398C2.69937 19.0437 2.86422 18.9523 2.80172 18.8483C1.99703 17.5023 1.63921 15.9093 1.77359 14.3476C1.81187 13.9023 1.89234 13.4616 2.01109 13.0312C2.04312 12.914 1.86109 12.864 1.82906 12.9819V12.9812Z" fill="white"/>
<path d="M8.02373 15.2664C6.6042 15.2406 5.19248 15.5031 3.87451 16.0304C3.76201 16.0758 3.85498 16.2398 3.96592 16.1953C5.25263 15.6804 6.63701 15.4297 8.02216 15.4547C8.14326 15.457 8.14482 15.2679 8.02295 15.2664H8.02373Z" fill="white"/>
<path d="M7.76597 10.0177C7.52457 10.4138 7.28394 10.8091 7.04253 11.2052C6.84722 11.5263 6.60972 11.8591 6.54488 12.2372C6.4941 12.5333 6.56675 12.8239 6.80269 13.0208C6.99722 13.1833 7.27457 13.2544 7.49644 13.1013C7.59566 13.0325 7.50504 12.8677 7.40504 12.9364C7.21129 13.07 6.97925 12.9606 6.84332 12.795C6.6566 12.5684 6.70582 12.2614 6.80894 12.0075C6.93941 11.688 7.14722 11.3966 7.32613 11.1028C7.52691 10.7731 7.72769 10.4434 7.92925 10.113C7.99253 10.0091 7.83004 9.91297 7.76675 10.0169L7.76597 10.0177Z" fill="white"/>
</g>
<path d="M27.2369 14.2818C29.4788 14.2818 31.2962 12.4644 31.2962 10.2225C31.2962 7.98053 29.4788 6.16309 27.2369 6.16309C24.9949 6.16309 23.1775 7.98053 23.1775 10.2225C23.1775 12.4644 24.9949 14.2818 27.2369 14.2818Z" fill="white"/>
<path d="M26.2219 20.5279C26.1969 20.531 26.168 20.5279 26.1415 20.5154C26.0719 20.4818 26.0415 20.3967 26.0743 20.3248C26.761 18.8631 26.6735 17.0959 25.8446 15.7115C25.8048 15.6435 25.8274 15.5553 25.8954 15.5138C25.961 15.4732 26.0516 15.4982 26.0915 15.5631C26.968 17.0287 27.0602 18.8998 26.3337 20.4467C26.3118 20.4935 26.2696 20.5217 26.2227 20.5271L26.2219 20.5279Z" fill="#231F20"/>
<path d="M28.1893 20.5281C28.1784 20.5296 28.1666 20.5296 28.1557 20.5296C28.0784 20.5203 28.0213 20.4499 28.0276 20.371C28.176 19.007 28.0627 17.5867 27.6995 16.2648C27.6784 16.1882 27.7245 16.1093 27.801 16.089C27.8729 16.0742 27.9565 16.114 27.9776 16.189C28.3479 17.5453 28.4659 19.0023 28.3135 20.4015C28.3049 20.4687 28.2526 20.5195 28.1885 20.5281H28.1893Z" fill="#231F20"/>
<mask id="mask4_1566_18284" style="mask-type:luminance" maskUnits="userSpaceOnUse" x="23" y="6" width="9" height="9">
<path d="M27.2369 14.2828C29.4788 14.2828 31.2962 12.4654 31.2962 10.2234C31.2962 7.98151 29.4788 6.16406 27.2369 6.16406C24.9949 6.16406 23.1775 7.98151 23.1775 10.2234C23.1775 12.4654 24.9949 14.2828 27.2369 14.2828Z" fill="white"/>
</mask>
<g mask="url(#mask4_1566_18284)">
<path d="M23.1102 13.7499C23.3789 13.9054 23.6523 14.0624 23.9539 14.1366C24.2555 14.2108 24.5945 14.1913 24.8492 14.0132C25.0773 13.853 25.2109 13.5843 25.2641 13.3101C25.3164 13.0358 25.2977 12.7538 25.275 12.4765C25.1977 11.5202 25.0844 10.5671 24.9719 9.61475C25.1469 10.4788 25.4586 11.3296 25.9945 12.0304C26.5305 12.7304 27.3086 13.2702 28.1805 13.4046C29.0523 13.539 30.0078 13.2233 30.5398 12.5202C30.8328 13.2241 30.6484 14.0702 30.1852 14.6757C29.7219 15.2812 29.0156 15.6663 28.2797 15.8679C27.5445 16.0694 26.7742 16.103 26.0117 16.1147C25.1312 16.1288 24.1719 16.0874 23.5 15.5179C22.9359 15.0397 22.6992 14.2897 22.4883 13.5812" fill="#A5A5A5"/>
</g>
<path d="M25.7212 25.8896C26.0064 25.606 26.2782 25.3099 26.5509 25.0138C26.9486 24.581 27.3454 24.1482 27.7431 23.7154C27.9103 23.5333 28.0907 23.306 28.0329 23.0654C27.9962 22.9146 27.8673 22.7974 27.7212 22.7451C27.5751 22.6927 27.4142 22.6974 27.2611 22.724C27.0196 22.7661 26.79 22.8607 26.5634 22.9536C26.3431 23.0451 26.1228 23.1357 25.9025 23.2271C25.7939 23.2716 25.6845 23.3177 25.5907 23.3888C25.4579 23.4896 25.3681 23.6349 25.2712 23.7708C25.0923 24.0216 24.8821 24.2497 24.647 24.4482C24.4626 24.6036 24.2634 24.7404 24.0829 24.8997C23.9025 25.0591 23.7392 25.2458 23.6501 25.4701C23.5611 25.6943 23.5556 25.9599 23.6775 26.1677C23.7993 26.3755 24.0642 26.5029 24.2931 26.4279" fill="#FAB998"/>
<path d="M26.8455 22.3499C26.8017 22.2795 27.3017 22.1194 27.3431 22.1092C27.447 22.0827 27.5549 22.0756 27.6611 22.0678C27.7478 22.0616 27.8353 22.0491 27.9213 22.053C28.0111 22.0569 28.0885 22.0756 28.1697 22.1092C28.2056 22.1241 28.2486 22.1217 28.2869 22.1264C28.347 22.1342 28.4095 22.1421 28.4674 22.1585C28.4994 22.1671 28.526 22.1866 28.5572 22.1967C28.5939 22.2085 28.6322 22.2155 28.6697 22.2256C28.7025 22.2342 28.7353 22.242 28.7674 22.253C28.7939 22.2624 28.815 22.2756 28.8431 22.2788C28.8783 22.2827 28.9142 22.2733 28.9502 22.2733C28.9783 22.2733 29.0056 22.278 29.0338 22.278C29.0783 22.278 29.1338 22.2756 29.1775 22.2678C29.2322 22.2577 29.3205 22.178 29.326 22.2788C29.3275 22.3085 29.3353 22.3413 29.3283 22.371C29.3158 22.4264 29.2705 22.4795 29.2213 22.5061C29.1463 22.5467 29.0736 22.5686 28.99 22.5811C28.8345 22.6038 28.6791 22.6616 28.526 22.6936C28.4361 22.7124 28.3369 22.721 28.2517 22.7561" fill="#FAB998"/>
<path d="M25.3798 25.4027C25.4556 25.4551 26.9642 23.6527 27.0462 23.6949C27.6228 23.9926 28.3415 24.0535 29.011 23.9605C29.7759 23.8535 30.4962 23.566 31.2032 23.2769C31.5345 23.1418 31.8782 22.9965 32.1032 22.7386C32.1774 22.6535 32.2376 22.5535 32.2431 22.4465C32.2478 22.3394 32.1853 22.2261 32.0735 22.1894C31.9587 22.1519 31.8329 22.2019 31.7204 22.2472C30.4626 22.7558 28.9899 22.8051 27.7095 22.3832C27.3868 22.2769 27.0485 22.1394 26.711 22.2113C26.3079 22.2972 26.0532 22.6465 25.8282 22.9605C25.3571 23.6176 24.7103 24.1879 24.1353 24.7746" fill="#FEDAC2"/>
<path d="M5.47988 26.4248C4.97363 26.2318 4.35566 26.3826 3.99551 26.7873C3.63535 27.192 3.55801 27.824 3.80957 28.3037C2.80801 28.2068 1.79551 28.9592 1.59941 29.9459C1.2002 29.7467 0.693945 29.785 0.329102 30.042C-0.0357418 30.2982 -0.242771 30.7623 -0.191208 31.2053C-0.465427 31.0943 -0.744336 30.9818 -1.03887 30.9514C-1.3334 30.9201 -1.65059 30.9803 -1.87012 31.1787C-2.14824 31.4287 -2.21387 31.8318 -2.37715 32.1686C-2.6834 32.8006 -3.34902 33.1967 -4.03418 33.3514C-4.71933 33.5053 -5.43184 33.4514 -6.13184 33.3967C-5.03652 34.0576 -3.6334 34.1818 -2.43887 33.724C-2.0084 33.5592 -1.56543 33.3186 -1.11465 33.4131C-0.77324 33.485 -0.493555 33.7396 -0.154492 33.8225C0.185352 33.9053 0.566601 33.7928 0.807227 33.5389C1.04785 33.2842 1.13848 32.8982 1.03691 32.5631C1.84863 32.5381 2.59004 31.8623 2.6916 31.0576C3.21269 31.3107 3.87441 31.2428 4.33301 30.8896C4.7916 30.5357 5.02519 29.9131 4.91269 29.3443C5.32988 29.4678 5.75254 29.592 6.18769 29.61C6.62285 29.6279 7.07754 29.5303 7.41269 29.2514C8.02519 28.742 8.05879 27.8303 8.04316 27.0334C8.03066 26.4115 8.01816 25.7889 8.00566 25.167" fill="#231F20"/>
<path d="M0.954702 40.3152C0.142202 40.8105 -0.0640465 41.9925 0.355485 42.8472C0.774235 43.7019 1.67423 44.2402 2.60158 44.4558C3.52892 44.6706 4.65783 45.1183 5.60783 45.0534C9.2422 44.8058 12.8125 44.0214 16.1031 42.4581C16.8438 42.1066 17.5602 41.6894 18.3485 41.4644C19.1367 41.2394 20.7578 41.6089 21.4539 42.0409C21.3586 41.0566 20.5367 39.6917 20.4406 38.7074C20.3649 37.9245 20.2828 37.1222 19.9359 36.4159C19.2125 34.9433 17.4813 34.2191 15.8445 34.1042C13.4359 33.9355 11.0891 34.8027 8.83048 35.6566C6.89064 36.3894 4.95001 37.123 3.01017 37.8558" fill="#BE8B8B"/>
<path d="M11.3986 37.7719C14.0104 37.429 16.5174 36.3227 18.5322 34.6251C18.8369 34.368 19.1486 34.0657 19.2049 33.6712C19.258 33.2969 19.0658 32.9352 18.8807 32.6055C18.6869 32.2602 18.4783 31.9001 18.1393 31.6962C17.6221 31.3852 16.9596 31.5235 16.3861 31.7094C15.8119 31.8954 15.2025 32.1227 14.6213 31.9602C14.1635 31.8321 13.808 31.4829 13.4229 31.204C12.4182 30.4774 11.0971 30.2063 9.8877 30.479" fill="#3A3A3A"/>
<path d="M7.7471 33.3024C7.38304 33.4056 7.0596 33.7532 6.95726 34.1517C6.82288 34.6743 7.05335 35.1759 7.34319 35.5532C8.16975 36.629 9.46351 37.122 10.7057 37.5782C11.0268 37.6962 11.3698 37.8149 11.7221 37.7181C12.2776 37.5642 12.6463 36.9446 12.944 36.386C13.276 35.7634 13.619 35.1009 13.6307 34.4188C13.6479 33.4329 12.9807 32.7063 12.3557 32.0845" fill="#B74B58"/>
<path d="M2.12584 34.6468C1.57584 35.1304 1.04068 35.6491 0.681305 36.2874C0.32193 36.9257 0.156304 37.7038 0.382085 38.4007C0.688335 39.3437 1.65162 39.9476 2.62584 40.1319C4.30943 40.4507 6.09458 39.703 7.23755 38.4272C8.38052 37.1507 8.92427 35.4132 8.97037 33.7007" fill="#3A3A3A"/>
<path d="M8.95081 24.9829C8.40081 26.2157 6.68987 29.1103 5.66722 29.9915C4.64378 30.8728 3.52346 31.6345 2.48597 32.4985C1.65706 33.1884 0.88128 33.9431 0.16878 34.7532C0.0422171 34.897 -0.0890348 35.0587 -0.0968473 35.2501C-0.10466 35.4509 0.0312775 35.6353 0.200809 35.7423C0.371121 35.8493 0.571904 35.8931 0.768779 35.9353C1.23362 36.0345 1.69768 36.1345 2.16253 36.2337C2.76175 36.3618 3.36097 36.4907 3.96643 36.5821C4.66253 36.6876 5.36878 36.7431 6.07034 36.6837C6.83362 36.6188 7.58518 36.4149 8.27737 36.086C8.57425 35.9446 8.85941 35.7813 9.14456 35.6181C9.34222 35.5048 9.53987 35.3915 9.73831 35.2782C9.98518 35.1368 10.2383 34.9899 10.4117 34.7642C10.5852 34.5384 17.3172 25.9845 17.1735 25.7392" fill="#FF808F"/>
<path d="M11.0618 25.889C13.536 25.8586 14.9477 27.0429 17.4219 27.0125C18.9836 26.9929 21.6915 25.7359 23.0258 24.9062C23.4016 24.6726 23.7438 24.3804 24.1329 24.1711C24.5227 23.9617 24.9836 23.839 25.404 23.9742C26.0493 24.182 26.4008 24.9609 26.325 25.6515C26.2493 26.3429 25.8407 26.9461 25.3782 27.4508C24.375 28.5445 23.0782 29.3086 21.7407 29.9148C17.4493 31.8601 17.4461 32.2976 12.8836 31.1312" fill="#FF808F"/>
<mask id="mask5_1566_18284" style="mask-type:luminance" maskUnits="userSpaceOnUse" x="11" y="23" width="16" height="9">
<path d="M11.0618 25.889C13.536 25.8586 14.9477 27.0429 17.4219 27.0125C18.9836 26.9929 21.6915 25.7359 23.0258 24.9062C23.4016 24.6726 23.7438 24.3804 24.1329 24.1711C24.5227 23.9617 24.9836 23.839 25.404 23.9742C26.0493 24.182 26.4008 24.9609 26.325 25.6515C26.2493 26.3429 25.8407 26.9461 25.3782 27.4508C24.375 28.5445 23.0782 29.3086 21.7407 29.9148C17.4493 31.8601 17.4461 32.2976 12.8836 31.1312" fill="white"/>
</mask>
<g mask="url(#mask5_1566_18284)">
<path d="M12.8267 30.9985C12.9196 30.9954 12.6673 30.6251 12.7681 30.6618C12.8876 30.7181 12.8415 30.6048 12.9712 30.6353C13.2376 30.6845 13.386 30.4704 13.6571 30.4665C14.2782 30.4806 14.8962 30.4634 15.5149 30.4165C15.804 30.3946 16.0938 30.3759 16.3837 30.3603C16.6454 30.3384 16.8985 30.2798 17.1438 30.1837C17.3681 30.1118 17.5876 30.0282 17.8017 29.9306C17.9798 29.8376 18.1587 29.7454 18.3376 29.654C18.7931 29.4376 19.2759 29.2806 19.7478 29.104C20.4024 28.8587 21.0454 28.5782 21.6915 28.3118C22.0103 28.1806 22.9946 26.9212 23.3235 26.8149C22.6571 27.7118 23.0509 27.7923 23.2353 27.6712C23.6493 27.4001 24.0587 27.136 24.4071 26.7821C24.6368 26.5485 24.9149 26.3892 25.2032 26.2376C25.3212 26.1759 25.447 26.1423 25.5665 26.079C25.7634 25.9751 26.4243 24.1751 26.6517 24.1704C26.7392 24.1688 26.3087 25.8649 26.347 25.9517C26.4563 26.204 26.4595 26.522 26.4735 26.7923C26.4931 27.172 26.4532 27.5196 26.3353 27.8798C26.2188 28.2353 26.1056 28.5954 25.9524 28.9384C25.8603 29.154 25.7462 29.3571 25.6095 29.5485C25.429 29.8009 25.2509 30.0548 25.0743 30.3095C24.6821 30.8048 24.1462 31.186 23.5782 31.4556C23.2954 31.5853 23.0063 31.7009 22.7118 31.8017C22.3446 31.8946 21.9751 31.9782 21.6032 32.054C20.772 32.2415 19.9462 32.4563 19.1063 32.6017C18.4892 32.7087 17.8634 32.7298 17.2399 32.7751C16.8696 32.8024 16.5001 32.8282 16.1298 32.8563C15.8024 32.8813 15.4923 32.9235 15.1665 32.8704C14.6837 32.7915 14.1915 32.7923 13.7056 32.7384C13.2774 32.6915 12.8556 32.6368 12.4563 32.4649C12.2735 32.372 12.0892 32.2829 11.9024 32.1978C11.7056 32.1274 11.5032 32.0806 11.2954 32.0571C11.1587 32.0345 10.9524 32.0353 10.8337 31.9431C10.7681 31.8923 10.7228 31.8126 10.6743 31.747" fill="#E0636D"/>
</g>
<path d="M19.9307 38.6462C19.9104 38.6478 19.8909 38.6423 19.8745 38.6282C19.8393 38.6001 19.8346 38.5509 19.8628 38.5165L24.0307 33.4126C24.3065 33.0743 24.5799 32.722 24.869 32.3501C25.6104 31.397 26.3753 30.4118 27.2604 29.5665C27.294 29.5353 27.3424 29.5368 27.3753 29.5689C27.4057 29.6009 27.4034 29.6517 27.3729 29.6822C26.4948 30.5197 25.7323 31.5001 24.9956 32.4486C24.7065 32.822 24.4323 33.1743 24.1549 33.5134L19.987 38.6173C19.9729 38.6353 19.9526 38.6447 19.9315 38.6462H19.9307Z" fill="#231F20" stroke="#231F20" stroke-width="0.234375" stroke-miterlimit="10"/>
<path d="M20.3899 38.5499C20.3664 38.5514 20.3422 38.5428 20.325 38.5249C20.2945 38.4928 20.2969 38.4421 20.3289 38.4116C22.8938 36.003 25.7078 33.8311 28.6914 31.9553C28.7305 31.928 28.7781 31.9413 28.8016 31.9803C28.825 32.0178 28.8141 32.0671 28.7766 32.0905C25.8024 33.9608 22.9977 36.1264 20.4383 38.5288C20.425 38.5413 20.407 38.5483 20.3899 38.5499Z" fill="#231F20" stroke="#231F20" stroke-width="0.234375" stroke-miterlimit="10"/>
<path d="M21.7571 37.8745C21.7509 37.8745 21.7446 37.8753 21.7384 37.8745C21.6954 37.8675 21.6657 37.8269 21.672 37.7831C21.8306 36.7831 22.5665 35.973 23.1571 35.3222L26.5032 31.6362C26.5337 31.6034 26.5837 31.6011 26.6157 31.63C26.6493 31.6597 26.6517 31.7105 26.6212 31.7433L23.2751 35.4292C22.6985 36.0652 21.9813 36.8558 21.8306 37.8073C21.8243 37.8456 21.7931 37.8722 21.7571 37.8745Z" fill="#231F20" stroke="#231F20" stroke-width="0.234375" stroke-miterlimit="10"/>
<path d="M20.1689 38.4798C20.1517 38.4814 20.1361 38.4775 20.1197 38.4681C20.0837 38.4447 20.072 38.3955 20.0962 38.358C20.1275 38.3095 20.1564 38.2595 20.1853 38.2103L20.2087 38.172C20.2142 38.1626 20.2212 38.1556 20.229 38.1494C21.5509 36.0876 22.8728 34.0259 24.1931 31.9642C24.2173 31.9267 24.2634 31.915 24.304 31.94C24.34 31.9642 24.3517 32.0134 24.3275 32.0501C22.9618 34.1814 21.5962 36.3126 20.2298 38.4439C20.2158 38.4658 20.1931 38.4791 20.1681 38.4806L20.1689 38.4798Z" fill="#231F20" stroke="#231F20" stroke-width="0.234375" stroke-miterlimit="10"/>
<path d="M20.7893 35.2471C21.0831 35.0408 21.376 34.8346 21.6698 34.6283C21.7424 34.5768 21.8182 34.5244 21.9057 34.5065C21.9932 34.4885 22.0963 34.5143 22.1424 34.5901C22.2034 34.6901 22.1409 34.8221 22.0573 34.9041C21.9737 34.9861 21.8667 35.0486 21.8088 35.1502C21.6924 35.3549 21.837 35.6244 22.0409 35.7416C22.2448 35.8588 22.4893 35.8736 22.7198 35.9205C22.9971 35.9768 23.301 36.1236 23.3635 36.4002C23.3971 36.5479 23.3526 36.701 23.3088 36.8455C23.2487 37.044 23.1885 37.2424 23.1049 37.4315C23.0346 37.5901 22.9479 37.7416 22.8612 37.8924C22.7612 38.0674 22.6557 38.2479 22.4932 38.3666C22.1596 38.6096 21.6917 38.526 21.3096 38.369C20.219 37.9213 19.3612 36.944 19.0588 35.8049" fill="#FEDAC2"/>
<path d="M7.87903 32.4266C7.81341 32.4344 7.74388 32.9406 7.76263 33.0375C7.77825 33.1148 7.79544 33.2227 7.82278 33.2906C7.84153 33.3367 7.86653 33.3695 7.88372 33.4203C7.93919 33.582 7.94075 33.7375 8.05325 33.8531C8.1595 33.9633 8.27825 34.0164 8.38763 34.1164C8.48138 34.2023 8.58684 34.3211 8.66653 34.4297C8.73606 34.525 8.797 34.6031 8.84544 34.7164C8.86653 34.7656 8.90872 34.8141 8.92512 34.8648C8.94309 34.9187 8.92904 34.9758 8.94935 35.0297C8.98685 35.1289 9.12435 35.2391 9.19622 35.2891C9.29231 35.3555 9.39231 35.3563 9.49778 35.393C9.60325 35.4297 9.70013 35.4758 9.80559 35.4992C9.91653 35.5242 9.99231 35.6633 10.0884 35.7484C10.1454 35.7984 10.2048 35.8586 10.254 35.9195C10.3283 36.0102 10.365 36.1578 10.4431 36.2414C10.4923 36.2938 10.572 36.2969 10.6243 36.3383C10.6642 36.3695 10.6845 36.4109 10.7283 36.4406C10.8447 36.518 10.9564 36.5813 11.0697 36.6703C11.2908 36.8445 11.5798 37.0063 11.8368 36.9945C12.0275 36.9859 12.222 36.9703 12.3954 36.8602C12.5853 36.7391 12.7681 36.507 12.8947 36.2945C13.0064 36.107 13.1079 35.9086 13.2165 35.718C13.3431 35.4953 13.4751 35.2758 13.5517 35.0133C13.6439 34.6992 13.6447 34.3555 13.6064 34.0195C13.5822 33.8078 13.5587 33.5227 13.4212 33.375C13.3431 33.2914 13.2626 33.1883 13.1743 33.1258C12.9822 32.9898 12.8033 32.8859 12.6501 32.6688C12.5704 32.5563 12.4993 32.4203 12.4415 32.2891" fill="#E0636D"/>
<path d="M14.3603 29.8057C14.9947 30.6174 15.7971 31.2971 16.7018 31.79C17.4025 32.1721 18.1596 32.4416 18.8736 32.7994C19.5869 33.1572 20.2752 33.6229 20.7096 34.2932C21.1447 34.9627 21.2799 35.8697 20.8846 36.5635C20.3611 37.4822 19.0986 37.7307 18.0775 37.4588C17.0564 37.1861 15.9119 36.8221 15.2971 35.9619C14.3721 34.6658 12.5033 34.3986 10.8533 34.1057C10.2338 33.9955 9.61348 33.8502 9.04082 33.59C8.46816 33.3299 7.9416 32.8893 7.74707 32.2908" fill="#FF808F"/>
<path d="M15.4368 15.1978C18.186 17.3298 19.5524 20.8321 18.9079 24.0931C18.7431 24.9267 18.4353 25.7751 17.779 26.3837C17.2235 26.8978 16.4673 27.1938 15.7024 27.3759C13.9774 27.7853 12.111 27.6587 10.4892 27.0212C8.86728 26.3837 4.40791 22.7087 3.57666 21.2954" fill="#FEDAC2"/>
<path d="M8.30089 22.3085C10.2064 20.4124 13.3798 20.7757 15.3423 18.9421C15.79 18.5241 16.6259 18.6734 17.0775 18.2601C17.5282 17.8468 17.6634 16.8734 18.2376 17.0734C17.5439 15.6991 16.2689 14.689 14.8587 14.1374C13.4486 13.5859 11.9087 13.4624 10.404 13.5546C9.39465 13.6163 8.37902 13.7765 7.45246 14.1874C5.7673 14.9351 4.50558 16.4663 3.70793 18.1616C3.0548 19.5491 2.67355 21.107 2.85246 22.639C3.03136 24.171 3.82355 25.6687 5.11261 26.4702C6.40089 27.2726 8.18839 27.257 9.33527 26.2616" fill="#231F20"/>
<path d="M9.29073 22.8214C8.77823 22.5112 8.19541 22.1886 7.61182 22.3261C7.06807 22.4542 6.67979 22.9737 6.56729 23.5206C6.3876 24.3956 6.86495 25.3636 7.66963 25.7526C8.47432 26.1417 9.52901 25.9151 10.1032 25.2308" fill="#FEDAC2"/>
<path d="M7.58616 23.7446C7.63069 23.5743 7.73772 23.4126 7.89787 23.3399C8.01819 23.2852 8.15803 23.286 8.28537 23.3204C8.41272 23.3548 8.52912 23.422 8.63771 23.497C8.75803 23.5798 8.87209 23.6751 8.96115 23.7907C9.051 23.9063 9.11506 24.0438 9.12912 24.1899C8.97053 24.0938 8.81116 23.997 8.64084 23.9243C8.47053 23.8516 8.28693 23.8024 8.101 23.8055C8.00881 23.8071 7.91428 23.8227 7.83772 23.8735C7.76115 23.9243 7.70647 24.0157 7.72053 24.1071C7.72443 24.1345 7.73459 24.161 7.73537 24.1884C7.73615 24.2477 7.68615 24.3095 7.62444 24.3087C7.5674 24.3087 7.5674 24.2579 7.56428 24.2126C7.55256 24.0556 7.54553 23.8985 7.58616 23.7446Z" fill="#FAB998"/>
<path d="M14.0524 38.0457C14.5813 37.5574 15.1978 37.0356 15.9165 37.0848C16.3259 37.1129 16.697 37.3262 17.0439 37.5457C18.4595 38.4387 19.7603 39.5121 20.9064 40.7316C21.1024 40.9402 21.297 41.2723 21.1024 41.4816C20.9587 41.6356 20.7087 41.5918 20.5056 41.5348C19.1376 41.1551 17.7696 40.7754 16.4024 40.3965C15.8032 40.2301 15.1978 40.0629 14.5767 40.0356C13.9556 40.0082 13.3079 40.1316 12.8071 40.5004" fill="#FEDAC2"/>
<path d="M0.493137 38.0055C0.0173554 38.925 0.0962634 40.0773 0.58767 40.989C1.07829 41.9008 1.94236 42.5781 2.90251 42.9648C3.86267 43.3515 4.9158 43.4648 5.95017 43.4304C6.98455 43.3961 8.00876 43.2179 9.02907 43.0406C10.0994 42.8547 11.1697 42.668 12.2408 42.482C13.1127 42.3305 14.026 42.1609 14.7181 41.6086C15.4392 41.0328 15.822 40.0609 15.6869 39.1484C15.5517 38.2359 14.9033 37.4164 14.0455 37.0758C13.3697 36.807 12.6174 36.8265 11.9033 36.6906C11.1486 36.5469 10.4361 36.2289 9.68142 36.0851C8.32283 35.825 6.94782 36.1398 5.60642 36.3515C4.42751 36.5375 3.11423 36.3476 1.97829 36.7344C1.34783 36.9484 0.800951 37.4148 0.494701 38.0062L0.493137 38.0055Z" fill="#3A3A3A"/>
<path d="M17.5815 19.2314C17.5815 19.2314 17.0635 18.9642 16.7658 19.4658C16.7658 19.4658 16.4908 18.9814 17.0346 18.8658C17.5783 18.7494 17.5815 19.2314 17.5815 19.2314Z" fill="#231F20"/>
<path d="M17.3979 20.6883C17.5198 20.9821 17.7221 21.1766 17.851 21.1243C17.9799 21.0704 17.9854 20.7891 17.8635 20.4961C17.7417 20.2024 17.5393 20.0079 17.4104 20.061C17.2815 20.1141 17.2768 20.3954 17.3979 20.6891V20.6883Z" fill="#3A1A0F"/>
<path d="M17.5719 20.3555C17.6157 20.4414 17.6821 20.4953 17.7196 20.4758C17.7571 20.4562 17.7516 20.3719 17.7078 20.2859C17.6641 20.2 17.5977 20.1461 17.5602 20.1656C17.5219 20.1852 17.5282 20.2703 17.5719 20.3555Z" fill="white"/>
<path d="M16.6485 22.6817C16.6485 22.6817 16.6633 22.652 16.6922 22.6013C16.7204 22.5513 16.7657 22.481 16.8313 22.4114C16.8633 22.3778 16.904 22.345 16.9485 22.3278C16.9938 22.3106 17.0407 22.3138 17.0868 22.3364C17.0977 22.3427 17.1086 22.3513 17.1196 22.3591C17.1235 22.3614 17.1344 22.3692 17.1329 22.3677L17.1493 22.3849L17.1836 22.4192L17.2063 22.4528C17.2383 22.4974 17.261 22.5575 17.2758 22.6153C17.2891 22.6747 17.2985 22.7364 17.2961 22.7981C17.2961 22.8286 17.2946 22.8591 17.2899 22.8888C17.2875 22.9192 17.2805 22.9481 17.2735 22.977C17.2594 23.0333 17.2399 23.0872 17.2157 23.1349C17.2055 23.1599 17.1899 23.181 17.1758 23.202C17.1633 23.2247 17.1477 23.2435 17.1313 23.2606C17.1016 23.2981 17.0665 23.3239 17.0368 23.3505C17.004 23.3716 16.9743 23.3903 16.9493 23.4036C16.8969 23.4255 16.8649 23.4395 16.8649 23.4395C16.8649 23.4395 16.8977 23.4349 16.9563 23.4224C16.9844 23.4138 17.018 23.3997 17.0571 23.3833C17.0922 23.3614 17.136 23.3403 17.1735 23.3028C17.1938 23.2856 17.2133 23.2669 17.2305 23.2442C17.2493 23.2224 17.268 23.1997 17.2829 23.1731C17.3157 23.1224 17.3438 23.0645 17.3618 23.0013C17.3719 22.97 17.3813 22.938 17.3852 22.9036C17.3922 22.8708 17.3961 22.8364 17.3961 22.8013C17.4001 22.7317 17.3915 22.6606 17.3766 22.5911C17.3571 22.5216 17.3321 22.4552 17.2868 22.3935C17.2758 22.3786 17.2641 22.3622 17.2524 22.3481L17.2165 22.3153L17.1985 22.2989C17.1844 22.288 17.1813 22.288 17.1719 22.2817C17.1563 22.2724 17.1415 22.263 17.125 22.2544C17.0579 22.2224 16.975 22.227 16.9165 22.2575C16.8563 22.2864 16.8165 22.3317 16.7852 22.3731C16.7227 22.4575 16.6938 22.538 16.6735 22.5927C16.654 22.6481 16.6477 22.681 16.6477 22.681L16.6485 22.6817Z" fill="#AC1F24"/>
<path d="M13.4805 20.7672C13.4805 20.7672 12.9297 20.1586 12.325 20.5273C11.7203 20.8969 11.9492 21.5555 11.9492 21.5555C11.9492 21.5555 12.1656 20.393 13.4797 20.7672H13.4805Z" fill="#231F20"/>
<path d="M13.1345 22.1828C13.2556 22.4765 13.4587 22.671 13.5876 22.6179C13.7165 22.564 13.722 22.2835 13.6001 21.9898C13.4783 21.696 13.2759 21.5015 13.147 21.5546C13.0189 21.6078 13.0126 21.889 13.1345 22.1828Z" fill="#3A1A0F"/>
<path d="M13.3087 21.8491C13.3525 21.9351 13.4189 21.989 13.4564 21.9694C13.4939 21.9499 13.4884 21.8647 13.4447 21.7796C13.4009 21.6936 13.3345 21.6397 13.297 21.6593C13.2587 21.6788 13.265 21.764 13.3087 21.8491Z" fill="white"/>
<path d="M15.7407 26.2752C15.7563 26.4166 15.7961 26.583 15.9297 26.6322C16.0696 26.6838 16.2133 26.5713 16.3118 26.4588C16.6493 26.0713 16.8633 25.5791 16.9211 25.069C16.9579 24.7487 17.0204 23.9932 16.5836 23.9205C16.2618 23.8666 15.9219 24.2213 15.8157 24.4877C15.6102 25.001 15.6813 25.7385 15.7415 26.2752H15.7407Z" fill="#3A1A0F"/>
<mask id="mask6_1566_18284" style="mask-type:luminance" maskUnits="userSpaceOnUse" x="15" y="23" width="2" height="4">
<path d="M15.7407 26.2742C15.7563 26.4156 15.7961 26.5821 15.9297 26.6313C16.0696 26.6828 16.2133 26.5703 16.3118 26.4578C16.6493 26.0703 16.8633 25.5781 16.9211 25.068C16.9579 24.7477 17.0204 23.9922 16.5836 23.9195C16.2618 23.8656 15.9219 24.2203 15.8157 24.4867C15.6102 25 15.6813 25.7375 15.7415 26.2742H15.7407Z" fill="white"/>
</mask>
<g mask="url(#mask6_1566_18284)">
<path d="M15.1915 26.6823C15.204 26.7565 15.2454 26.8424 15.4118 26.8612C15.5861 26.8807 15.7751 26.8135 15.9056 26.7487C16.3548 26.5244 16.6533 26.2518 16.7548 25.9776C16.8181 25.8057 16.9392 25.401 16.3892 25.3862C15.9837 25.3752 15.5337 25.5815 15.3837 25.7291C15.0947 26.0127 15.1447 26.4002 15.1915 26.6823Z" fill="#AC1F24"/>
</g>
<path d="M30.597 8.70564L30.5822 9.07517C30.5822 9.09314 30.5689 9.1072 30.551 9.11033L30.4385 9.13064C30.4174 9.13455 30.397 9.1197 30.3947 9.09861C30.3947 9.09392 30.3939 9.09236 30.3939 9.09236C30.3783 8.97595 30.29 8.90252 30.1244 8.9322C29.8494 8.9822 29.69 9.24392 29.7174 9.5447C29.7455 9.85564 29.9916 9.9947 30.2877 9.94158C30.4392 9.91424 30.5549 9.86345 30.6181 9.82986C30.6431 9.81658 30.6736 9.83533 30.6736 9.86345L30.672 10.0533C30.672 10.0697 30.6627 10.0845 30.6486 10.0916C30.5916 10.122 30.4291 10.1978 30.1681 10.2455C29.5486 10.3572 29.233 10.0463 29.2056 9.67595C29.1822 9.34627 29.3103 8.83064 30.1541 8.6783C30.3158 8.64939 30.4494 8.65174 30.5564 8.66111C30.5799 8.66345 30.597 8.68299 30.5963 8.70642L30.597 8.70564ZM27.0642 9.2908L27.0603 9.38689C27.0595 9.40877 27.0752 9.42674 27.097 9.42908C27.1353 9.43611 27.1494 9.46892 27.1228 9.50017L26.6822 10.0244L26.6978 9.60252C26.7017 9.53767 26.747 9.50252 26.776 9.48689C26.7775 9.48611 26.7791 9.48533 26.7806 9.48455C26.7939 9.47752 26.8017 9.46424 26.8025 9.45017L26.8064 9.35017C26.8072 9.32674 26.7861 9.30799 26.7627 9.31189L26.0939 9.4322C26.0752 9.43533 26.0611 9.45174 26.0603 9.47049L26.0564 9.57205C26.0556 9.59236 26.0705 9.61033 26.0908 9.61345C26.0947 9.61345 26.0978 9.61424 26.0978 9.61424C26.1424 9.62283 26.1978 9.65095 26.1947 9.75252L26.1666 10.5111C26.1611 10.7181 26.1009 10.7705 26.0377 10.79C26.0377 10.79 26.0361 10.79 26.0353 10.79C26.0181 10.7947 26.0064 10.8103 26.0056 10.8275L26.0017 10.9244C26.0009 10.9494 26.0236 10.9689 26.0478 10.9642L26.7509 10.8377C26.7681 10.8345 26.7806 10.8197 26.7814 10.8025L26.7861 10.6885C26.7861 10.6697 26.7736 10.6533 26.7556 10.6502C26.7541 10.6502 26.7525 10.6502 26.7509 10.6494C26.7127 10.6416 26.6588 10.6197 26.6603 10.5595L26.6744 10.172C27.0463 10.633 27.1658 10.7635 27.5017 10.7033L27.8049 10.6486C27.822 10.6455 27.8345 10.6306 27.8353 10.6135L27.8392 10.515C27.84 10.49 27.8181 10.4697 27.7931 10.4736C27.7174 10.4861 27.6767 10.4752 27.5838 10.3916L27.0994 9.93455L27.5299 9.42205C27.5884 9.35642 27.6681 9.32674 27.7135 9.31267C27.7135 9.31267 27.715 9.31267 27.7181 9.31111C27.7338 9.30642 27.7455 9.29314 27.7455 9.27595L27.7494 9.1783C27.7502 9.15408 27.7291 9.13533 27.7049 9.14002L27.0963 9.25017C27.0775 9.2533 27.0634 9.2697 27.0627 9.28845L27.0642 9.2908ZM29.0095 9.35877L29.1283 9.33767C29.1455 9.33455 29.1588 9.3197 29.1588 9.30252L29.1736 8.92517C29.1744 8.90095 29.1533 8.8822 29.1291 8.88689L27.8838 9.11111C27.865 9.11424 27.851 9.13064 27.8502 9.15017L27.8463 9.25095C27.8455 9.27049 27.8595 9.28767 27.8791 9.2908C27.8806 9.2908 27.8822 9.2908 27.8838 9.2908C27.9275 9.29939 27.9916 9.3283 27.9845 9.43064L27.94 10.5799C27.9392 10.6041 27.9603 10.622 27.9838 10.6181L28.5439 10.5174C28.5611 10.5142 28.5736 10.4994 28.5744 10.4822L28.5791 10.3674C28.5791 10.3502 28.5681 10.3353 28.5517 10.3314C28.5494 10.3314 28.5478 10.3306 28.5455 10.3299C28.5072 10.3189 28.447 10.2885 28.4502 10.208C28.4502 10.197 28.4595 9.94783 28.4595 9.94783L28.9361 9.86189C28.9533 9.85877 28.9666 9.84392 28.9666 9.82674L28.9752 9.61658C28.9759 9.59236 28.9549 9.57361 28.9306 9.5783L28.4705 9.66111L28.4861 9.25408L28.8072 9.19549C28.9111 9.17674 28.9525 9.22517 28.9635 9.31892C28.9635 9.31892 28.9635 9.32049 28.9635 9.32361C28.965 9.34627 28.9853 9.36189 29.008 9.35799L29.0095 9.35877Z" fill="#EA0029"/>
</g>
</svg>
