<svg width="40" height="40" viewBox="0 0 40 40" fill="none" xmlns="http://www.w3.org/2000/svg">
<mask id="mask0_1566_17851" style="mask-type:luminance" maskUnits="userSpaceOnUse" x="0" y="0" width="40" height="40">
<path d="M20 40C31.0457 40 40 31.0457 40 20C40 8.9543 31.0457 0 20 0C8.95431 0 0 8.9543 0 20C0 31.0457 8.95431 40 20 40Z" fill="white"/>
</mask>
<g mask="url(#mask0_1566_17851)">
<path d="M20 40C31.0457 40 40 31.0457 40 20C40 8.9543 31.0457 0 20 0C8.95431 0 0 8.9543 0 20C0 31.0457 8.95431 40 20 40Z" fill="#EA0029"/>
<path d="M14.2094 17.162C17.2897 17.162 19.7868 14.6649 19.7868 11.5847C19.7868 8.50439 17.2897 6.00732 14.2094 6.00732C11.1291 6.00732 8.63208 8.50439 8.63208 11.5847C8.63208 14.6649 11.1291 17.162 14.2094 17.162Z" fill="#F6A2A4"/>
<path d="M12.339 12.3828C19.9101 12.4102 28.8828 9.36328 36.421 9.99688C49.7749 11.1195 55.3078 12.6281 68.6617 13.75C70.7562 13.9258 79.5007 17.5492 80.7492 19.4727C81.7359 20.993 81.7304 23.0805 81.639 25.0039C81.1156 36.0352 78.7328 47.8227 71.5968 55.3492C65.3046 61.9852 56.396 64.1148 47.9843 64.2398C18.6273 64.6773 -7.84224 44.4664 -37.0282 41.6141C-40.5563 41.2695 -44.443 41.0211 -46.9477 38.1836C-49.5141 35.2758 -49.7524 30.6313 -49.8352 26.4266C-49.9141 22.4211 -51.3157 15.4828 -48.229 12.3906C-45.2665 9.42344 -40.7719 11.4406 -37.5024 12.0617C-27.0071 14.0531 -16.2602 13.568 -5.62818 13.018C0.278854 12.7125 6.45073 11.8906 12.3398 12.3828H12.339Z" fill="#FCE4E6"/>
<path d="M-20.5226 9.48547C-22.6359 9.25891 -24.7999 9.03235 -26.8414 9.28625C-28.8828 9.53938 -30.8101 10.3753 -31.3273 11.6753C-32.0453 13.4769 -29.7664 15.4847 -27.025 16.3222C-24.2843 17.1597 -21.2343 17.1323 -18.3101 17.1175C-15.3859 17.1027 -12.3062 17.1417 -9.63588 18.0839C-9.12963 19.655 -10.9843 21.087 -13.2351 21.5652C-15.4867 22.0433 -18.021 21.8034 -20.4531 21.5589C-30.3843 20.5613 -40.3156 19.5636 -50.2468 18.5652C-49.3515 21.1355 -45.1531 22.7042 -41.3703 23.7534C-29.796 26.9652 -17.5093 28.862 -5.28276 29.3245C-5.47338 30.7777 -7.4187 31.8355 -9.56713 32.1902C-11.7156 32.5448 -14.0499 32.337 -16.3179 32.1277C-22.2812 31.5769 -28.2437 31.0253 -34.207 30.4745C-34.557 31.3269 -33.7281 32.3003 -32.5781 32.8738C-31.4281 33.4472 -30.0171 33.7097 -28.6492 33.9581C-11.5359 37.0683 8.59458 36.8019 25.7079 39.912C28.1383 40.3534 34.229 41.7417 36.6594 42.1839C37.8212 42.3949 38.4555 43.1956 39.5532 42.7511C45.6282 40.2941 40.7969 43.612 42.7563 43.7909C52.0618 44.6386 57.9547 47.548 67.2602 48.3964C68.2618 46.4777 65.4391 43.9792 62.2337 43.9464C71.2524 44.9081 80.2735 45.8706 89.3141 46.587C92.2993 46.8238 95.4352 47.0206 98.0805 46.2722C100.726 45.5238 102.616 43.4964 101.418 41.6589C95.0485 40.9753 88.9899 38.3277 85.4587 34.6855C87.3219 34.8378 89.2594 34.9855 90.9673 34.598C92.6751 34.2105 94.0704 33.1159 93.7016 31.9136C93.3399 30.7347 91.4508 29.9034 89.6352 29.6706C87.8196 29.4378 86.0071 29.648 84.1954 29.6972C79.0993 29.8355 73.7672 28.6363 69.6407 26.4238C66.0696 24.5089 63.4047 21.8948 59.5563 20.2378C56.0297 18.7191 51.854 18.1503 47.8063 17.6152C25.0243 14.605 2.34068 11.9363 -20.521 9.48625L-20.5226 9.48547Z" fill="white"/>
<path d="M-27.6321 16.3841C0.379641 10.3076 35.9218 13.9333 62.8797 23.4622C65.8492 24.5544 68.7789 25.7654 71.6179 27.1615C43.5836 15.2544 2.32652 10.9162 -27.6321 16.3841Z" fill="#C12026"/>
<path d="M-13.4719 39.8603C-10.6055 38.7213 -7.53911 38.0892 -4.49067 37.6877C7.78667 36.2595 20.2843 37.2119 32.3726 39.6783C38.4234 40.922 44.3234 42.7673 50.2195 44.572C53.1586 45.4963 56.1109 46.3752 59.064 47.2564C56.0664 46.54 53.0914 45.7314 50.1156 44.9275C41.2468 42.3791 32.3039 40.0259 23.1382 38.8564C17.0507 38.0423 10.8984 37.6595 4.7562 37.6252C-1.36646 37.6798 -7.6102 37.9228 -13.4719 39.8611V39.8603Z" fill="#C12026"/>
<path d="M25.9546 39.5023C25.682 38.5273 25.296 37.5531 24.5984 36.8195C23.9007 36.0859 22.8351 35.6359 21.8562 35.8953C22.8171 35.6633 23.8664 35.8227 24.7148 36.3297C25.5632 36.8367 26.2007 37.6859 26.4507 38.6422C26.3453 37.5953 26.2398 36.5492 26.1343 35.5023C26.071 34.8773 26.0132 34.2211 26.2625 33.6445C26.1117 34.5281 26.4812 35.4062 26.7742 36.2539C27.0671 37.1016 27.2781 38.0766 26.8468 38.8625C27.2468 37.1711 28.396 35.6719 29.9249 34.8469C29.0101 35.8102 28.396 37.0555 28.1882 38.368C28.5304 37.8102 29.2117 37.4797 29.8617 37.5563C29.4507 37.568 29.1382 37.9313 28.9546 38.2992C28.771 38.6672 28.6507 39.0805 28.3617 39.3727C27.9765 39.7633 27.3632 39.8492 26.8281 39.7297C26.2929 39.6102 26.421 39.7938 25.9562 39.5031" fill="#AC1F24"/>
<path d="M44.1731 13.6838L28.9912 11.4717L28.3213 16.0692L43.5032 18.2813L44.1731 13.6838Z" fill="#F6A2A4"/>
<path d="M30.511 12.8475C30.504 12.9615 30.486 13.0733 30.4704 13.1865C30.4485 13.3428 30.4251 13.4912 30.3728 13.6412C30.3423 13.7287 30.3118 13.8139 30.3064 13.9076C30.3048 13.9319 30.3017 13.9483 30.3212 13.9662C30.3493 13.9905 30.397 13.9889 30.4314 13.9936C30.5595 14.0115 30.6876 14.0303 30.8157 14.049C30.9626 14.0701 31.1087 14.0858 31.2509 14.128C31.3228 14.1498 31.3931 14.1764 31.4673 14.1912C31.5189 14.2014 31.5689 14.2123 31.6212 14.2014C31.6579 14.1936 31.6915 14.1834 31.7212 14.1584C31.7462 14.1248 31.7673 14.0897 31.7853 14.0514C31.7939 14.0311 31.8025 14.0108 31.8103 13.9905C31.8228 13.9381 31.8321 13.885 31.8384 13.8319C31.8478 13.7639 31.8564 13.6959 31.8657 13.628C31.8728 13.5514 31.8876 13.4772 31.9095 13.4045C31.9189 13.3553 31.9368 13.3092 31.9634 13.267C31.9923 13.2092 32.0407 13.1381 32.0353 13.0709C32.0126 13.0647 32.0173 13.0709 31.986 13.0545C31.9337 13.028 31.8853 13.0053 31.8282 12.9873C31.7431 12.967 31.6564 12.9506 31.5696 12.9381C31.4861 12.924 31.4025 12.9115 31.3181 12.9006C31.1962 12.8834 31.0751 12.8655 30.9532 12.8475C30.8345 12.8303 30.7157 12.8131 30.5095 12.8475H30.511Z" fill="#A11E21"/>
<path d="M28.7203 11.6327C28.4328 11.8491 27.8352 11.6585 27.5102 11.621C27.2188 11.4093 27.5055 10.9514 27.7844 10.7241C28.1024 10.4647 28.7086 10.0647 29.0477 9.86081C30.0907 9.23503 30.3493 8.60691 31.5375 8.34909C32.7899 8.07644 34.0914 8.24206 35.3625 8.40847C38.0047 8.75456 40.6461 9.10066 43.2883 9.44675C43.1758 10.1444 43.0188 10.846 42.6907 11.4717C42.3625 12.0975 41.8438 12.6483 41.1797 12.8905C39.8235 13.3858 38.3555 12.5116 36.9125 12.546C36.1664 12.5639 35.443 12.3991 34.7071 12.5257C33.9719 12.6522 31.018 12.0538 28.7203 11.6319" fill="#CB2027"/>
<mask id="mask1_1566_17851" style="mask-type:luminance" maskUnits="userSpaceOnUse" x="27" y="8" width="17" height="6">
<path d="M28.7203 11.6327C28.4328 11.8491 27.8352 11.6585 27.5102 11.621C27.2188 11.4093 27.5055 10.9514 27.7844 10.7241C28.1024 10.4647 28.7086 10.0647 29.0477 9.86081C30.0907 9.23503 30.3493 8.60691 31.5375 8.34909C32.7899 8.07644 34.0914 8.24206 35.3625 8.40847C38.0047 8.75456 40.6461 9.10066 43.2883 9.44675C43.1758 10.1444 43.0188 10.846 42.6907 11.4717C42.3625 12.0975 41.8438 12.6483 41.1797 12.8905C39.8235 13.3858 38.3555 12.5116 36.9125 12.546C36.1664 12.5639 35.443 12.3991 34.7071 12.5257C33.9719 12.6522 31.018 12.0538 28.7203 11.6319" fill="white"/>
</mask>
<g mask="url(#mask1_1566_17851)">
<path d="M31.5968 8.63353C30.6976 9.51478 29.8421 10.4406 29.0343 11.407C28.9999 11.4484 29.0593 11.5078 29.0937 11.4663C29.9015 10.4999 30.7569 9.57494 31.6562 8.69291C31.6944 8.65541 31.6358 8.59603 31.5968 8.63353Z" fill="#A11E21"/>
<path d="M33.335 8.68057C32.6201 9.02979 31.949 9.46417 31.3381 9.97432C31.0295 10.2321 30.7365 10.5095 30.4623 10.8032C30.2084 11.0751 29.935 11.361 29.81 11.7189C29.792 11.7696 29.8732 11.7915 29.8904 11.7415C30.0217 11.3649 30.331 11.061 30.6014 10.7782C30.8615 10.5064 31.1373 10.2493 31.4271 10.0095C32.024 9.51495 32.6803 9.09385 33.3771 8.75401C33.4256 8.73057 33.3834 8.65792 33.335 8.68135V8.68057Z" fill="#A11E21"/>
<path d="M32.7813 8.70247C31.7548 9.45169 30.5141 9.95403 29.7219 10.9868C29.6891 11.0298 29.7618 11.0712 29.7946 11.029C30.5766 10.0103 31.8118 9.51419 32.8243 8.77512C32.8672 8.74387 32.8258 8.67122 32.7821 8.70247H32.7813Z" fill="#A11E21"/>
<path d="M34.2398 9.40722C32.9883 10.2767 31.7211 11.1236 30.4398 11.9486C30.3945 11.9775 30.4367 12.0502 30.482 12.0213C31.7633 11.1963 33.0305 10.3494 34.282 9.47987C34.3258 9.4494 34.2844 9.37675 34.2398 9.40722Z" fill="#A11E21"/>
<path d="M33.0139 9.4921C32.0811 10.3187 31.1092 11.1991 30.6764 12.403C30.6585 12.4538 30.7389 12.4757 30.7569 12.4257C31.1842 11.2374 32.1522 10.3679 33.0725 9.55148C33.1131 9.51554 33.0538 9.45616 33.0131 9.4921H33.0139Z" fill="#A11E21"/>
<path d="M34.9156 10.4806C34.225 11.4415 33.114 11.9571 32.0679 12.4352C32.0187 12.4579 32.0617 12.5298 32.1101 12.5079C33.1718 12.0227 34.2867 11.4985 34.9882 10.5235C35.0195 10.4798 34.9468 10.4376 34.9156 10.4813V10.4806Z" fill="#A11E21"/>
<path d="M34.8623 9.70411C34.0733 10.5635 33.1108 11.2408 32.1842 11.9416C32.142 11.9736 32.1842 12.0463 32.2264 12.0143C33.1577 11.3096 34.128 10.6283 34.9217 9.76349C34.9584 9.72364 34.8991 9.66427 34.8623 9.70411Z" fill="#A11E21"/>
<path d="M34.7624 9.06241C34.1639 10.0179 33.4757 10.914 32.7061 11.7374C32.6694 11.7765 32.7288 11.8359 32.7655 11.7968C33.5397 10.9679 34.2335 10.0663 34.835 9.1046C34.8639 9.05851 34.7913 9.01632 34.7624 9.06241Z" fill="#A11E21"/>
<path d="M36.6578 9.16855C36.2007 9.8037 35.7437 10.4396 35.2851 11.074C35.0578 11.3881 34.8304 11.7014 34.6023 12.0146C34.4007 12.2912 34.2046 12.6623 33.8828 12.8131C33.8343 12.8357 33.8765 12.9084 33.925 12.8857C34.225 12.7451 34.4062 12.4256 34.5937 12.1678C34.8312 11.8428 35.0679 11.5162 35.3039 11.1904C35.7804 10.5318 36.2554 9.87167 36.7296 9.21152C36.7609 9.16777 36.6882 9.12558 36.657 9.16933L36.6578 9.16855Z" fill="#A11E21"/>
<path d="M38.3256 9.06992C37.5319 10.323 36.2936 11.1785 35.1053 12.023C34.7576 12.2699 34.4108 12.5191 34.074 12.7816C34.0319 12.8145 34.0912 12.8738 34.1334 12.841C35.3217 11.9168 36.649 11.152 37.6803 10.0395C37.9467 9.75196 38.1889 9.44414 38.3983 9.11289C38.4272 9.06758 38.3545 9.02539 38.3256 9.07071V9.06992Z" fill="#A11E21"/>
<path d="M36.8295 10.2538C36.1998 11.2991 35.1529 12.021 34.5748 13.103C34.549 13.1507 34.6217 13.1929 34.6474 13.1452C35.2256 12.064 36.2732 11.3413 36.9021 10.296C36.9303 10.2499 36.8576 10.2077 36.8295 10.2538Z" fill="#A11E21"/>
<path d="M37.2031 8.99451C36.2773 9.95311 35.4719 11.0265 34.8148 12.1859C34.6273 12.5172 34.4516 12.8547 34.2883 13.1984C34.2649 13.2469 34.3375 13.2898 34.3609 13.2406C35.0953 11.6984 36.0766 10.282 37.2633 9.05311C37.3008 9.01405 37.2414 8.95467 37.2039 8.99373L37.2031 8.99451Z" fill="#A11E21"/>
<path d="M40.2967 9.58031C40.1577 9.94749 39.8827 10.2319 39.6085 10.503C39.3194 10.7881 39.0225 11.0662 38.7186 11.3366C38.1139 11.8748 37.478 12.3686 36.8335 12.8576C36.4913 13.117 36.1561 13.3881 35.8678 13.7084C35.8319 13.7483 35.8913 13.8076 35.9272 13.7678C36.4647 13.1709 37.1569 12.7358 37.7803 12.2373C38.4327 11.717 39.0577 11.1623 39.6522 10.5772C39.9436 10.2905 40.2303 9.99124 40.3772 9.60218C40.396 9.5514 40.3155 9.52952 40.2967 9.57952V9.58031Z" fill="#A11E21"/>
<path d="M38.7405 9.63504C38.2702 11.003 37.3694 12.1569 36.485 13.2804C36.4522 13.3225 36.5108 13.3819 36.5444 13.3397C37.4381 12.2046 38.3459 11.0405 38.8217 9.6577C38.8389 9.60691 38.7584 9.58426 38.7413 9.63504H38.7405Z" fill="#A11E21"/>
<path d="M40.6546 9.59962C40.2186 10.9582 39.1499 11.9566 38.1311 12.8981C38.0913 12.9348 38.1506 12.9941 38.1905 12.9574C39.221 12.0059 40.2944 10.9957 40.7358 9.62227C40.7522 9.57071 40.6717 9.54883 40.6553 9.59962H40.6546Z" fill="#A11E21"/>
<path d="M40.8843 9.51856C40.6648 10.8162 40.0171 12.0264 39.0671 12.9357C38.7968 13.1943 38.5039 13.4264 38.1906 13.6303C38.1453 13.66 38.1875 13.7318 38.2328 13.7029C39.3453 12.9779 40.2046 11.8928 40.6687 10.649C40.8023 10.2897 40.9015 9.91934 40.9648 9.54121C40.9734 9.48809 40.8929 9.46543 40.8843 9.51856Z" fill="#A11E21"/>
<path d="M38.3748 9.39003C37.4873 10.5627 36.442 11.6127 35.2741 12.5064C35.2319 12.5385 35.2741 12.6119 35.3162 12.5791C36.4967 11.676 37.5498 10.6174 38.4475 9.43222C38.4803 9.38925 38.4077 9.34706 38.3748 9.39003Z" fill="#A11E21"/>
<path d="M39.0071 9.76017C37.7258 10.9141 36.5868 12.2195 35.6164 13.6453C35.586 13.6899 35.6586 13.732 35.6891 13.6875C36.6547 12.268 37.7907 10.968 39.0664 9.81954C39.1063 9.78361 39.0469 9.72423 39.0071 9.76017Z" fill="#A11E21"/>
<path d="M36.2685 9.08126C35.2256 10.3758 34.0678 11.5758 32.8107 12.6641C32.7701 12.6992 32.8295 12.7586 32.8701 12.7234C34.1271 11.6352 35.285 10.4352 36.3279 9.14063C36.3615 9.09923 36.3021 9.03907 36.2685 9.08126Z" fill="#A11E21"/>
<path d="M31.282 9.29019C30.4938 10.0738 29.6953 10.8644 28.7313 11.4324C28.6852 11.4597 28.7266 11.5324 28.7735 11.505C29.743 10.9332 30.5477 10.1386 31.3406 9.34957C31.3789 9.31129 31.3195 9.25191 31.2813 9.29019H31.282Z" fill="#A11E21"/>
<path d="M30.7093 9.36533C29.9125 10.0271 29.0265 10.5755 28.0796 10.9966C28.0304 11.0185 28.0734 11.0903 28.1218 11.0692C29.0757 10.645 29.9656 10.0911 30.7687 9.42471C30.8101 9.39033 30.7507 9.33096 30.7093 9.36533Z" fill="#A11E21"/>
</g>
<path d="M25.7305 9.48418C25.6258 10.2006 25.5336 10.9209 25.4204 11.6365C25.3469 12.1021 25.2438 12.5686 25.1454 13.0287C25.0469 13.4889 24.9336 13.917 24.7821 14.3357C24.7407 14.4357 24.704 14.5373 24.6704 14.642C24.6563 14.7045 24.6391 14.7662 24.618 14.8256C24.5985 14.8764 24.5821 14.9186 24.5696 14.9709C24.5563 15.0248 24.5415 15.0771 24.5086 15.1209C24.493 15.142 24.4313 15.1764 24.4438 15.2146C24.5118 15.2436 24.6055 15.2357 24.6766 15.2248C24.7149 15.2186 24.743 15.2193 24.7829 15.2248C24.8165 15.2287 24.8344 15.2303 24.861 15.2561C24.8883 15.2826 24.9024 15.3068 24.9336 15.3279C24.9719 15.3529 24.9946 15.3881 25.0274 15.4232C25.0805 15.4795 25.1454 15.4865 25.2024 15.5334C25.2571 15.5795 25.2688 15.6014 25.3336 15.6092C25.4375 15.6217 25.5399 15.6256 25.6461 15.6115C25.75 15.5975 25.8594 15.5553 25.9625 15.5678C26.0055 15.5732 26.0477 15.5826 26.0907 15.5881C26.193 15.6029 26.3055 15.6029 26.4032 15.6389C26.4422 15.6529 26.4813 15.6623 26.5211 15.6756C26.5688 15.699 26.6165 15.7232 26.6633 15.7498C26.6915 15.7631 26.7211 15.7709 26.7774 15.7678C26.7852 15.742 26.7844 15.7186 26.7751 15.6959C26.761 15.6771 26.7438 15.685 26.725 15.6826C26.6797 15.6756 26.6547 15.6342 26.6165 15.6053C26.5844 15.5803 26.5805 15.5693 26.5579 15.5311C26.5219 15.4717 26.4782 15.4279 26.4477 15.3607C26.4079 15.2732 26.3836 15.1896 26.3649 15.0881C26.3329 14.917 26.3071 14.7732 26.311 14.5904C26.3133 14.4576 26.2985 14.335 26.2876 14.2045C26.2727 14.0193 26.2852 13.8412 26.2985 13.6537C26.3141 13.4232 26.3079 13.1959 26.3297 12.9654C26.3516 12.735 26.3915 12.4975 26.4258 12.2631C26.4891 11.8318 26.5516 11.3998 26.6141 10.9686C26.7501 10.0334 26.8868 9.09824 27.0227 8.16309" fill="#6B0C12"/>
<path d="M22.7541 2.73682C22.5642 2.579 23.0728 2.60947 23.197 2.42041C23.2947 2.27119 23.365 2.10713 23.4634 1.95869C23.515 1.88057 23.572 1.76807 23.6572 1.7251C23.7306 1.77275 23.7775 1.86416 23.8291 1.93369C23.9111 2.04541 23.9994 2.15244 24.0728 2.27041C24.1689 2.42432 24.2642 2.52588 24.408 2.63369C24.547 2.73838 24.6478 2.89619 24.7916 3.0001C24.8392 3.02744 24.8869 3.05557 24.9345 3.08369C25.0213 3.15791 25.1033 3.23682 25.1814 3.31963C25.2884 3.42666 25.4549 3.54619 25.5306 3.68447C25.5744 3.76416 25.558 3.84463 25.5424 3.92979C25.5072 4.11572 25.4642 4.33447 25.3752 4.50322C25.3564 4.53916 25.2127 4.78525 25.3478 4.75322C25.3822 4.74463 25.4728 4.65713 25.5009 4.63604C25.5713 4.58291 25.6103 4.52041 25.7002 4.48916C25.7978 4.45557 25.9056 4.45244 26.0041 4.4165C26.0619 4.39541 26.183 4.29541 26.2455 4.32197C26.2986 4.34385 26.2736 4.37432 26.2838 4.42275C26.297 4.48604 26.3619 4.56025 26.3963 4.61182C26.4767 4.73213 26.5799 4.83057 26.6681 4.94463C26.7072 5.00322 26.7502 5.05869 26.7978 5.11103C26.8306 5.13447 26.8588 5.1626 26.8814 5.19541C26.9338 5.29619 26.9361 5.4165 26.9916 5.52119C27.0439 5.61963 27.0759 5.73369 27.1377 5.8251C27.1978 5.91416 27.2322 5.98838 27.2666 6.0915C27.2947 6.17588 27.3431 6.23135 27.3845 6.30635C27.4181 6.36729 27.4283 6.4376 27.4603 6.50166C27.4877 6.55635 27.5236 6.6251 27.5408 6.68213C27.5611 6.74932 27.5619 6.75869 27.522 6.81572C27.4728 6.88682 27.4205 6.97353 27.3611 7.03603C27.2752 7.12588 27.1205 7.26103 27.0017 7.31182C26.9681 7.31182 26.9361 7.31885 26.9064 7.33369C26.8892 7.354 26.872 7.37353 26.8541 7.39307C26.8088 7.43057 26.7416 7.43604 26.7174 7.49775C26.8752 7.55635 27.047 7.51729 27.2103 7.50947C27.2697 7.51494 27.3283 7.51182 27.3861 7.49854C27.4166 7.49854 27.4416 7.48603 27.4611 7.4626C27.5041 7.45088 27.5416 7.45166 27.5853 7.45869C27.6072 7.54697 27.5267 7.59229 27.4838 7.654C27.4275 7.73447 27.4408 7.82744 27.4252 7.92041C27.3994 8.0751 27.3431 8.23135 27.2697 8.37041C27.2463 8.41494 27.2025 8.45791 27.1822 8.50244C27.158 8.55635 27.1736 8.61729 27.147 8.67041C27.1205 8.72354 27.0924 8.72978 27.0705 8.78369C27.047 8.83994 27.0322 8.89932 27.0064 8.95635C26.9806 9.01338 26.9369 9.04619 26.9095 9.09619C26.8877 9.1376 26.8955 9.17275 26.8814 9.21338C26.865 9.26025 26.8314 9.26025 26.8009 9.29072C26.7728 9.31963 26.7822 9.31885 26.7611 9.35713C26.7338 9.40635 26.7814 9.40322 26.7017 9.41572C26.597 9.43213 26.458 9.37744 26.3541 9.3626C26.2236 9.34385 26.0939 9.32432 25.9634 9.30557C25.9025 9.29697 25.833 9.29619 25.7783 9.27197C25.8549 9.24229 25.8384 9.19385 25.8689 9.13135C25.9236 9.01807 25.9478 8.93213 25.9666 8.80166C25.9947 8.6126 26.0353 8.41885 26.0525 8.22822C26.0603 8.13994 26.033 8.13682 26.0166 8.06025C26.0025 7.99463 26.0017 7.89775 25.9924 7.83057C25.9845 7.77432 25.9986 7.72979 25.9955 7.67432C25.9916 7.60635 25.9658 7.53916 25.9588 7.47041C25.9455 7.3415 25.9213 7.23057 25.8869 7.10635C25.8447 6.95635 25.8619 6.80166 25.8384 6.64853C25.7822 6.27588 25.7025 5.9165 25.5213 5.58135C25.4603 5.46885 25.4236 5.3501 25.3697 5.23291C25.3056 5.09229 25.2283 4.95322 25.158 4.81572C25.0713 4.64619 24.9877 4.49697 24.8674 4.3501C24.7119 4.16104 24.5259 4.02197 24.3291 3.879C24.2978 3.85635 24.2744 3.8251 24.2463 3.80322C24.1955 3.76416 24.122 3.77588 24.0744 3.74072C24.0384 3.71416 24.0244 3.67119 23.9877 3.64307C23.9533 3.6165 23.9041 3.60479 23.8681 3.58057C23.7314 3.49072 23.5877 3.42666 23.4408 3.35244C23.4002 3.33135 23.3595 3.32588 23.3181 3.30869C23.2345 3.27432 23.1877 3.20869 23.1252 3.14932C23.0142 3.04385 22.8759 2.9501 22.7455 2.86885C22.7056 2.84385 22.6845 2.68057 22.7549 2.73916L22.7541 2.73682Z" fill="#83171D"/>
<path d="M26.4218 8.74072C26.3828 8.8165 26.3203 8.8501 26.2531 8.90244C26.1562 8.97666 26.0703 9.05947 25.982 9.14307C25.8992 9.22197 25.8125 9.30166 25.714 9.3251C25.6836 9.27275 25.6476 9.22432 25.6062 9.17979C25.5586 9.12041 25.5101 9.0626 25.4593 9.00635C25.3406 8.86963 25.2195 8.73447 25.0961 8.60166C24.9781 8.4751 24.8422 8.35713 24.7429 8.21572C24.6679 8.10869 24.6773 8.03135 24.682 7.90166C24.6867 7.78604 24.6757 7.65088 24.7242 7.54229C24.7437 7.49932 24.764 7.44932 24.8046 7.42432C24.8359 7.40557 24.8593 7.39854 24.8843 7.36885C24.9047 7.34463 24.9109 7.31338 24.9304 7.2915C24.8437 7.34463 24.7445 7.38135 24.6546 7.42744C24.557 7.47744 24.4672 7.53916 24.3867 7.61338C24.3687 7.62979 24.3515 7.65791 24.3234 7.65635C24.2851 7.654 24.1992 7.54697 24.1781 7.52822C24.0929 7.454 23.9906 7.39229 23.8914 7.33994C23.7523 7.2665 23.5992 7.22744 23.4593 7.15166C23.3992 7.11963 23.3406 7.08604 23.2781 7.05869C23.2601 7.05088 23.2289 7.04854 23.2203 7.02588C23.2132 7.00713 23.275 6.83135 23.2711 6.84854C23.2968 6.73291 23.2937 6.61729 23.2992 6.5001C23.3031 6.42119 23.3101 6.34229 23.3172 6.26338C23.3195 6.23447 23.3422 6.17666 23.3289 6.15244C23.2468 6.17041 23.1601 6.23213 23.0843 6.26963C23.0148 6.304 22.9453 6.33838 22.8757 6.37119C22.8421 6.3876 22.8203 6.41104 22.7906 6.43135C22.7703 6.44463 22.7586 6.45557 22.7382 6.47119C22.7117 6.49307 22.714 6.50322 22.6812 6.48369C22.6461 6.46338 22.6101 6.40635 22.5828 6.37979C22.5492 6.34775 22.5125 6.32041 22.4718 6.29854C22.3671 6.2415 22.2562 6.19619 22.1445 6.15557C22.0648 6.12666 21.9859 6.0915 21.9023 6.07354C21.8539 6.06338 21.8047 6.05557 21.7562 6.04385C21.7086 6.03291 21.6601 6.02979 21.6125 6.01963C21.5953 6.01572 21.582 6.00635 21.5656 6.01729C21.5406 5.98838 21.5695 5.9126 21.5711 5.88291C21.575 5.82041 21.5617 5.73525 21.5453 5.6751C21.5265 5.60479 21.5047 5.53682 21.4875 5.4665C21.4828 5.44619 21.4562 5.39932 21.4695 5.38291C21.4828 5.40791 21.3812 5.47666 21.3562 5.5001C21.2968 5.55713 21.2375 5.61494 21.1726 5.66572C21.1312 5.69854 21.1093 5.72979 21.0672 5.75713C21.0507 5.76807 21.0281 5.78369 21.0156 5.8001C21.0007 5.82041 21.0132 5.83447 21.0039 5.85322C20.9672 5.92979 20.8625 5.79541 20.8406 5.77822C20.7586 5.71104 20.6664 5.67822 20.5765 5.62354C20.4882 5.56963 20.4007 5.52588 20.3211 5.46025C20.2922 5.43604 20.2507 5.40713 20.2492 5.36338C20.2484 5.33838 20.2687 5.31572 20.2718 5.28916C20.2797 5.22432 20.2476 5.17119 20.2406 5.11104C20.2382 5.0915 20.2429 5.03994 20.2523 5.02432C20.2734 4.98604 20.3429 4.98135 20.3836 4.98135C20.4578 4.98135 20.532 4.99854 20.607 4.99619C20.6797 4.99385 20.7484 4.99697 20.8187 5.00088C20.8382 5.00166 20.8593 4.9915 20.8796 4.99229C20.9039 4.99229 20.9257 5.01104 20.9492 5.01025C20.9867 5.00869 21.0156 4.96338 21.0531 4.96338C21.0679 4.96338 21.0898 4.98291 21.0992 4.9876C21.125 5.0001 21.1523 5.00635 21.1789 5.01885C21.2953 5.07432 21.3976 5.15869 21.514 5.21572C21.6062 5.26104 21.7086 5.28838 21.8031 5.32979C21.875 5.36104 21.9375 5.39854 22.0148 5.40947C22.0703 5.41729 22.1203 5.429 22.1742 5.43994C22.3586 5.47744 22.5468 5.50947 22.7328 5.53447C22.9265 5.56104 23.1164 5.59307 23.3117 5.60322C23.3851 5.60713 23.457 5.61807 23.5296 5.62119C23.5812 5.62354 23.6265 5.62432 23.675 5.64463C23.7531 5.67822 23.8414 5.729 23.9078 5.779C23.9757 5.83057 24.0304 5.9001 24.0914 5.95869C24.1265 5.99229 24.1648 6.02275 24.1984 6.05869C24.2796 6.14697 24.3617 6.23291 24.4422 6.32197C24.5679 6.46182 24.7054 6.58994 24.8531 6.70557C24.907 6.74775 24.9671 6.779 25.0195 6.82354C25.1218 6.91182 25.2179 7.00635 25.3171 7.09619C25.3656 7.13994 25.4086 7.18682 25.4562 7.23135C25.4984 7.27119 25.5179 7.30869 25.5531 7.35322C25.6421 7.46572 25.7617 7.55479 25.8468 7.67197C25.9086 7.75635 25.9632 7.83994 26.0093 7.93447C26.0547 8.02744 26.1125 8.11025 26.1593 8.20166C26.214 8.30791 26.264 8.4165 26.3164 8.52432C26.3562 8.60557 26.3961 8.68682 26.4218 8.73916V8.74072Z" fill="#83171D"/>
<path d="M22.9571 4.41973C22.8939 4.48145 22.829 4.54082 22.7665 4.60332C22.7353 4.63457 22.7204 4.6791 22.686 4.70723C22.7954 4.80332 22.9071 4.90488 23.0024 5.01973C23.0735 5.10488 23.1532 5.18691 23.2376 5.25957C23.2853 5.30098 23.3235 5.32832 23.3399 5.38848C23.3751 5.51191 23.447 5.4791 23.5587 5.45879C23.6415 5.44316 23.7212 5.40332 23.804 5.41973C23.8399 5.42676 23.8563 5.43379 23.8845 5.41035C23.8845 5.44316 23.8376 5.48379 23.8228 5.51348C23.8103 5.5377 23.804 5.57129 23.7899 5.59316C23.7728 5.62129 23.7446 5.63457 23.7259 5.6627C23.711 5.68457 23.7087 5.71973 23.6806 5.7291C23.697 5.77988 23.7923 5.83301 23.8259 5.86348C23.8688 5.90176 23.911 5.9416 23.9556 5.97832C24.0134 6.02676 24.0579 6.08613 24.0954 6.15098C24.1462 6.24004 24.1462 6.35176 24.1907 6.44473C24.2079 6.47988 24.2259 6.51582 24.2376 6.5541C24.2485 6.58926 24.2454 6.62207 24.254 6.65645C24.2853 6.78066 24.4087 6.61035 24.4509 6.58301C24.4704 6.57051 24.4946 6.55566 24.5587 6.53223C24.5899 6.51895 24.604 6.49395 24.6454 6.51895C24.6079 6.56348 24.5743 6.61191 24.5392 6.65801C24.5087 6.69785 24.4501 6.72832 24.4274 6.77285C24.3978 6.83301 24.4931 6.89004 24.5267 6.91816C24.5728 6.95723 24.6204 6.99473 24.6626 7.03848C24.7188 7.09707 24.7712 7.16582 24.8079 7.2377C24.836 7.29316 24.8743 7.35254 24.8931 7.41113C24.9165 7.48223 24.9282 7.55723 24.947 7.62988C24.9673 7.70801 24.9696 7.78848 24.9939 7.86582C25.0048 7.90176 25.0509 7.98066 25.0274 8.02051C25.0454 8.0502 25.097 8.04863 25.1274 8.05723C25.1946 8.07598 25.261 8.10488 25.3235 8.13535C25.3657 8.15566 25.3821 8.16582 25.4235 8.17285C25.4431 8.17598 25.4556 8.17676 25.4735 8.18535C25.4892 8.19238 25.5032 8.2002 25.5501 8.22754C25.547 8.2541 25.4696 8.25801 25.454 8.25801C25.4071 8.25801 25.3642 8.24004 25.3165 8.24238C25.2938 8.24316 25.2704 8.25176 25.2032 8.24551C25.1751 8.24707 25.1509 8.25801 25.1267 8.27363C25.0892 8.29707 25.0938 8.29707 25.1017 8.34707C25.1095 8.39551 25.1149 8.41113 25.1353 8.45723C25.1587 8.50957 25.161 8.56035 25.1813 8.6127C25.2063 8.67598 25.2337 8.7377 25.2571 8.80254C25.2782 8.86113 25.272 8.9166 25.2868 8.97441C25.2993 9.02207 25.3056 9.03535 25.2962 9.08301C25.2884 9.12363 25.2806 9.16504 25.2735 9.20645C25.2696 9.22754 25.2642 9.2377 25.2806 9.2541C25.3001 9.27285 25.411 9.28301 25.4345 9.28613C25.5017 9.29473 25.5446 9.27363 25.6079 9.26895C25.6415 9.2666 25.6579 9.27285 25.6915 9.26582C25.7337 9.25723 25.7774 9.24863 25.8181 9.24004C25.8485 9.23301 25.8728 9.20254 25.9056 9.22676C25.8954 9.2416 25.8704 9.2416 25.8579 9.22676C25.8603 9.19004 25.8931 9.15332 25.9126 9.12285C25.9306 9.09473 25.9478 9.06582 25.9657 9.0377C25.9923 8.99629 26.0267 8.96348 26.0509 8.92051C26.0829 8.86348 26.1157 8.8127 26.1563 8.76113C26.2399 8.6541 26.3079 8.53145 26.4001 8.43223C26.4087 8.42285 26.4806 8.35645 26.4829 8.33691C26.4884 8.29395 26.4165 8.2377 26.3985 8.19941C26.3751 8.1502 26.3634 8.09395 26.3415 8.04316C26.3142 7.9791 26.2993 7.91973 26.2845 7.85176C26.2751 7.80957 26.254 7.76816 26.247 7.72598C26.2399 7.68613 26.2407 7.6627 26.2149 7.62676C26.1845 7.58457 26.1571 7.54238 26.097 7.54785C26.0673 7.55488 26.0384 7.56504 26.011 7.57676C25.9751 7.58379 25.9392 7.58691 25.9024 7.58535C25.879 7.58691 25.7431 7.58379 25.7298 7.61035C25.7368 7.62754 25.7517 7.64395 25.7454 7.6627C25.7204 7.60645 25.8423 7.5541 25.8767 7.53535C25.922 7.51035 25.9517 7.48145 25.986 7.44316C25.9993 7.42832 26.0118 7.41035 26.061 7.37285C26.0962 7.32988 26.0626 7.29004 26.0399 7.24629C26.0079 7.18223 25.9915 7.09941 25.9712 7.03066C25.9548 6.97363 25.9345 6.91738 25.9142 6.86113C25.9001 6.82363 25.8868 6.78535 25.8728 6.74785C25.8571 6.70566 25.8376 6.68535 25.8079 6.65254C25.7618 6.60176 25.7329 6.53926 25.6978 6.48145C25.6485 6.4002 25.6017 6.31973 25.5563 6.23691C25.5142 6.15957 25.4556 6.05332 25.3837 5.99707C25.3626 5.98066 25.3603 5.97676 25.3306 5.99316C25.2634 6.03066 25.2087 6.10254 25.1524 6.1541C25.0978 6.20488 25.0415 6.23535 24.9743 6.26426C24.9431 6.27754 24.8813 6.30332 24.8649 6.33066C24.9009 6.37207 24.9392 6.27676 24.9446 6.25645C24.9634 6.18301 24.9618 6.10176 25.0071 6.03691C25.0313 6.00254 25.0376 5.99004 25.0462 5.9502C25.0556 5.90801 25.0892 5.87207 25.1087 5.83457C25.1438 5.76816 25.2079 5.70879 25.1212 5.64785C25.0978 5.63145 25.0985 5.64004 25.0814 5.6127C25.0493 5.56113 25.022 5.50723 24.9954 5.45254C24.9626 5.38613 24.9126 5.32754 24.8767 5.26191C24.8579 5.22676 24.8368 5.20332 24.8103 5.17441C24.7532 5.11426 24.6798 5.06582 24.6142 5.01504C24.5899 4.99473 24.5634 4.97754 24.5353 4.9627C24.511 4.94316 24.4892 4.92051 24.4696 4.89629C24.4446 4.87441 24.4196 4.85801 24.3962 4.83535C24.3548 4.79395 24.3267 4.78926 24.3142 4.85332C24.3071 4.88691 24.3087 4.92363 24.2946 4.95566C24.2798 4.98848 24.2493 5.01426 24.2337 5.04707C24.2251 5.06504 24.2071 5.11426 24.1821 5.11738C24.1438 5.12129 24.154 5.08145 24.1501 5.05098C24.1431 4.99629 24.1376 4.94941 24.1446 4.89473C24.1493 4.86035 24.1517 4.8416 24.1446 4.80645C24.1384 4.77207 24.1384 4.75723 24.1439 4.72051C24.1509 4.67207 24.1532 4.66738 24.1118 4.62129C24.0251 4.5252 23.8931 4.51426 23.7837 4.45801C23.7517 4.4416 23.7228 4.4127 23.6915 4.39316C23.6509 4.36738 23.6196 4.33145 23.5767 4.30879C23.4782 4.25645 23.3923 4.17285 23.3056 4.10176C23.2696 4.07285 23.2329 4.04551 23.197 4.01582C23.1689 3.99238 23.1329 3.98301 23.1056 3.96035C23.0806 3.93926 23.0501 3.91504 23.0274 3.89316C23.0126 3.87832 23.004 3.84941 22.9837 3.84473C22.9595 3.88535 22.9603 3.95879 22.9681 4.00332C22.9759 4.04941 22.9821 4.0916 22.9892 4.1377C22.9978 4.19707 22.9821 4.24316 22.9798 4.30098C22.9782 4.3377 23.0064 4.38145 22.9579 4.42598L22.9571 4.41973Z" fill="#CB2027"/>
<path d="M26.4447 8.79707C26.4165 8.79707 26.3822 8.76504 26.3595 8.75098C26.2751 8.69941 26.2189 8.62676 26.1533 8.55254C26.0955 8.48691 26.0345 8.40566 25.9556 8.36504C26.022 8.33926 26.0509 8.34082 26.0853 8.27285C26.1603 8.12676 26.2431 7.98379 26.3111 7.83379C26.4408 7.54707 26.5869 7.2416 26.7853 6.99395C26.808 6.96504 26.8392 6.88613 26.8736 6.87441C26.9173 6.85957 26.9916 6.95801 27.0197 6.98066C27.1244 7.06348 27.2283 7.1502 27.3361 7.22988C27.3681 7.25332 27.4291 7.31035 27.4759 7.3041C27.4525 7.24316 27.4384 7.18457 27.4267 7.11973C27.4009 6.97598 27.358 6.82051 27.3158 6.68145C27.3041 6.64238 27.2915 6.5627 27.2603 6.53223C27.2392 6.51113 27.2291 6.52363 27.2087 6.5127C27.1806 6.49785 27.1416 6.47051 27.1345 6.4416C27.2361 6.40645 27.3212 6.30254 27.3822 6.21895C27.4392 6.14082 27.4962 6.05176 27.5423 5.9666C27.5962 5.86738 27.6634 5.77285 27.7111 5.67051C27.7478 5.59082 27.7822 5.51816 27.8306 5.44551C27.8736 5.38145 27.8712 5.38613 27.9447 5.44082C28.0611 5.52754 28.1775 5.61348 28.2939 5.7002C28.358 5.74785 28.4705 5.86348 28.554 5.88301C28.5775 5.81035 28.5626 5.75957 28.5439 5.69004C28.5142 5.58145 28.5259 5.46035 28.5087 5.34785C28.4908 5.23613 28.4728 5.12754 28.4189 5.02754C28.3869 4.96816 28.3767 4.92207 28.4009 4.85098C28.4181 4.79941 28.4892 4.75723 28.5361 4.73223C28.5736 4.7127 28.6181 4.70957 28.6548 4.69082C28.6908 4.67285 28.7212 4.64082 28.7525 4.61582C28.908 4.4916 29.0736 4.37207 29.215 4.23223C29.2978 4.14941 29.372 4.04941 29.4455 3.95723C29.5126 4.0002 29.5533 4.0627 29.5939 4.13066C29.6494 4.22285 29.7205 4.3127 29.7705 4.40723C29.797 4.45801 29.8041 4.49707 29.8041 4.55332C29.8041 4.57676 29.7908 4.64629 29.8322 4.64785C29.8626 4.5666 29.865 4.4877 29.9283 4.42051C29.9728 4.37285 30.0251 4.32676 30.065 4.2752C30.1251 4.19707 30.1244 4.02207 30.1361 3.92676C30.147 3.83691 30.147 3.8002 30.247 3.77676C30.3673 3.74863 30.5251 3.75723 30.6408 3.75488C30.8212 3.75098 31.0009 3.73379 31.1814 3.73379C31.3041 3.73379 31.4158 3.75879 31.5369 3.77207C31.5798 3.77676 31.6033 3.77207 31.6431 3.75645C31.6853 3.73926 31.7533 3.74551 31.7876 3.71973C31.8392 3.75176 31.815 3.9166 31.8158 3.96582C31.8189 4.08535 31.7923 4.19707 31.79 4.31582C31.7837 4.34785 31.7892 4.37754 31.8056 4.40566C31.8134 4.41895 31.8212 4.43223 31.829 4.44629C31.8314 4.47441 31.8181 4.49707 31.7876 4.47441C31.7822 4.40566 32.0486 4.47207 32.0744 4.47598C32.172 4.49004 32.2759 4.49629 32.3712 4.52129C32.4181 4.53301 32.5572 4.5502 32.5767 4.59004C32.547 4.63848 32.5041 4.6291 32.4587 4.63848C32.4048 4.64863 32.3681 4.69863 32.3165 4.71895C32.2087 4.76191 32.1017 4.78379 31.9876 4.7916C31.9275 4.79551 31.8814 4.82754 31.8244 4.84004C31.7626 4.84238 31.7017 4.84551 31.6408 4.8502C31.5658 4.85957 31.4916 4.86973 31.4166 4.8791C31.2048 4.90801 30.9947 4.9502 30.783 4.97988C30.7251 4.9877 30.7041 4.98926 30.6525 4.98223C30.5791 4.97207 30.5056 4.96035 30.4314 4.9502C30.3986 4.94551 30.3564 4.94707 30.3251 4.93535C30.3072 4.92832 30.2986 4.91426 30.2837 4.90879C30.2455 4.89395 30.1994 4.89863 30.1595 4.88691C30.1314 4.87832 30.1095 4.86113 30.0798 4.85488C30.0494 4.84863 30.0181 4.84785 29.9876 4.84082C30.0501 4.87598 30.0791 4.9627 30.115 5.02051C30.1767 5.11973 30.233 5.20723 30.3228 5.28301C30.272 5.26895 30.2189 5.26504 30.1673 5.27598C30.0923 5.29082 30.0681 5.33301 30.0134 5.37988C29.9619 5.42363 29.9033 5.4541 29.8564 5.50332C29.8142 5.54707 29.7884 5.6002 29.7509 5.64785C29.7251 5.68066 29.6994 5.7002 29.6814 5.73535C29.665 5.76738 29.6533 5.7877 29.6298 5.81582C29.6017 5.84941 29.5923 5.88691 29.5626 5.91895C29.5314 5.95332 29.5017 5.97676 29.4775 6.01895C29.458 6.05332 29.4447 6.0877 29.4181 6.11816C29.39 6.1502 29.3611 6.15957 29.3212 6.17051C29.1994 6.2041 29.0822 6.23691 28.9564 6.25176C28.8822 6.26035 28.8048 6.2541 28.7314 6.26426C28.697 6.26895 28.665 6.28457 28.6306 6.28848C28.7369 6.29629 28.8267 6.33301 28.9298 6.35332C28.9892 6.36504 29.0533 6.36113 29.1111 6.37754C29.1494 6.38848 29.1798 6.41738 29.222 6.41582C29.1697 6.40098 29.1595 6.43066 29.1306 6.46895C29.0501 6.57598 28.9806 6.69707 28.9158 6.81426C28.8759 6.88535 28.8494 6.96348 28.8064 7.03223C28.7783 7.07832 28.7447 7.11895 28.715 7.16504C28.6853 7.21113 28.6478 7.23848 28.6103 7.27754C28.5548 7.33535 28.515 7.4041 28.4681 7.46816C28.4478 7.49551 28.4166 7.52363 28.4009 7.55332C28.3916 7.57129 28.4033 7.59707 28.3837 7.60879C28.3556 7.62598 28.2658 7.59473 28.233 7.59004C28.1658 7.58066 28.0994 7.57129 28.0322 7.56035C27.9869 7.55332 27.9416 7.54551 27.8955 7.54551C27.8603 7.54551 27.8228 7.55566 27.7884 7.54707C27.8244 7.55098 27.8634 7.5541 27.8986 7.56113C27.9658 7.57441 28.0111 7.62363 28.0736 7.64941C28.1134 7.66582 28.1595 7.68535 28.2009 7.69473C28.2369 7.70254 28.2759 7.69629 28.3095 7.71348C28.3048 7.75488 28.2775 7.73848 28.2509 7.74551C28.2095 7.75723 28.1736 7.76895 28.1384 7.79863C28.0783 7.84785 28.0345 7.92441 27.9923 7.98848C27.9244 8.0916 27.8517 8.1916 27.7861 8.29629C27.7119 8.41426 27.6556 8.54004 27.59 8.6627C27.5353 8.76426 27.4775 8.89863 27.4548 9.01191C27.4462 9.05332 27.4548 9.07441 27.4165 9.09004C27.3861 9.10254 27.2994 9.08379 27.2689 9.06895C27.2158 9.04316 27.1806 8.9877 27.1244 8.96582C27.0791 8.94785 27.0259 8.95098 26.9791 8.9377C26.8251 8.89395 26.6689 8.87598 26.5103 8.85254C26.3142 8.82363 26.1142 8.78145 25.9158 8.76816C25.9509 8.75645 25.9876 8.7416 26.0251 8.73848" fill="#CB2027"/>
<path d="M31.0117 6.92331C31.0266 7.00378 31.0422 7.08424 31.0562 7.16549C31.0633 7.20612 31.05 7.24752 31.0609 7.28737C30.9266 7.30065 30.7867 7.31706 30.6523 7.35221C30.5523 7.37799 30.4469 7.39674 30.3445 7.40612C30.2859 7.41159 30.2422 7.41159 30.1969 7.44753C30.1031 7.52253 30.0672 7.45846 29.9937 7.3819C29.9391 7.32565 29.9008 7.25221 29.8289 7.2194C29.7977 7.20534 29.782 7.20143 29.7727 7.16862C29.7539 7.19362 29.768 7.24987 29.7641 7.28034C29.7602 7.30612 29.7469 7.33424 29.7453 7.35846C29.743 7.38893 29.757 7.41471 29.7563 7.44596C29.7563 7.47096 29.7383 7.49831 29.7547 7.52096C29.7148 7.54987 29.6141 7.53893 29.5719 7.54362C29.518 7.54909 29.4648 7.55612 29.4117 7.56002C29.3422 7.56549 29.2758 7.58581 29.2125 7.61471C29.1258 7.65456 29.0656 7.73971 28.9813 7.78503C28.9492 7.80221 28.9164 7.82018 28.8867 7.84206C28.8594 7.86237 28.8438 7.88893 28.8188 7.91081C28.7273 7.98815 28.7266 7.79206 28.7094 7.74831C28.7016 7.72877 28.6906 7.70378 28.6555 7.65143C28.6391 7.62409 28.6422 7.59752 28.5969 7.5944C28.6016 7.64831 28.6 7.70299 28.6016 7.7569C28.6023 7.80377 28.6313 7.85846 28.6234 7.90456C28.6133 7.96627 28.5102 7.95768 28.4695 7.96081C28.4141 7.96549 28.357 7.96784 28.3016 7.97799C28.2273 7.99206 28.1508 8.01549 28.0836 8.04987C28.032 8.07643 27.9711 8.10065 27.925 8.13502C27.8688 8.17643 27.8188 8.22643 27.7656 8.27096C27.7078 8.3194 27.6625 8.37878 27.6023 8.42409C27.5742 8.44518 27.4969 8.48034 27.493 8.52252C27.4633 8.53581 27.4258 8.50612 27.3969 8.49596C27.3359 8.47409 27.2703 8.45924 27.2063 8.44831C27.1633 8.44127 27.1453 8.43971 27.1102 8.42252C27.0938 8.41471 27.0836 8.40846 27.0656 8.40456C27.05 8.40143 27.0352 8.39909 26.9852 8.39518C26.9727 8.41706 27.0297 8.46237 27.0414 8.47018C27.0766 8.49518 27.1188 8.50456 27.1539 8.53268C27.1703 8.54596 27.1836 8.56471 27.2383 8.59674C27.2594 8.61315 27.2711 8.63502 27.2813 8.66002C27.2969 8.69831 27.293 8.69518 27.2602 8.72878C27.2281 8.76159 27.2156 8.77018 27.175 8.79362C27.1289 8.82096 27.0992 8.85768 27.0555 8.88581C27.0023 8.92018 26.9477 8.95221 26.8953 8.98815C26.8477 9.02096 26.8219 9.06628 26.7797 9.10221C26.7445 9.1319 26.732 9.13815 26.7133 9.17877C26.6969 9.21393 26.6805 9.24909 26.6633 9.28424C26.6547 9.30221 26.6531 9.31315 26.632 9.31627C26.607 9.32018 26.5172 9.26784 26.4984 9.2569C26.443 9.22721 26.4219 9.18737 26.3766 9.14987C26.3523 9.12956 26.3367 9.12565 26.3156 9.10221C26.2883 9.07253 26.2602 9.04284 26.2344 9.01393C26.2148 8.99206 26.2133 8.95612 26.1758 8.95612C26.1758 8.97252 26.1945 8.98659 26.2125 8.9819C26.2313 8.95299 26.2258 8.90768 26.2273 8.87409C26.2289 8.84284 26.232 8.81159 26.2336 8.78034C26.2359 8.73502 26.2281 8.69127 26.2328 8.64596C26.2391 8.58502 26.2422 8.52956 26.2398 8.46784C26.2344 8.34127 26.25 8.21159 26.2336 8.08659C26.232 8.07487 26.2141 7.98503 26.2227 7.9694C26.2422 7.93346 26.3266 7.93034 26.3609 7.91159C26.4047 7.88737 26.4453 7.85065 26.4891 7.82409C26.5445 7.79049 26.5875 7.75299 26.6367 7.71003C26.6672 7.68346 26.7047 7.66315 26.7336 7.63503C26.7602 7.60924 26.7727 7.59049 26.8117 7.57721C26.8578 7.56159 26.9016 7.5444 26.9438 7.58112C26.9617 7.60299 26.9789 7.62565 26.9938 7.64987C27.0164 7.67487 27.0422 7.69674 27.0711 7.71471C27.0883 7.72799 27.193 7.79987 27.1875 7.82721C27.1727 7.83659 27.1531 7.84049 27.1477 7.85846C27.1969 7.82956 27.1328 7.72331 27.1172 7.69049C27.0969 7.64753 27.0898 7.60924 27.0844 7.56159C27.082 7.54284 27.082 7.52252 27.0664 7.46784C27.0633 7.41627 27.1102 7.40456 27.1508 7.38346C27.2102 7.35221 27.2672 7.29831 27.3195 7.2569C27.3633 7.22252 27.4086 7.19049 27.4547 7.16003C27.4859 7.13893 27.5164 7.11784 27.5477 7.09674C27.5828 7.07331 27.6078 7.06862 27.6484 7.06003C27.7109 7.04674 27.7664 7.01471 27.825 6.99049C27.9063 6.95612 27.9852 6.92018 28.0648 6.8819C28.1391 6.84674 28.2406 6.79753 28.3258 6.7944C28.3508 6.79362 28.3547 6.79128 28.368 6.82018C28.3984 6.88503 28.4016 6.96862 28.4156 7.03815C28.4297 7.1069 28.4555 7.16003 28.4906 7.21862C28.507 7.24518 28.5398 7.29831 28.5375 7.32799C28.4883 7.33971 28.5102 7.24674 28.5172 7.22877C28.543 7.16315 28.5883 7.10221 28.5891 7.02878C28.5891 6.98971 28.5914 6.97643 28.6063 6.94206C28.6219 6.90534 28.6164 6.86003 28.6219 6.82018C28.6313 6.75065 28.6156 6.67096 28.7141 6.67253C28.7406 6.67253 28.7359 6.67877 28.7633 6.66784C28.8156 6.64674 28.8656 6.62018 28.9156 6.59284C28.9766 6.56002 29.0461 6.54362 29.1086 6.51315C29.1422 6.49674 29.1703 6.49049 29.2063 6.48346C29.282 6.46862 29.3641 6.47174 29.4414 6.46862C29.4711 6.46628 29.5 6.46706 29.5297 6.47174C29.5586 6.47018 29.5875 6.46549 29.6156 6.4569C29.6469 6.45378 29.6742 6.45534 29.7039 6.45065C29.7578 6.44206 29.7813 6.45377 29.7563 6.50924C29.743 6.53815 29.7219 6.56549 29.7156 6.59674C29.7094 6.62799 29.718 6.66549 29.7125 6.69909C29.7094 6.71784 29.6961 6.76471 29.7133 6.78034C29.7398 6.80378 29.7539 6.76862 29.7734 6.74753C29.8086 6.71003 29.8383 6.67799 29.8625 6.6319C29.8773 6.60377 29.8867 6.58815 29.9102 6.56471C29.9336 6.54127 29.9414 6.53112 29.957 6.50065C29.9781 6.46002 29.9789 6.45534 30.0344 6.44284C30.1523 6.41784 30.2578 6.48034 30.3711 6.49752C30.4039 6.50221 30.4422 6.49596 30.4758 6.49752C30.5203 6.49987 30.5641 6.48971 30.6078 6.49596C30.7109 6.51003 30.8211 6.49284 30.925 6.48659C30.968 6.48424 31.0109 6.48346 31.0539 6.48034C31.0875 6.47799 31.1195 6.49049 31.1531 6.48737C31.1828 6.48503 31.2195 6.48346 31.2492 6.47877C31.2688 6.47565 31.2906 6.45846 31.3086 6.46549C31.3047 6.50924 31.2648 6.56471 31.2344 6.5944C31.2039 6.62487 31.1758 6.65377 31.1461 6.68502C31.1078 6.72565 31.0945 6.76862 31.0648 6.81393C31.0461 6.84284 31.0016 6.86081 31.0133 6.92018L31.0117 6.92331Z" fill="#A01D23"/>
<path d="M27.9469 4.83262C28.0149 4.87793 28.0844 4.92246 28.1516 4.96934C28.186 4.99277 28.2071 5.03105 28.243 5.05059C28.1594 5.15684 28.0735 5.26855 28.0055 5.38965C27.9548 5.47949 27.8954 5.56855 27.8305 5.64824C27.7938 5.69355 27.7634 5.72559 27.7579 5.7834C27.7469 5.90215 27.6751 5.88418 27.5696 5.88418C27.4907 5.88418 27.4118 5.86074 27.3384 5.88965C27.3063 5.90215 27.293 5.91074 27.2634 5.89434C27.268 5.9248 27.3188 5.95371 27.3376 5.97793C27.3532 5.99824 27.3641 6.02715 27.3805 6.04512C27.4009 6.06777 27.429 6.07559 27.4509 6.09824C27.468 6.11543 27.4759 6.14746 27.5032 6.15137C27.4962 6.20059 27.418 6.26543 27.3923 6.29824C27.3594 6.34043 27.3274 6.3834 27.293 6.4248C27.2485 6.47871 27.2173 6.54121 27.1938 6.60605C27.1618 6.69668 27.1813 6.79902 27.1555 6.89121C27.1454 6.92637 27.1352 6.9623 27.1313 6.99902C27.1274 7.0334 27.136 7.0623 27.1337 7.0959C27.1259 7.21543 26.9844 7.07949 26.9407 7.06152C26.9212 7.05293 26.8962 7.04355 26.8337 7.03262C26.8024 7.02559 26.786 7.00527 26.7516 7.03496C26.7938 7.06934 26.8321 7.10762 26.8719 7.14434C26.9063 7.17559 26.9657 7.19355 26.993 7.23105C27.0305 7.28105 26.9524 7.34981 26.9266 7.38106C26.8907 7.42402 26.8532 7.46699 26.8219 7.51387C26.7805 7.57715 26.7438 7.64824 26.722 7.7209C26.7055 7.77637 26.6805 7.83731 26.6727 7.89434C26.6634 7.96309 26.6649 8.03418 26.6594 8.10371C26.654 8.17871 26.6649 8.25293 26.6555 8.32793C26.6516 8.36309 26.6219 8.44277 26.6501 8.47481C26.6391 8.50527 26.5915 8.51152 26.5641 8.52481C26.5055 8.55371 26.4493 8.59043 26.3969 8.62871C26.3618 8.65449 26.3485 8.66621 26.3118 8.68027C26.2946 8.68652 26.2829 8.68887 26.268 8.69981C26.2555 8.70918 26.243 8.71777 26.2055 8.75137C26.2126 8.77559 26.2844 8.76621 26.2985 8.76387C26.3415 8.75606 26.3774 8.73184 26.4219 8.72637C26.443 8.72324 26.4657 8.72715 26.5266 8.70996C26.5532 8.70684 26.5766 8.71309 26.6016 8.72246C26.6399 8.73809 26.6352 8.73887 26.6368 8.78574C26.6376 8.83106 26.6352 8.8459 26.6243 8.89199C26.6118 8.94355 26.618 8.99121 26.6079 9.04199C26.5954 9.10371 26.5805 9.16543 26.5704 9.22793C26.561 9.28496 26.5759 9.33496 26.5719 9.39043C26.5688 9.43574 26.5649 9.4498 26.5813 9.49121C26.5954 9.52715 26.6094 9.56387 26.6227 9.60059C26.6298 9.61934 26.6368 9.62793 26.6243 9.64512C26.6095 9.66543 26.5094 9.69356 26.4891 9.69981C26.4298 9.71856 26.386 9.70684 26.3274 9.71309C26.2962 9.71621 26.2821 9.72481 26.2509 9.72402C26.211 9.72324 26.1696 9.72246 26.1305 9.7209C26.1009 9.72012 26.0743 9.6959 26.0477 9.72324C26.0594 9.73496 26.0829 9.73027 26.0915 9.71465C26.0837 9.68105 26.047 9.65371 26.0243 9.62871C26.0032 9.60606 25.9821 9.58184 25.961 9.55918C25.9298 9.52559 25.893 9.50137 25.8634 9.46621C25.8243 9.41934 25.786 9.37871 25.7407 9.33809C25.6462 9.25371 25.5634 9.15293 25.4626 9.07715C25.4532 9.07012 25.3759 9.0209 25.3712 9.00371C25.3587 8.96465 25.4157 8.90215 25.4259 8.86387C25.4391 8.81543 25.4407 8.76074 25.4524 8.71152C25.4673 8.64824 25.4704 8.59121 25.4727 8.52637C25.4743 8.48574 25.486 8.44434 25.486 8.40449C25.486 8.36699 25.4813 8.3459 25.4985 8.3084C25.5196 8.26465 25.5376 8.22168 25.5938 8.21621C25.622 8.21777 25.6501 8.22168 25.6774 8.22793C25.711 8.22793 25.7446 8.22559 25.7782 8.21777C25.7993 8.21543 25.9243 8.18965 25.9399 8.21231C25.936 8.22949 25.9259 8.24668 25.9344 8.26309C25.9477 8.20762 25.8274 8.18027 25.793 8.16855C25.7477 8.15293 25.7157 8.13184 25.6774 8.10293C25.6626 8.09121 25.6477 8.07715 25.5969 8.05059C25.5579 8.01699 25.5821 7.9748 25.5946 7.93105C25.6134 7.86699 25.6141 7.78809 25.6212 7.72168C25.6266 7.66699 25.636 7.61152 25.6454 7.55684C25.6516 7.52012 25.6579 7.48262 25.6641 7.4459C25.6719 7.40449 25.6852 7.38262 25.7071 7.34824C25.7407 7.29434 25.7571 7.23184 25.7798 7.17246C25.8118 7.09043 25.8407 7.0084 25.8688 6.9248C25.8946 6.84668 25.9305 6.73965 25.9868 6.67637C26.0032 6.65762 26.0048 6.65371 26.0344 6.66387C26.1024 6.68731 26.1649 6.74356 26.2243 6.78106C26.2829 6.81856 26.3399 6.8373 26.4063 6.85215C26.4368 6.85918 26.4985 6.87246 26.5173 6.89434C26.4915 6.93809 26.4399 6.85762 26.4321 6.83965C26.4032 6.77559 26.3907 6.70059 26.3384 6.64902C26.3102 6.62168 26.3032 6.61074 26.2876 6.57637C26.272 6.53965 26.2352 6.5123 26.211 6.48105C26.168 6.42637 26.0993 6.38262 26.1688 6.31231C26.1876 6.29356 26.1884 6.30137 26.1993 6.27324C26.2204 6.2209 26.236 6.16621 26.2516 6.1123C26.2704 6.0459 26.3071 5.98418 26.3282 5.91856C26.3399 5.8834 26.3548 5.8584 26.3751 5.82715C26.4173 5.7623 26.4766 5.70606 26.5282 5.64824C26.5469 5.62559 26.568 5.60527 26.5915 5.5873C26.611 5.56543 26.6274 5.54121 26.6407 5.51543C26.6602 5.49121 26.6798 5.47246 26.6977 5.44746C26.729 5.40293 26.754 5.39355 26.7759 5.45059C26.7876 5.48027 26.7923 5.51387 26.8102 5.54121C26.829 5.56934 26.861 5.58731 26.8813 5.61465C26.8923 5.62949 26.9165 5.67246 26.9399 5.67012C26.9751 5.66699 26.9594 5.63262 26.9579 5.60371C26.9548 5.55215 26.9524 5.5084 26.9368 5.45918C26.9266 5.42871 26.922 5.41152 26.922 5.37793C26.922 5.34512 26.9196 5.33184 26.9087 5.29902C26.8938 5.25605 26.8907 5.25215 26.9212 5.20293C26.9844 5.10059 27.1032 5.06777 27.1946 4.99902C27.2212 4.97871 27.243 4.94746 27.268 4.92402C27.3009 4.89355 27.3235 4.85527 27.3587 4.82793C27.4399 4.76309 27.5048 4.67246 27.5727 4.59355C27.6009 4.56074 27.6298 4.52949 27.6579 4.49668C27.6798 4.4709 27.711 4.45605 27.7321 4.43027C27.7516 4.40684 27.7751 4.37949 27.7923 4.35527C27.804 4.33965 27.8063 4.31152 27.8243 4.30371C27.8532 4.3373 27.8649 4.40371 27.8649 4.44668C27.8649 4.48965 27.8665 4.53027 27.868 4.57324C27.8704 4.62871 27.8923 4.66855 27.904 4.72168C27.9118 4.75527 27.893 4.7998 27.9446 4.83262H27.9469Z" fill="#A01D23"/>
<path d="M21.4937 8.38012C21.5976 8.3559 21.6101 8.47152 21.653 8.53949C21.6843 8.58871 21.7062 8.62153 21.7304 8.67465C21.7437 8.70356 21.7507 8.72778 21.7843 8.71371C21.8132 8.70199 21.8124 8.6684 21.8249 8.64496C21.8694 8.60903 21.914 8.57309 21.9585 8.53793C22.0718 8.45668 22.1905 8.38637 22.3163 8.32621C22.4093 8.27934 22.4976 8.25121 22.5983 8.22856C22.6671 8.21293 22.7772 8.20902 22.8296 8.15981C22.8093 8.06684 22.846 7.98715 22.8772 7.89653C22.8944 7.84653 22.9085 7.79887 22.9108 7.74653C22.9116 7.72621 22.9093 7.7059 22.9132 7.68637C22.989 7.75434 23.0265 7.88246 23.0741 7.9684C23.0858 7.98481 23.0952 8.00199 23.1038 8.02074C23.1147 8.04027 23.1202 8.06137 23.121 8.08324C23.1483 8.12699 23.2272 8.15121 23.2694 8.16762C23.4718 8.24809 23.6905 8.28793 23.8913 8.37387C23.9944 8.41762 24.1015 8.48012 24.2132 8.50121C24.2272 8.48559 24.2233 8.46449 24.228 8.44496C24.2397 8.39418 24.2702 8.35902 24.303 8.31918C24.3421 8.27074 24.3819 8.22778 24.4351 8.19496C24.4991 8.1559 24.5671 8.12465 24.6335 8.09106C24.6593 8.10668 24.6483 8.17699 24.6507 8.20043C24.6569 8.27465 24.6647 8.34887 24.6718 8.42309C24.6772 8.48403 24.7116 8.59809 24.6804 8.65434C24.7468 8.73559 24.8515 8.77153 24.9429 8.81996C25.1085 8.90903 25.2655 9.01606 25.428 9.11137C25.4726 9.13715 25.5147 9.16762 25.564 9.18324C25.5874 9.19028 25.6093 9.19106 25.6187 9.2184C25.6593 9.22309 25.6937 9.16137 25.7147 9.13637C25.7726 9.06684 25.8374 9.01762 25.9101 8.96606C25.9444 8.94184 25.9577 8.90824 25.9882 8.88246C26.0163 8.85824 26.046 8.85746 26.0819 8.85512C26.1499 8.84965 26.2179 8.84262 26.2858 8.83637C26.3265 8.83246 26.414 8.84809 26.3952 8.79106C26.3773 8.73481 26.3069 8.70043 26.271 8.65981C26.2077 8.58871 26.1444 8.51606 26.0882 8.43871C26.0265 8.35277 25.9608 8.25668 25.8804 8.18793C25.7944 8.11449 25.6687 8.06449 25.5655 8.02309C25.1726 7.86606 24.7468 7.80824 24.3351 7.72387C24.2468 7.7059 24.1562 7.69496 24.0679 7.67465C24.0257 7.66215 23.9835 7.65277 23.9405 7.64418C23.8687 7.64027 23.7976 7.64028 23.7257 7.64574C23.6022 7.64965 23.4929 7.62856 23.3726 7.60824C23.2624 7.59028 23.1499 7.61059 23.0405 7.59262C22.9819 7.58324 22.9358 7.55824 22.8757 7.55434C22.7812 7.54809 22.6835 7.54262 22.589 7.54027C22.4944 7.53793 22.3874 7.55356 22.2897 7.56527C22.2413 7.57074 22.2124 7.58246 22.171 7.60746C22.0913 7.6559 22.0085 7.68793 21.9249 7.72777C21.864 7.75668 21.8022 7.79496 21.7515 7.84028C21.7108 7.87699 21.703 7.90356 21.6874 7.95356C21.664 8.02856 21.621 8.11918 21.5788 8.18793C21.5444 8.24496 21.5202 8.29731 21.496 8.38012H21.4937Z" fill="#CB2027"/>
<path d="M25.9624 8.98849C25.9624 8.98849 25.9858 8.28224 25.9374 8.06896C25.8889 7.85568 25.4624 7.6338 25.0928 7.83927C24.7241 8.04474 24.6616 8.19552 24.5342 8.61584C24.4069 9.03615 24.1733 10.8174 24.1733 10.8174L24.035 11.7213L23.8772 11.6651L24.2311 9.28302C24.2311 9.28302 24.2022 8.75334 24.4178 8.31974C24.6342 7.88615 24.9334 7.65646 25.203 7.58302C25.4733 7.50959 25.9577 7.69943 26.0475 7.76584C26.1374 7.83224 26.2405 8.0213 26.2405 8.0213C26.2405 8.0213 26.2686 8.61271 25.9616 8.98849H25.9624Z" fill="#AC1F24"/>
<path d="M23.5798 9.42595C23.5798 9.42595 23.333 9.23845 23.2689 9.27595C23.2048 9.31424 23.2892 9.34939 23.2892 9.34939C23.2892 9.34939 23.3369 9.42752 23.3736 9.48377C23.4111 9.54002 23.3986 9.53377 23.6056 9.5783C23.8126 9.62205 23.7447 9.50095 23.6837 9.46658C23.6228 9.4322 23.5798 9.42595 23.5798 9.42595Z" fill="#83171D"/>
<path d="M23.9733 9.15861C23.9733 9.15861 23.9288 9.06877 23.8929 8.92814C23.8569 8.78752 23.8436 8.67189 23.7983 8.70705C23.753 8.74298 23.6804 8.73595 23.703 8.93127C23.7265 9.12658 23.803 9.29611 23.803 9.29611C23.803 9.29611 23.6741 9.23517 23.5718 9.04611C23.4694 8.85627 23.4436 8.76877 23.4085 8.82189C23.3733 8.8758 23.378 9.20548 23.4468 9.30783C23.5155 9.41017 23.6257 9.50002 23.7093 9.53517C23.7936 9.57111 23.914 9.59064 23.9624 9.45939C24.0116 9.32814 23.9725 9.15783 23.9725 9.15783L23.9733 9.15861Z" fill="#AC1F24"/>
<path d="M24.0032 9.12028C24.0032 9.12028 23.9423 8.96012 24.0118 8.7734C24.0813 8.58668 24.1212 8.57028 24.211 8.52575C24.3009 8.48121 24.3196 8.54371 24.3118 8.57496L24.304 8.60622C24.304 8.60622 24.3243 8.71403 24.2993 8.76247C24.2743 8.8109 24.2407 8.84528 24.2407 8.9445C24.2407 9.04371 24.272 9.14606 24.272 9.14606C24.272 9.14606 24.2345 9.34059 24.1993 9.40153C24.1649 9.46246 24.1095 9.44293 24.0696 9.36403C24.0298 9.28512 24.0024 9.12106 24.0024 9.12106L24.0032 9.12028Z" fill="#AC1F24"/>
<path d="M23.9774 9.60618C23.9774 9.60618 23.8805 9.71633 23.7484 9.76243C23.6172 9.80852 23.4461 9.77883 23.3688 9.67024C23.2914 9.56165 23.2977 9.52258 23.3461 9.51321C23.3945 9.50383 23.4953 9.51868 23.6539 9.51087C23.8125 9.50383 23.9391 9.47727 23.9625 9.51243C23.9859 9.54759 23.9883 9.56633 23.9774 9.6054V9.60618Z" fill="#AC1F24"/>
<path d="M23.6625 9.77334C23.6625 9.77334 23.636 9.8374 23.5133 9.92803C23.3907 10.0187 23.4235 10.1022 23.4688 10.1007C23.5141 10.0991 23.5961 10.0819 23.5961 10.0819C23.5961 10.0819 23.8235 10.0437 23.9157 9.95303C24.0078 9.8624 23.9961 9.70381 23.9867 9.65537L23.9774 9.60693C23.9774 9.60693 23.8938 9.73506 23.6625 9.77334Z" fill="#A01D23"/>
<path d="M25.1508 9.30048C25.1508 9.30048 25.343 9.18641 25.3625 9.2872C25.382 9.3872 25.3727 9.4036 25.2617 9.49345C25.1508 9.58251 25.1117 9.60985 25.1117 9.60985C25.1117 9.60985 25.0773 9.51532 25.0328 9.48954C24.9883 9.46454 24.957 9.45673 24.957 9.45673L25.1516 9.30048H25.1508Z" fill="#AC1F24"/>
<path d="M24.65 9.02534C24.65 9.02534 24.8797 8.87612 24.918 8.90971C24.9563 8.94331 24.9711 9.04018 24.9079 9.14643C24.8446 9.25268 24.711 9.40971 24.5516 9.44331C24.3922 9.47768 24.2821 9.50971 24.2868 9.45581C24.2915 9.4019 24.4391 9.23237 24.5063 9.15581C24.5735 9.07924 24.6508 9.02456 24.6508 9.02456L24.65 9.02534Z" fill="#89181A"/>
<path d="M24.1478 9.3733C24.1478 9.3733 24.1923 9.23892 24.2501 9.14439C24.3071 9.04986 24.4571 8.96783 24.5603 8.94049C24.6634 8.91314 24.6759 8.98736 24.6501 9.02486C24.6243 9.06236 24.5931 9.09205 24.5829 9.13189C24.572 9.17095 24.536 9.22095 24.4274 9.2983C24.3188 9.37564 24.3095 9.45689 24.2587 9.48189C24.2087 9.50689 24.1493 9.39596 24.147 9.3733H24.1478Z" fill="#AC1F24"/>
<path d="M24.371 9.81898C24.371 9.81898 24.5249 10.0596 24.7131 10.0752C24.9014 10.0909 24.9444 9.97523 24.8866 9.89866C24.828 9.8221 24.7467 9.77835 24.703 9.72679C24.6585 9.67523 24.5866 9.57679 24.4296 9.66429C24.2725 9.75101 24.3717 9.81976 24.3717 9.81976L24.371 9.81898Z" fill="#83171D"/>
<path d="M24.8866 9.89839C24.8866 9.89839 25.0827 9.95151 25.0968 9.84292C25.1109 9.73511 24.9452 9.65542 24.8312 9.65777C24.7171 9.66011 24.664 9.65777 24.671 9.7187C24.6781 9.77964 24.8445 9.86948 24.8866 9.89839Z" fill="#AC1F24"/>
<path d="M23.9977 9.55489C23.9977 9.55489 23.9961 9.44473 24.0281 9.42989C24.0609 9.41426 24.1008 9.43614 24.1008 9.43614C24.1008 9.43614 24.1211 9.38067 24.1758 9.39708C24.2312 9.41348 24.3117 9.6127 24.3414 9.67442C24.3711 9.73536 24.4133 9.73458 24.4102 9.77676C24.4078 9.81895 24.1367 10.0682 23.9977 9.79551L23.9961 9.55645L23.9977 9.55489Z" fill="#9B1C20"/>
<path d="M24.7147 9.34844C24.7147 9.34844 24.7952 9.28984 24.9319 9.19375C25.0686 9.09766 25.2444 8.97422 25.2327 9.10078C25.221 9.22734 25.064 9.44375 24.8843 9.53359C24.7046 9.62344 24.6772 9.61484 24.6772 9.61484C24.6772 9.61484 24.5562 9.62187 24.4077 9.55156C24.2585 9.48203 24.2772 9.41094 24.3241 9.39062C24.371 9.36953 24.7147 9.34844 24.7147 9.34844Z" fill="#A01D23"/>
<path d="M24.3913 9.72911C24.3913 9.72911 24.4968 9.94864 24.5397 10.1182C24.5827 10.2877 24.5085 10.3346 24.3788 10.2666C24.2491 10.1986 24.1929 10.015 24.1929 10.015C24.1929 10.015 24.2468 9.89082 24.2366 9.80801C24.2265 9.7252 24.2772 9.7002 24.3069 9.69707C24.3366 9.69317 24.3905 9.72911 24.3905 9.72911H24.3913Z" fill="#AC1F24"/>
<path d="M24.257 9.4292C24.257 9.4292 24.4859 9.50107 24.5578 9.53076C24.6296 9.56045 24.6843 9.56904 24.6781 9.61514C24.6718 9.66123 24.7132 9.65654 24.6226 9.72451C24.532 9.79248 24.4601 9.82764 24.4117 9.77607C24.364 9.72451 24.2601 9.55811 24.2593 9.52061C24.2593 9.48232 24.2218 9.42607 24.2562 9.42998L24.257 9.4292Z" fill="#B72026"/>
<path d="M25.1108 9.60944C25.1108 9.60944 25.071 9.65632 24.9663 9.70632C24.8616 9.75632 24.6226 9.72429 24.6226 9.72429L24.6819 9.67897L24.678 9.61491C24.678 9.61491 24.8233 9.55554 24.9265 9.49772C25.0296 9.43991 25.0843 9.47897 25.1108 9.60866V9.60944Z" fill="#A01D23"/>
<path d="M24.0102 9.75502C24.0102 9.75502 23.9688 9.91986 23.9368 9.99955C23.9047 10.0792 23.8938 10.1527 24.0071 10.1433C24.1204 10.1339 24.2149 10.0347 24.2461 9.91361C24.2774 9.79174 24.2157 9.68861 24.136 9.69096C24.0563 9.69252 24.0211 9.71596 24.0102 9.75502Z" fill="#B92026"/>
<path d="M24.1475 9.37346C24.1475 9.37346 24.0686 9.35237 24.0679 9.25003C24.0679 9.14768 24.0436 9.07815 23.9241 9.12659C23.8046 9.17503 23.7593 9.3094 23.7772 9.39534C23.7952 9.4805 23.8194 9.4969 23.8194 9.4969C23.8194 9.4969 23.9272 9.47268 23.9624 9.51409C23.9975 9.5555 23.9772 9.60706 23.9772 9.60706C23.9772 9.60706 24.0108 9.43987 24.0561 9.43831L24.1014 9.43675L24.1475 9.37425V9.37346Z" fill="#83171D"/>
<path d="M23.6626 12.0256C23.6626 12.0256 23.6399 12.2404 23.686 12.5045C23.7321 12.7693 23.7266 12.8084 23.7922 12.7826C23.8586 12.7568 24.1196 12.2475 24.1516 12.1459C24.1844 12.0436 24.029 11.399 23.9493 11.4897C23.8696 11.5803 23.6618 12.0264 23.6618 12.0264L23.6626 12.0256Z" fill="#A01D23"/>
<path d="M23.9953 11.6031C23.9953 11.6031 24.0796 11.482 24.0437 11.3921C24.0078 11.3023 23.971 11.3101 23.8289 11.4007C23.6867 11.4913 23.614 11.5343 23.5859 11.757C23.5578 11.9796 23.5203 12.1789 23.5203 12.1789C23.5203 12.1789 23.796 12.0234 23.9148 11.8539C24.0328 11.6843 23.996 11.6031 23.996 11.6031H23.9953Z" fill="#83171D"/>
<path d="M23.9954 11.6028C23.9954 11.6028 23.9985 11.9146 24.043 12.0364C24.0875 12.1583 24.2235 12.2942 24.2235 12.2942C24.2235 12.2942 24.3032 12.1724 24.254 11.9028C24.204 11.6333 24.0493 11.4458 24.0493 11.4458C24.0493 11.4458 24.011 11.556 23.9954 11.6028Z" fill="#6B0C12"/>
<path d="M23.4843 10.7492C23.4843 10.7492 23.3007 10.6094 23.2523 10.6375C23.2046 10.6657 23.2671 10.6922 23.2671 10.6922C23.2671 10.6922 23.3023 10.7508 23.3304 10.7922C23.3578 10.8344 23.3492 10.8297 23.5031 10.8625C23.657 10.8953 23.607 10.8047 23.5617 10.7789C23.5164 10.7532 23.4843 10.7485 23.4843 10.7485V10.7492Z" fill="#83171D"/>
<path d="M23.7781 10.5501C23.7781 10.5501 23.7445 10.4829 23.7179 10.3782C23.6914 10.2735 23.6812 10.1868 23.6476 10.2133C23.614 10.2399 23.5593 10.2352 23.5765 10.3805C23.5937 10.5258 23.6515 10.6524 23.6515 10.6524C23.6515 10.6524 23.5554 10.6071 23.4789 10.4657C23.4023 10.3243 23.3835 10.2586 23.357 10.2985C23.3304 10.3383 23.3343 10.5852 23.3859 10.661C23.4374 10.7376 23.5195 10.804 23.582 10.8305C23.6445 10.8571 23.7343 10.8719 23.771 10.7743C23.8078 10.6766 23.7781 10.5493 23.7781 10.5493V10.5501Z" fill="#AC1F24"/>
<path d="M23.8001 10.5214C23.8001 10.5214 23.7548 10.4019 23.8064 10.2628C23.858 10.1237 23.8876 10.1112 23.9548 10.0776C24.022 10.0441 24.0361 10.0909 24.0298 10.1144L24.0244 10.1378C24.0244 10.1378 24.0392 10.2183 24.0212 10.2542C24.0025 10.2901 23.9775 10.3159 23.9775 10.3901C23.9775 10.4636 24.0009 10.5409 24.0009 10.5409C24.0009 10.5409 23.9728 10.6862 23.947 10.7316C23.9212 10.7769 23.8798 10.762 23.8501 10.7034C23.8205 10.6448 23.8001 10.5222 23.8001 10.5222V10.5214Z" fill="#AC1F24"/>
<path d="M23.7804 10.8841C23.7804 10.8841 23.7078 10.9661 23.6101 11.0005C23.5117 11.0349 23.3843 11.013 23.3265 10.9318C23.2687 10.8505 23.2734 10.8216 23.3101 10.8146C23.346 10.8076 23.421 10.8185 23.5398 10.813C23.6585 10.8076 23.7523 10.788 23.7695 10.8138C23.7867 10.8404 23.7882 10.8544 23.7804 10.8833V10.8841Z" fill="#AC1F24"/>
<path d="M23.5461 11.0087C23.5461 11.0087 23.5266 11.0563 23.4352 11.1243C23.3438 11.1915 23.368 11.254 23.4024 11.2532C23.436 11.2517 23.4969 11.2392 23.4969 11.2392C23.4969 11.2392 23.6665 11.2103 23.7352 11.1431C23.804 11.0751 23.7954 10.9571 23.7883 10.9212L23.7813 10.8853C23.7813 10.8853 23.7188 10.9806 23.5461 11.0095V11.0087Z" fill="#A01D23"/>
<path d="M24.6563 10.6553C24.6563 10.6553 24.7993 10.5701 24.8141 10.6451C24.829 10.7201 24.8219 10.7319 24.7383 10.7991C24.6555 10.8655 24.6266 10.8858 24.6266 10.8858C24.6266 10.8858 24.6008 10.8147 24.568 10.7959C24.5344 10.7772 24.511 10.7717 24.511 10.7717L24.6563 10.6553Z" fill="#AC1F24"/>
<path d="M24.2827 10.45C24.2827 10.45 24.4538 10.339 24.4827 10.364C24.5108 10.389 24.5225 10.4617 24.4749 10.5406C24.4272 10.6203 24.328 10.7367 24.2093 10.7625C24.0905 10.7882 24.0077 10.8117 24.0116 10.7718C24.0155 10.732 24.1249 10.6054 24.1749 10.5484C24.2249 10.4914 24.2827 10.4507 24.2827 10.4507V10.45Z" fill="#89181A"/>
<path d="M23.908 10.7101C23.908 10.7101 23.9416 10.6094 23.9845 10.539C24.0275 10.4687 24.1392 10.407 24.2166 10.3867C24.2939 10.3664 24.3033 10.4219 24.2837 10.45C24.2642 10.4781 24.2416 10.5008 24.2337 10.5297C24.2259 10.5594 24.1994 10.5961 24.1181 10.6539C24.0369 10.7117 24.0298 10.7719 23.9923 10.7906C23.9548 10.8094 23.9111 10.7265 23.9087 10.7094L23.908 10.7101Z" fill="#AC1F24"/>
<path d="M24.0749 11.042C24.0749 11.042 24.1898 11.2217 24.3304 11.2334C24.471 11.2451 24.5031 11.1592 24.4593 11.1021C24.4156 11.0451 24.3554 11.0123 24.3218 10.974C24.289 10.9357 24.2351 10.8623 24.1179 10.9271C24.0007 10.992 24.0749 11.0428 24.0749 11.0428V11.042Z" fill="#83171D"/>
<path d="M24.4595 11.1016C24.4595 11.1016 24.6064 11.1407 24.6165 11.0602C24.6267 10.9797 24.5032 10.9203 24.4189 10.9219C24.3337 10.9235 24.2939 10.9219 24.2993 10.9672C24.3048 11.0117 24.429 11.0797 24.4603 11.1016H24.4595Z" fill="#AC1F24"/>
<path d="M23.7962 10.8454C23.7962 10.8454 23.7946 10.7634 23.8188 10.7517C23.8431 10.74 23.8735 10.7564 23.8735 10.7564C23.8735 10.7564 23.8884 10.715 23.9298 10.7267C23.9712 10.7392 24.0313 10.8876 24.0532 10.9337C24.0759 10.979 24.1071 10.9783 24.1048 11.0103C24.1024 11.0415 23.9009 11.2275 23.797 11.0244L23.7954 10.8454H23.7962Z" fill="#9B1C20"/>
<path d="M24.3312 10.691C24.3312 10.691 24.3914 10.6472 24.4937 10.5754C24.5961 10.5035 24.7265 10.4113 24.7179 10.5066C24.7093 10.6011 24.5921 10.7629 24.4586 10.8293C24.325 10.8964 24.3039 10.8902 24.3039 10.8902C24.3039 10.8902 24.214 10.8949 24.1023 10.8433C23.9914 10.791 24.0046 10.7386 24.0398 10.723C24.075 10.7074 24.3312 10.6918 24.3312 10.6918V10.691Z" fill="#A01D23"/>
<path d="M24.0898 10.975C24.0898 10.975 24.1687 11.139 24.2007 11.2656C24.2328 11.3921 24.1773 11.4273 24.0804 11.3765C23.9835 11.3257 23.9421 11.189 23.9421 11.189C23.9421 11.189 23.982 11.096 23.9749 11.0351C23.9679 10.9742 24.0054 10.9546 24.0273 10.9523C24.0499 10.95 24.0898 10.9757 24.0898 10.9757V10.975Z" fill="#AC1F24"/>
<path d="M23.9892 10.7516C23.9892 10.7516 24.1602 10.8055 24.2134 10.8273C24.2673 10.8492 24.3079 10.8562 24.3032 10.8906C24.2985 10.925 24.3298 10.9219 24.2618 10.9719C24.1938 11.0227 24.1407 11.0484 24.1048 11.0102C24.0688 10.9719 23.9923 10.8477 23.9915 10.8195C23.9915 10.7914 23.9634 10.7492 23.9892 10.7516Z" fill="#B72026"/>
<path d="M24.6265 10.8859C24.6265 10.8859 24.5968 10.9203 24.5187 10.9585C24.4406 10.996 24.2625 10.9718 24.2625 10.9718L24.307 10.9382L24.3039 10.8906C24.3039 10.8906 24.4125 10.8468 24.489 10.8031C24.5664 10.7601 24.6062 10.789 24.6265 10.8859Z" fill="#A01D23"/>
<path d="M23.8054 10.9947C23.8054 10.9947 23.7749 11.1174 23.7507 11.1768C23.7265 11.2361 23.7187 11.2908 23.8031 11.2838C23.8874 11.2768 23.9578 11.2033 23.9812 11.1127C24.0046 11.0221 23.9585 10.9455 23.8992 10.9463C23.8398 10.9479 23.8132 10.965 23.8054 10.994V10.9947Z" fill="#B92026"/>
<path d="M23.9077 10.7102C23.9077 10.7102 23.8491 10.6946 23.8484 10.618C23.8484 10.5415 23.8304 10.4899 23.7413 10.5258C23.6523 10.5618 23.6187 10.6626 23.6319 10.7258C23.6452 10.7899 23.664 10.8016 23.664 10.8016C23.664 10.8016 23.7445 10.7837 23.7702 10.8149C23.7968 10.8462 23.7812 10.8844 23.7812 10.8844C23.7812 10.8844 23.8062 10.7594 23.8398 10.7587L23.8734 10.7571L23.9077 10.7102Z" fill="#83171D"/>
<path d="M26.6407 2.31484C26.6266 2.4125 26.6126 2.51016 26.5977 2.60781C26.5735 2.77109 26.5594 2.93359 26.5423 3.09688C26.5391 3.12344 26.5329 3.1375 26.5524 3.15781C26.5665 3.17187 26.593 3.18516 26.6087 3.20156C26.6329 3.22578 26.6587 3.24609 26.6938 3.24609C26.6618 3.24141 26.6251 3.24062 26.5946 3.23047C26.5532 3.21719 26.5173 3.18359 26.4735 3.18125C26.5399 3.19375 26.5774 3.20625 26.5649 3.27969C26.5532 3.34688 26.5344 3.42109 26.5462 3.4875C26.5712 3.63125 26.5212 3.80078 26.5001 3.94375C26.4962 3.97188 26.4852 4.00625 26.486 4.03359C26.4868 4.06953 26.5087 4.09297 26.5063 4.12969C26.5001 4.21406 26.4805 4.30156 26.468 4.38516C26.4626 4.42266 26.4477 4.47031 26.4509 4.50781C26.454 4.54531 26.4743 4.55703 26.4704 4.59453C26.4626 4.66328 26.4501 4.73203 26.4399 4.80078C26.4352 4.83359 26.4313 4.86719 26.4266 4.9C26.4173 4.95938 26.3798 5.00391 26.3688 5.06328C26.3462 5.18516 26.3571 5.30547 26.3634 5.42813C26.3688 5.53281 26.3516 5.63359 26.336 5.7375C26.3204 5.83906 26.304 5.94063 26.2915 6.04297C26.2759 6.17109 26.2844 6.29531 26.2899 6.42344C26.2938 6.51953 26.3024 6.61953 26.2923 6.71563C26.2852 6.78203 26.2719 6.84922 26.2618 6.91563C26.2266 7.15469 26.1923 7.39375 26.1571 7.63281C26.1415 7.74219 26.1259 7.85156 26.1079 7.96094C26.0985 8.01641 26.0915 8.06172 26.0969 8.11719C26.1024 8.17109 26.1188 8.21641 26.1173 8.27031C26.1165 8.31016 26.1094 8.35469 26.1118 8.39453C26.1134 8.42188 26.1227 8.44063 26.129 8.46719C26.1391 8.51016 26.1368 8.55078 26.1305 8.59375C26.111 8.72109 26.093 8.84922 26.0743 8.97734C26.0626 9.05547 26.0516 9.13359 26.0399 9.21172C26.036 9.23672 26.0368 9.26719 26.029 9.29141C26.0196 9.31953 26.0063 9.3375 26.0009 9.36719C25.993 9.40938 25.9844 9.45469 25.9798 9.49688C25.9766 9.52969 25.9602 9.52422 25.993 9.5625C26.0196 9.59375 26.0634 9.60313 26.1009 9.60938C26.1298 9.61406 26.1602 9.61875 26.1891 9.62188C26.2274 9.62578 26.2837 9.60781 26.318 9.62969C26.3923 9.56797 26.4134 9.47344 26.4462 9.38984C26.461 9.35234 26.4884 9.32109 26.4993 9.28203C26.5235 9.19688 26.5313 9.09141 26.5399 9.00391C26.5469 8.93438 26.5102 8.87344 26.5188 8.80703C26.5266 8.74375 26.5204 8.68359 26.5188 8.61953C26.518 8.58516 26.5102 8.55391 26.5055 8.52031C26.5016 8.48672 26.5055 8.45781 26.5055 8.42344C26.5063 8.32578 26.5212 8.23203 26.5352 8.13516C26.5798 7.83047 26.6243 7.52656 26.668 7.22188C26.693 7.04766 26.718 6.87422 26.7438 6.7C26.7548 6.62734 26.7509 6.55938 26.7579 6.48672C26.7657 6.40313 26.7829 6.31953 26.7954 6.23672C26.8196 6.07266 26.8415 5.90781 26.8673 5.74375C26.8743 5.7 26.8805 5.6625 26.8759 5.61875C26.8719 5.58594 26.8641 5.56016 26.8657 5.52734C26.8688 5.47891 26.8743 5.42969 26.8634 5.38125C26.8548 5.34297 26.8485 5.33594 26.8469 5.29844C26.8438 5.22656 26.836 5.17031 26.8469 5.09922C26.8516 5.06953 26.8587 5.03906 26.8618 5.00938C26.868 4.94766 26.8532 4.89063 26.8532 4.82969C26.8524 4.68359 26.8634 4.54063 26.8844 4.39609C26.9188 4.1625 26.9524 3.92891 26.9868 3.69531C26.9969 3.62734 27.0079 3.56719 26.9993 3.49844C26.9923 3.4375 26.9993 3.38984 27.0079 3.32891C27.0282 3.18984 27.0329 3.0375 27.0735 2.90312C27.0844 2.86641 27.0962 2.84062 27.1016 2.80078C27.1055 2.76719 27.1063 2.74766 27.1204 2.71953C27.1313 2.69766 27.1485 2.67891 27.1594 2.65469C27.168 2.63516 27.1735 2.62656 27.179 2.60391C27.193 2.53516 27.1727 2.47734 27.1743 2.40859C27.1759 2.36172 27.1493 2.34062 27.1016 2.33125C27.0219 2.31562 26.9454 2.34922 26.8673 2.37422C26.8266 2.3875 26.8001 2.38516 26.7579 2.37891C26.7384 2.37578 26.7173 2.37422 26.6977 2.37031C26.6719 2.36484 26.6571 2.35078 26.6376 2.3125L26.6407 2.31484Z" fill="#AC1F24"/>
<path d="M26.9686 2.54627C26.9358 2.54158 26.9007 2.53064 26.8679 2.54158C26.8507 2.54705 26.835 2.55174 26.8186 2.55877C26.8007 2.56658 26.7827 2.56971 26.8116 2.67674C26.8304 2.68299 26.853 2.68299 26.8725 2.68611C26.9061 2.69158 26.9413 2.68767 26.9757 2.68611C27.0186 2.68377 27.0616 2.69392 27.1561 2.67439C27.1733 2.66346 27.2007 2.64861 27.2077 2.62752C27.2132 2.61267 27.2171 2.58924 27.1569 2.56658C27.1311 2.55564 27.1014 2.55486 27.0757 2.54392C27.0358 2.52674 26.9952 2.51111 26.9522 2.5033C26.9288 2.49939 26.9046 2.49705 26.878 2.52517" fill="#83171D"/>
<mask id="mask2_1566_17851" style="mask-type:luminance" maskUnits="userSpaceOnUse" x="24" y="8" width="4" height="8">
<path d="M25.7305 9.48418C25.6258 10.2006 25.5336 10.9209 25.4204 11.6365C25.3469 12.1021 25.2438 12.5686 25.1454 13.0287C25.0469 13.4889 24.9336 13.917 24.7821 14.3357C24.7407 14.4357 24.704 14.5373 24.6704 14.642C24.6563 14.7045 24.6391 14.7662 24.618 14.8256C24.5985 14.8764 24.5821 14.9186 24.5696 14.9709C24.5563 15.0248 24.5415 15.0771 24.5086 15.1209C24.493 15.142 24.4313 15.1764 24.4438 15.2146C24.5118 15.2436 24.6055 15.2357 24.6766 15.2248C24.7149 15.2186 24.743 15.2193 24.7829 15.2248C24.8165 15.2287 24.8344 15.2303 24.861 15.2561C24.8883 15.2826 24.9024 15.3068 24.9336 15.3279C24.9719 15.3529 24.9946 15.3881 25.0274 15.4232C25.0805 15.4795 25.1454 15.4865 25.2024 15.5334C25.2571 15.5795 25.2688 15.6014 25.3336 15.6092C25.4375 15.6217 25.5399 15.6256 25.6461 15.6115C25.75 15.5975 25.8594 15.5553 25.9625 15.5678C26.0055 15.5732 26.0477 15.5826 26.0907 15.5881C26.193 15.6029 26.3055 15.6029 26.4032 15.6389C26.4422 15.6529 26.4813 15.6623 26.5211 15.6756C26.5688 15.699 26.6165 15.7232 26.6633 15.7498C26.6915 15.7631 26.7211 15.7709 26.7774 15.7678C26.7852 15.742 26.7844 15.7186 26.7751 15.6959C26.761 15.6771 26.7438 15.685 26.725 15.6826C26.6797 15.6756 26.6547 15.6342 26.6165 15.6053C26.5844 15.5803 26.5805 15.5693 26.5579 15.5311C26.5219 15.4717 26.4782 15.4279 26.4477 15.3607C26.4079 15.2732 26.3836 15.1896 26.3649 15.0881C26.3329 14.917 26.3071 14.7732 26.311 14.5904C26.3133 14.4576 26.2985 14.335 26.2876 14.2045C26.2727 14.0193 26.2852 13.8412 26.2985 13.6537C26.3141 13.4232 26.3079 13.1959 26.3297 12.9654C26.3516 12.735 26.3915 12.4975 26.4258 12.2631C26.4891 11.8318 26.5516 11.3998 26.6141 10.9686C26.7501 10.0334 26.8868 9.09824 27.0227 8.16309" fill="white"/>
</mask>
<g mask="url(#mask2_1566_17851)">
<path d="M25.5229 9.2998C25.5635 9.36152 25.5963 9.43105 25.6315 9.49746C25.7236 9.67246 25.8088 9.85215 25.9127 10.0178C25.9822 10.1287 26.0518 10.2459 26.1283 10.3506C26.1549 10.3873 26.1861 10.4248 26.2197 10.4537C26.2557 10.4842 26.29 10.5068 26.319 10.5482C26.3432 10.5834 26.369 10.6256 26.3893 10.6646C26.4182 10.7209 26.4369 10.785 26.465 10.842C26.4893 10.892 26.5088 10.9459 26.5291 10.999C26.5393 11.0256 26.5463 11.0498 26.6096 11.1373C26.626 11.1568 26.6283 11.2154 26.6275 11.2475C26.626 11.3225 26.6166 11.399 26.619 11.474C26.6205 11.5154 26.6268 11.5514 26.6252 11.5943C26.6236 11.6357 26.6221 11.6779 26.6205 11.7193C26.6174 11.792 26.6143 11.8654 26.6119 11.9389C26.6111 11.9865 26.5963 12.0217 26.5635 12.0506C26.5315 12.0779 26.4979 12.0998 26.4666 12.1295C26.4525 12.1428 26.44 12.1568 26.4236 12.1662C26.4025 12.1779 26.3846 12.1771 26.3182 12.1725C26.2869 12.1764 26.2619 12.1959 26.2291 12.1967C26.158 12.1998 26.0877 12.2045 26.0174 12.2131C25.9799 12.2178 25.9393 12.2115 25.9018 12.21C25.8424 12.2076 25.7752 12.2186 25.7197 12.1936C25.6729 12.1732 25.6377 12.1334 25.5986 12.0959C25.5565 12.0561 25.519 12.017 25.4846 11.967C25.444 11.9092 25.4104 11.8459 25.3713 11.7865C25.3471 11.7498 25.3197 11.7162 25.3018 11.674C25.2494 11.5514 25.2408 11.3951 25.2143 11.2623C25.1963 11.1709 25.1697 11.085 25.1385 10.999C25.108 10.9146 25.058 10.8326 25.0338 10.7436C24.9838 10.5607 24.9908 10.374 24.9979 10.1842" fill="#A01D23"/>
<path d="M26.7978 10.4829C26.6463 10.7415 26.3861 10.9157 26.1549 11.097C26.0963 11.1431 26.0392 11.1923 25.983 11.2423C25.9267 11.2931 25.8642 11.3345 25.8056 11.3821C25.6838 11.4798 25.5611 11.5821 25.4517 11.6946C25.3783 11.7704 25.2791 11.8134 25.2017 11.8876C25.1713 11.9173 25.1299 11.9337 25.1025 11.9657C25.0767 11.9962 25.0627 12.0188 25.0299 12.0438C24.9736 12.0876 24.9213 12.1313 24.8767 12.1853C24.8416 12.2282 24.8228 12.2892 24.7853 12.3282C24.758 12.3571 24.7314 12.3837 24.7049 12.4149C24.6596 12.4681 24.6721 12.5399 24.6424 12.5993C24.6166 12.6517 24.5806 12.7048 24.551 12.7556C24.5213 12.8056 24.4908 12.8587 24.458 12.9071C24.3986 12.9931 24.3635 13.0853 24.3377 13.1853C24.3205 13.2524 24.3213 13.2774 24.3986 13.2962C24.4424 13.3071 24.4861 13.3181 24.5306 13.3298C24.5463 13.3337 24.5846 13.3368 24.5978 13.3509C24.6275 13.3821 24.6135 13.4306 24.608 13.4673C24.5994 13.5212 24.6197 13.5743 24.601 13.6274C24.8978 13.6274 25.1931 13.6009 25.49 13.6024C25.5392 13.6048 25.5877 13.6024 25.6361 13.5931C25.658 13.5892 25.6791 13.5868 25.7525 13.5884C25.8064 13.5876 25.8603 13.5813 25.9142 13.5806C25.9736 13.579 26.0447 13.5868 26.1049 13.5782C26.1455 13.572 26.1853 13.5548 26.2221 13.536C26.2658 13.511 26.3049 13.4798 26.3392 13.4423C26.3783 13.4071 26.4142 13.3688 26.4478 13.3282C26.4963 13.2524 26.515 13.1642 26.5392 13.0782C26.5814 12.9259 26.6189 12.772 26.6595 12.6188C26.708 12.436 26.7619 12.2556 26.7916 12.0688C26.8244 11.861 26.8299 11.6517 26.8494 11.4431C26.8642 11.2876 26.8861 11.111 26.9267 10.9579C26.9502 10.8688 26.983 10.7837 26.9885 10.6915C26.9916 10.6376 27.0002 10.4907 26.7994 10.4829H26.7978Z" fill="#83171D"/>
<path d="M25.2674 12.2183C25.3182 12.2753 25.351 12.369 25.3979 12.4323C25.5158 12.5894 25.6736 12.6894 25.8135 12.8026C26.0221 12.9714 26.2424 13.1167 26.4588 13.2683C26.551 13.3331 26.633 13.4292 26.7393 13.4636C26.7885 13.4792 26.8385 13.4917 26.8822 13.5175C26.9135 13.5354 26.965 13.5097 26.9611 13.5894C26.9549 13.7151 26.9065 13.8769 26.9057 14.0003C26.9049 14.1237 26.9033 14.2378 26.8947 14.369C26.8861 14.4964 26.8807 14.6206 26.8791 14.7417C26.8791 14.7808 26.8807 14.8183 26.8768 14.8605C26.8705 14.9323 26.851 15.0144 26.8533 15.0792C26.8549 15.1183 26.8658 15.1425 26.8674 15.1808C26.8705 15.2675 26.865 15.3519 26.8729 15.4362C26.8815 15.5269 26.8635 15.612 26.8635 15.7097C26.8635 15.7581 26.8799 15.7878 26.8775 15.8386C26.8744 15.9089 26.8565 15.9323 26.8182 15.998C26.7908 16.0456 26.7486 16.1175 26.6416 16.3081C26.5861 16.3605 26.526 16.4636 26.3822 16.687C26.4455 16.6167 26.515 16.6409 26.5627 16.6323C26.5979 16.6261 26.6908 16.5737 26.7025 16.6128C26.6775 16.6386 26.6533 16.6573 26.6299 16.6706C26.5205 16.7495 26.4104 16.8308 26.3002 16.9144C26.1643 17.0253 26.0315 17.1206 25.901 17.1987C25.7361 17.3097 25.5744 17.4003 25.4174 17.4706C25.0635 17.6565 24.7236 17.8183 24.3924 17.9159C24.3041 17.9417 24.2158 17.9675 24.1275 17.994C24.0744 18.0167 24.0252 18.0269 23.9799 18.0253C23.9416 17.9683 23.9252 17.88 23.9315 17.762C23.9299 17.6683 23.9275 17.5745 23.926 17.4808C23.9236 17.1901 23.9424 16.8776 23.944 16.5831C23.944 16.4237 23.9666 16.2472 23.9729 16.0823C23.9775 15.9722 23.9697 15.8729 23.9775 15.7597" fill="#A01D23"/>
</g>
<path d="M14.243 36.1717C12.9165 35.9787 11.4618 35.5366 9.89149 34.8475C7.2868 33.7053 5.6993 32.4162 5.17273 31.0186C5.0993 30.8272 5.02976 30.6616 4.96726 30.5139C4.68758 29.8545 4.53367 29.4912 5.03602 28.7116C5.44852 28.0717 6.56883 27.2233 7.55711 26.4741C7.96414 26.167 8.34774 25.8764 8.60711 25.653C9.65711 24.7498 10.8665 23.9225 12.1485 23.0452C13.5954 22.0569 15.0899 21.0334 16.3227 19.8983C19.1071 17.3366 22.6657 14.9561 27.8954 16.6834L28.1298 16.7608C29.1563 17.0991 30.2173 17.4483 31.136 17.9873C31.868 18.4162 32.554 19.1186 32.9259 19.8194C33.2766 20.4811 33.372 20.9303 32.9196 21.553C31.1009 24.0498 28.6501 26.5936 26.054 29.2858C24.7141 30.6764 23.3274 32.1139 22.0298 33.5522C20.722 34.9991 18.9282 35.917 16.8391 36.2077C16.0407 36.3194 15.1735 36.3061 14.2438 36.1709L14.243 36.1717ZM16.4001 19.9827L16.4774 20.0662C15.2313 21.2123 13.7298 22.2397 12.2766 23.2327C11.0016 24.1061 9.79695 24.9295 8.75555 25.8256C8.49148 26.053 8.10476 26.3459 7.69539 26.6553C6.76883 27.3569 5.61649 28.2287 5.22742 28.8358C4.78992 29.5155 4.9032 29.7819 5.17586 30.4264C5.23914 30.5764 5.31102 30.7452 5.38445 30.9405C5.88992 32.2795 7.43601 33.5241 9.98133 34.6412C12.618 35.7967 14.9118 36.2483 16.8087 35.9858C18.843 35.7022 20.5899 34.8084 21.8602 33.4022C23.161 31.9608 24.5485 30.5217 25.8915 29.1303C28.4813 26.4428 30.9274 23.9053 32.736 21.4217C33.0868 20.9389 33.0845 20.6045 32.7259 19.9272C32.3774 19.2709 31.7095 18.5866 31.0212 18.1834C30.1227 17.6577 29.0735 17.3116 28.0579 16.9772L27.8251 16.8998C22.6954 15.2084 19.2126 17.5506 16.4774 20.067L16.4001 19.9834V19.9827Z" fill="#761113"/>
<path d="M32.8953 21.6888C32.8899 21.6881 32.8836 21.6865 32.8766 21.6849L19.8516 17.5373C19.793 17.5185 19.7594 17.4545 19.7782 17.3951C19.7961 17.3357 19.8477 17.2966 19.9219 17.3216L32.9469 21.4693C33.0055 21.4881 33.0391 21.5521 33.0203 21.6115C33.0039 21.6646 32.95 21.6974 32.8953 21.6896V21.6888Z" fill="#761113"/>
<path d="M31.7852 24.1931C31.7798 24.1923 31.7751 24.1907 31.7696 24.1892L16.1392 19.5126C16.079 19.4946 16.0454 19.4321 16.0626 19.372C16.0806 19.3103 16.1407 19.2775 16.2032 19.2954L31.8337 23.972C31.8938 23.99 31.9274 24.0525 31.9102 24.1126C31.8931 24.1673 31.8407 24.2009 31.7852 24.1931Z" fill="#761113"/>
<path d="M29.4337 27.0398C29.4282 27.0391 29.422 27.0375 29.4149 27.0352C23.672 25.1828 17.9048 23.1836 12.2727 21.0922C12.2134 21.0703 12.1837 21.0055 12.2063 20.9469C12.2282 20.8891 12.2985 20.8578 12.3516 20.8805C17.9806 22.9703 23.7454 24.9687 29.4852 26.8203C29.5454 26.8398 29.5774 26.9031 29.5587 26.9625C29.5407 27.0156 29.4884 27.0477 29.4345 27.0398H29.4337Z" fill="#761113"/>
<path d="M26.6782 29.2064C26.668 29.2048 26.6563 29.2017 26.6469 29.1962C21.4157 26.7798 15.8852 24.7868 10.2126 23.2728C10.1524 23.2564 10.1165 23.1939 10.1329 23.1337C10.1493 23.0736 10.2149 23.0525 10.2712 23.0532C15.9571 24.5712 21.4977 26.5697 26.7423 28.9915C26.7977 29.0173 26.8243 29.0845 26.7977 29.1423C26.7758 29.1884 26.7258 29.2142 26.6782 29.2072V29.2064Z" fill="#761113"/>
<path d="M23.921 31.9251C23.9139 31.9243 23.9061 31.9219 23.8991 31.9196C22.0717 31.2641 20.2444 30.6087 18.4186 29.9532C14.5147 28.5524 10.4796 27.104 6.6233 25.4493C6.56549 25.4251 6.53971 25.3579 6.56471 25.3008C6.58814 25.2438 6.64986 25.2094 6.71314 25.2423C10.5624 26.893 14.5952 28.3407 18.4944 29.7391C20.3202 30.3946 22.1475 31.0508 23.9749 31.7055C24.0342 31.7266 24.0655 31.7915 24.0428 31.8501C24.0249 31.9016 23.9725 31.9321 23.9202 31.9243L23.921 31.9251Z" fill="#761113"/>
<path d="M20.5001 34.9651C20.4868 34.9635 20.4727 34.9581 20.4602 34.951C18.1602 33.6409 15.6696 32.5588 13.054 31.7362C12.2532 31.4838 11.4243 31.251 10.6219 31.026C8.58599 30.4542 6.47974 29.862 4.62974 28.8995C4.57427 28.8706 4.55317 28.8026 4.58052 28.7463C4.61099 28.6917 4.67818 28.669 4.73364 28.6987C6.56255 29.651 8.65708 30.2393 10.6836 30.8081C11.4868 31.0338 12.3172 31.2674 13.1211 31.5198C15.7516 32.3487 18.2586 33.4362 20.5719 34.7549C20.6274 34.7862 20.6454 34.8549 20.6149 34.9096C20.5907 34.9518 20.5446 34.9721 20.4993 34.9659L20.5001 34.9651Z" fill="#761113"/>
<path d="M12.3492 31.4925C12.3227 31.4886 12.2984 31.4754 12.2789 31.4535C12.2383 31.4058 12.2437 31.3347 12.2914 31.2933L26.5156 19.2441C26.5648 19.2035 26.6344 19.2082 26.6758 19.2582C26.7164 19.3058 26.7109 19.3769 26.6633 19.4183L12.4391 31.4676C12.4117 31.4886 12.3797 31.498 12.3492 31.4933V31.4925Z" fill="#761113"/>
<path d="M17.8445 21.7976C17.864 21.7913 17.8828 21.7851 17.9023 21.7788L17.8445 21.7976Z" fill="#801517"/>
<path d="M28.8454 17.8008C28.8376 17.775 28.8306 17.7484 28.8228 17.7227L28.8454 17.8008Z" fill="#801517"/>
<path d="M27.9914 19.4239C28.1625 19.6091 28.4101 19.7528 28.6726 19.8716C29.0422 20.0388 29.4586 20.1645 29.8851 20.1786C30.3117 20.1927 30.7492 20.0841 31.0047 19.8505C31.2601 19.6169 31.2945 19.252 31.032 19.0013C30.6187 18.6059 29.2758 18.3364 28.6179 18.3419C27.8437 18.3481 27.5726 18.9708 27.9914 19.4239Z" fill="#801517"/>
<path d="M13.6249 33.6024C13.3124 33.7454 12.9858 33.9766 13.1116 34.2649C13.2148 34.5009 13.5679 34.6384 13.8812 34.7368C14.4468 34.9141 15.0468 35.0766 15.6163 35.0345C16.1851 34.9923 16.7046 34.6837 16.6757 34.2524C16.6468 33.8165 15.9874 33.2673 15.4007 33.1477C14.7804 33.0212 14.0835 33.393 13.6257 33.6024H13.6249Z" fill="#801517"/>
<path d="M7.35947 22.5898C7.46494 22.593 7.57432 22.5609 7.65244 22.4891C7.99307 22.1773 7.43838 21.8297 7.13526 21.9156C6.71963 22.0328 7.02276 22.5797 7.35947 22.5898Z" fill="#801517"/>
<path d="M10.7945 29.0092C10.732 28.8944 10.5593 28.8686 10.4546 28.9467C10.3499 29.0249 10.3195 29.1788 10.3671 29.2999C10.4156 29.421 10.5296 29.5085 10.6546 29.5452C10.8257 29.596 11.0359 29.5467 11.1288 29.3936C11.221 29.2413 11.1312 28.9975 10.9538 28.9803" fill="#801517"/>
<path d="M25.3407 26.1879C25.1602 26.0833 24.9009 26.152 24.7946 26.3317C24.6884 26.5114 24.7548 26.7715 24.9337 26.8786C25.1126 26.9856 25.3727 26.9215 25.4813 26.7434C25.5899 26.5653 25.5274 26.3043 25.3501 26.1942" fill="#801517"/>
<path d="M33.7484 29.3461C33.6195 29.3148 33.482 29.4148 33.4484 29.543C33.4148 29.6711 33.4718 29.8117 33.5687 29.9023C33.6882 30.0141 33.8734 30.0563 34.0234 29.9898C34.1726 29.9234 34.2679 29.7438 34.2203 29.5867C34.1734 29.4305 33.9773 29.332 33.8297 29.4024" fill="#801517"/>
<path d="M11.0062 32.2733C10.8304 32.2499 10.6804 32.3772 10.7351 32.5061C10.7897 32.6343 11.0304 32.7132 11.1655 32.6452C11.2999 32.5772 11.2694 32.3897 11.1108 32.3171" fill="#801517"/>
<path d="M13.075 32.607C12.9836 32.6671 12.907 32.7437 12.8867 32.8374C12.868 32.9218 12.9047 33.0226 13.0234 33.1101C13.1695 33.1968 13.3773 33.1749 13.4984 33.096C13.8258 32.882 13.4148 32.3827 13.075 32.607Z" fill="#801517"/>
<path d="M9.53354 31.5931C9.39604 31.4939 9.16401 31.4877 9.05698 31.5806C8.94995 31.6736 8.99057 31.8463 9.14057 31.9353C9.22651 31.9861 9.33745 32.008 9.43511 31.9963C9.56167 31.9814 9.66245 31.9095 9.68667 31.8174C9.71088 31.7244 9.65698 31.615 9.55307 31.5431" fill="#801517"/>
<path d="M10.5485 31.5796C10.4126 31.6343 10.2712 31.6921 10.1938 31.7905C10.1165 31.889 10.1259 32.0413 10.2595 32.1288C10.4087 32.2257 10.6345 32.1905 10.7423 32.0937C10.8501 31.996 10.8712 31.8569 10.8891 31.7249" fill="#801517"/>
<path d="M17.4726 23.9758C17.2382 23.854 16.9038 23.9048 16.7984 24.0735C16.6929 24.2423 16.8265 24.4891 17.0718 24.5954C17.3179 24.7016 17.6343 24.6587 17.7726 24.5055C17.9109 24.3532 17.864 24.1126 17.6741 23.9532" fill="#801517"/>
<path d="M26.471 18.1388C26.4898 17.945 26.2374 17.7341 25.9687 17.7106C25.6999 17.688 25.4694 17.8489 25.4765 18.0458C25.4835 18.2427 25.7163 18.4442 25.9835 18.4942C26.2507 18.5442 26.5218 18.4434 26.6124 18.2684" fill="#801517"/>
<path d="M14.4601 22.8661C14.1218 22.7794 13.7734 22.9958 13.8429 23.2505C13.9867 23.4466 14.3336 23.5599 14.5875 23.4935C14.8414 23.4271 14.9617 23.1911 14.8453 22.988" fill="#801517"/>
<path d="M17.0273 23.1447C16.9078 23.0041 16.6 23.0213 16.5125 23.1518C16.425 23.283 16.5125 23.4635 16.6578 23.5916C16.7945 23.7119 16.9882 23.8049 17.1867 23.8221C17.3851 23.8385 17.582 23.7682 17.6453 23.6377C17.7086 23.5072 17.6101 23.3236 17.4226 23.2557" fill="#801517"/>
<path d="M13.8133 25.3783C13.6102 25.4791 13.3969 25.5884 13.3141 25.7627C13.2313 25.9369 13.3422 26.1931 13.6008 26.2642C13.8282 26.3259 14.0422 26.2205 14.1782 26.0978C14.3016 25.9853 14.3985 25.8494 14.4008 25.6947C14.4032 25.54 14.2922 25.365 14.0977 25.2814C13.9032 25.1978 13.636 25.2416 13.5829 25.3861C13.5305 25.5306 13.7719 25.7236 13.9618 25.6744" fill="#801517"/>
<path d="M20.4837 28.3347C20.3369 28.4097 20.2228 28.5456 20.1736 28.7034C20.3212 28.7409 20.4869 28.7769 20.6181 28.6995C20.7572 28.6175 20.8009 28.4081 20.7048 28.2769" fill="#801517"/>
<path d="M22.4532 28.757C22.2821 28.7258 22.1016 28.75 21.9453 28.825C21.8774 28.8578 21.8079 28.9086 21.7954 28.9836C21.7789 29.082 21.8719 29.168 21.968 29.1945C22.1078 29.2336 22.2688 29.1844 22.3633 29.0734C22.4578 28.9625 22.4813 28.7961 22.4211 28.6641" fill="#801517"/>
<path d="M21.272 27.064C21.1259 27.1765 21.0408 27.364 21.0517 27.5483C21.0588 27.6663 21.1205 27.796 21.2353 27.821C21.3119 27.8374 21.3923 27.8015 21.4486 27.746C21.5048 27.6913 21.5408 27.6194 21.5759 27.5491C21.6088 27.4835 21.6423 27.4163 21.6494 27.3429C21.6556 27.2694 21.6298 27.189 21.5666 27.1515C21.5033 27.114 21.4048 27.1429 21.3884 27.2147" fill="#801517"/>
<path d="M20.4627 29.2453C20.4564 29.4086 20.5642 29.5657 20.7127 29.6321C20.8611 29.6985 21.0416 29.6789 21.1822 29.5961C21.2494 29.5563 21.3119 29.4969 21.3244 29.4196C21.3447 29.2922 21.2244 29.1891 21.1134 29.1242C20.8728 28.9836 20.4806 28.7899 20.4627 29.2453Z" fill="#801517"/>
<path d="M22.5866 29.4741C22.3882 29.5124 22.2569 29.7522 22.3319 29.9397C22.4077 30.1272 22.6686 30.2101 22.8382 30.0999C22.9811 30.0069 23.035 29.8007 22.96 29.6476C22.8929 29.5108 22.7061 29.4288 22.5811 29.514" fill="#801517"/>
<path d="M19.2468 28.119C19.2742 28.1768 19.3281 28.2236 19.389 28.2377C19.4062 28.2416 19.4242 28.2432 19.4413 28.2408C20.0421 28.1791 19.0413 27.6893 19.2468 28.1182V28.119Z" fill="#801517"/>
<path d="M21.9687 28.0018C21.8718 27.9636 21.7733 27.9245 21.6694 27.9136C21.5655 27.9026 21.4546 27.9214 21.3741 27.9878C21.2937 28.0542 21.2546 28.1745 21.3007 28.2682C21.3687 28.4065 21.5804 28.412 21.7023 28.3167C21.8241 28.2214 21.8773 28.0659 21.9249 27.919" fill="#801517"/>
<path d="M22.2875 28.2594C22.2125 28.3235 22.1977 28.4352 22.218 28.532C22.2274 28.5766 22.2446 28.6195 22.2672 28.6594C22.3258 28.7633 22.4235 28.8445 22.5375 28.8797C23.3047 29.1172 22.7469 27.8672 22.2875 28.2594Z" fill="#801517"/>
<path d="M23.4181 25.7295C23.3228 25.8662 23.2236 26.0154 23.2244 26.1826C23.2244 26.3498 23.3759 26.5248 23.5377 26.4826C23.6103 26.4639 23.6681 26.4053 23.7064 26.3412C23.7939 26.1951 23.8001 26.0021 23.7212 25.8506C23.6423 25.699 23.4822 25.5936 23.3119 25.5811" fill="#801517"/>
<path d="M22.189 25.599C22.0944 25.5803 21.9897 25.6232 21.9366 25.7037C21.8835 25.7842 21.8835 25.8975 21.9382 25.9771C22.0515 26.1436 22.3421 26.092 22.4405 25.9162C22.5272 25.7623 22.4874 25.549 22.3515 25.4365" fill="#801517"/>
<path d="M5.59844 22.1115C5.525 22.0224 5.40234 21.9771 5.28906 21.9959C5.17578 22.0154 5.075 22.0982 5.03516 22.2068C4.98125 22.3529 5.04219 22.5271 5.16172 22.6271C5.28125 22.7271 5.44766 22.7599 5.60156 22.7389C5.87578 22.7014 6.13359 22.456 6.10391 22.181C5.79141 22.1349 5.47891 22.0881 5.16641 22.042" fill="#801517"/>
<path d="M5.52198 23.218C5.35167 23.2086 5.17276 23.2001 5.01885 23.2735C4.86495 23.3469 4.75011 23.5321 4.81339 23.6899C4.87745 23.8493 5.07589 23.9008 5.24698 23.9157C5.39151 23.9282 5.54229 23.929 5.67354 23.868C5.80479 23.8071 5.91026 23.6696 5.89151 23.5258C5.87355 23.3907 5.75167 23.2876 5.61964 23.2501C5.48839 23.2126 5.34854 23.2274 5.21261 23.2422" fill="#801517"/>
<path d="M7.12179 23.1383C6.91945 23.1461 6.71632 23.1539 6.51398 23.1617C6.3671 23.3023 6.39679 23.5766 6.56242 23.6953C6.72804 23.8141 6.98351 23.7648 7.10695 23.6023C7.23039 23.4398 7.21554 23.1937 7.0882 23.0352" fill="#801517"/>
<path d="M33.9655 30.561C33.6944 30.5868 33.4468 30.8001 33.3991 31.0681C33.3507 31.336 33.5202 31.6313 33.7811 31.7087C34.0421 31.786 34.3546 31.6181 34.4194 31.354C34.4843 31.0899 34.2679 30.7892 33.996 30.7806" fill="#801517"/>
</g>
</svg>
